%TF.GenerationSoftware,KiCad,Pcbnew,8.0.2*%
%TF.CreationDate,2024-05-22T08:13:53-07:00*%
%TF.ProjectId,cell string,63656c6c-2073-4747-9269-6e672e6b6963,rev?*%
%TF.SameCoordinates,Original*%
%TF.FileFunction,Profile,NP*%
%FSLAX46Y46*%
G04 Gerber Fmt 4.6, Leading zero omitted, Abs format (unit mm)*
G04 Created by KiCad (PCBNEW 8.0.2) date 2024-05-22 08:13:53*
%MOMM*%
%LPD*%
G01*
G04 APERTURE LIST*
%TA.AperFunction,Profile*%
%ADD10C,0.250000*%
%TD*%
G04 APERTURE END LIST*
D10*
X122254144Y-130004904D02*
G75*
G02*
X119785534Y-125764648I2407456J4240304D01*
G01*
X23200000Y-144700000D02*
X23200000Y-169202681D01*
X124406000Y-131226582D02*
X122254144Y-130004904D01*
X124406000Y-137620499D02*
X124406000Y-131226582D01*
X95675962Y-209202681D02*
X124864094Y-209202681D01*
X135748000Y-202858868D02*
X135748000Y-184017553D01*
X27462500Y-144700000D02*
X23200000Y-144700000D01*
X83525000Y-185284005D02*
X83525000Y-205392681D01*
X119785512Y-125764648D02*
X119785512Y-125014648D01*
X135748000Y-144700000D02*
X131485500Y-144700000D01*
X83525000Y-205392681D02*
X86815166Y-205392681D01*
X131485500Y-169858553D02*
X135748000Y-169858553D01*
X135748000Y-169858553D02*
X135748000Y-144700000D01*
X39162488Y-125764648D02*
G75*
G02*
X36724508Y-129987356I-4875978J8D01*
G01*
X73981300Y-169202681D02*
X73981300Y-179773948D01*
X73981300Y-179773948D02*
X83525000Y-185284005D01*
X131485500Y-144700000D02*
G75*
G02*
X124406000Y-137620499I0J7079500D01*
G01*
X39162488Y-125014648D02*
X39162488Y-125764648D01*
X86815166Y-205392681D02*
G75*
G02*
X95675973Y-208202681I3984834J-2810019D01*
G01*
X135748000Y-184017553D02*
X131485500Y-184017553D01*
X23200000Y-169202681D02*
X73981300Y-169202681D01*
X36724507Y-129987355D02*
X34542000Y-131247426D01*
X124864094Y-209202681D02*
X135748000Y-202858868D01*
X131485500Y-184017553D02*
G75*
G02*
X131485500Y-169858547I0J7079503D01*
G01*
X119785512Y-125014648D02*
X39162488Y-125014648D01*
X34542000Y-131247426D02*
X34542000Y-137620499D01*
X95675962Y-208202681D02*
X95675962Y-209202681D01*
X34542000Y-137620499D02*
G75*
G02*
X27462500Y-144700000I-7079490J-11D01*
G01*
M02*
