%TF.GenerationSoftware,KiCad,Pcbnew,8.0.2*%
%TF.CreationDate,2024-05-22T08:13:53-07:00*%
%TF.ProjectId,cell string,63656c6c-2073-4747-9269-6e672e6b6963,rev?*%
%TF.SameCoordinates,Original*%
%TF.FileFunction,Soldermask,Bot*%
%TF.FilePolarity,Negative*%
%FSLAX46Y46*%
G04 Gerber Fmt 4.6, Leading zero omitted, Abs format (unit mm)*
G04 Created by KiCad (PCBNEW 8.0.2) date 2024-05-22 08:13:53*
%MOMM*%
%LPD*%
G01*
G04 APERTURE LIST*
G04 Aperture macros list*
%AMRotRect*
0 Rectangle, with rotation*
0 The origin of the aperture is its center*
0 $1 length*
0 $2 width*
0 $3 Rotation angle, in degrees counterclockwise*
0 Add horizontal line*
21,1,$1,$2,0,0,$3*%
G04 Aperture macros list end*
%ADD10C,9.000000*%
%ADD11R,12.000000X7.200000*%
%ADD12C,4.000000*%
%ADD13RotRect,12.000000X7.200000X60.000000*%
%ADD14C,1.700000*%
%ADD15RotRect,12.000000X7.200000X300.000000*%
%ADD16RotRect,12.000000X7.200000X240.000000*%
G04 APERTURE END LIST*
D10*
%TO.C,BT13*%
X102150000Y-196600000D03*
D11*
X96150000Y-196600000D03*
D12*
X95650000Y-201400000D03*
%TD*%
D10*
%TO.C,BT8*%
X102150000Y-157280000D03*
D13*
X105150000Y-152083848D03*
D12*
X101243078Y-149250835D03*
%TD*%
D14*
%TO.C,J3*%
X77920000Y-174050000D03*
%TD*%
%TO.C,J2*%
X75390000Y-176600000D03*
%TD*%
D10*
%TO.C,BT11*%
X113500000Y-176940000D03*
D15*
X116500000Y-182136152D03*
D12*
X120906922Y-180169165D03*
%TD*%
D14*
%TO.C,J6*%
X75390000Y-174050000D03*
%TD*%
D10*
%TO.C,BT9*%
X113500000Y-137620000D03*
D15*
X116500000Y-142816152D03*
D12*
X120906922Y-140849165D03*
%TD*%
D10*
%TO.C,BT6*%
X79450000Y-157280000D03*
D15*
X82450000Y-162476152D03*
D12*
X86856922Y-160509165D03*
%TD*%
D10*
%TO.C,BT12*%
X124850000Y-196600000D03*
D11*
X118850000Y-196600000D03*
D12*
X118350000Y-201400000D03*
%TD*%
D10*
%TO.C,BT7*%
X90800000Y-176940000D03*
D13*
X93800000Y-171743848D03*
D12*
X89893078Y-168910835D03*
%TD*%
D10*
%TO.C,BT3*%
X45400000Y-137620000D03*
D11*
X51400000Y-137620000D03*
D12*
X51900000Y-132820000D03*
%TD*%
D14*
%TO.C,J1*%
X86460000Y-203540000D03*
%TD*%
D10*
%TO.C,BT4*%
X68100000Y-137620000D03*
D11*
X74100000Y-137620000D03*
D12*
X74600000Y-132820000D03*
%TD*%
D10*
%TO.C,BT5*%
X90800000Y-137620000D03*
D16*
X87800000Y-142816152D03*
D12*
X91706922Y-145649165D03*
%TD*%
D10*
%TO.C,BT2*%
X34050000Y-157280000D03*
D13*
X37050000Y-152083848D03*
D12*
X33143078Y-149250835D03*
%TD*%
D10*
%TO.C,BT1*%
X56750000Y-157280000D03*
D11*
X50750000Y-157280000D03*
D12*
X50250000Y-162080000D03*
%TD*%
D14*
%TO.C,J4*%
X77930000Y-171520000D03*
%TD*%
%TO.C,J5*%
X75390000Y-171510000D03*
%TD*%
D10*
%TO.C,BT10*%
X124850000Y-157280000D03*
D16*
X121850000Y-162476152D03*
D12*
X125756922Y-165309165D03*
%TD*%
M02*
