%TF.GenerationSoftware,KiCad,Pcbnew,8.0.2*%
%TF.CreationDate,2024-05-22T08:13:53-07:00*%
%TF.ProjectId,cell string,63656c6c-2073-4747-9269-6e672e6b6963,rev?*%
%TF.SameCoordinates,Original*%
%TF.FileFunction,Copper,L1,Top*%
%TF.FilePolarity,Positive*%
%FSLAX46Y46*%
G04 Gerber Fmt 4.6, Leading zero omitted, Abs format (unit mm)*
G04 Created by KiCad (PCBNEW 8.0.2) date 2024-05-22 08:13:53*
%MOMM*%
%LPD*%
G01*
G04 APERTURE LIST*
G04 Aperture macros list*
%AMRoundRect*
0 Rectangle with rounded corners*
0 $1 Rounding radius*
0 $2 $3 $4 $5 $6 $7 $8 $9 X,Y pos of 4 corners*
0 Add a 4 corners polygon primitive as box body*
4,1,4,$2,$3,$4,$5,$6,$7,$8,$9,$2,$3,0*
0 Add four circle primitives for the rounded corners*
1,1,$1+$1,$2,$3*
1,1,$1+$1,$4,$5*
1,1,$1+$1,$6,$7*
1,1,$1+$1,$8,$9*
0 Add four rect primitives between the rounded corners*
20,1,$1+$1,$2,$3,$4,$5,0*
20,1,$1+$1,$4,$5,$6,$7,0*
20,1,$1+$1,$6,$7,$8,$9,0*
20,1,$1+$1,$8,$9,$2,$3,0*%
%AMRotRect*
0 Rectangle, with rotation*
0 The origin of the aperture is its center*
0 $1 length*
0 $2 width*
0 $3 Rotation angle, in degrees counterclockwise*
0 Add horizontal line*
21,1,$1,$2,0,0,$3*%
G04 Aperture macros list end*
%TA.AperFunction,SMDPad,CuDef*%
%ADD10RoundRect,0.160000X-0.197500X-0.160000X0.197500X-0.160000X0.197500X0.160000X-0.197500X0.160000X0*%
%TD*%
%TA.AperFunction,SMDPad,CuDef*%
%ADD11RoundRect,0.150000X-0.350000X-0.150000X0.350000X-0.150000X0.350000X0.150000X-0.350000X0.150000X0*%
%TD*%
%TA.AperFunction,SMDPad,CuDef*%
%ADD12RoundRect,0.160000X-0.160000X0.197500X-0.160000X-0.197500X0.160000X-0.197500X0.160000X0.197500X0*%
%TD*%
%TA.AperFunction,SMDPad,CuDef*%
%ADD13RoundRect,0.160000X0.197500X0.160000X-0.197500X0.160000X-0.197500X-0.160000X0.197500X-0.160000X0*%
%TD*%
%TA.AperFunction,SMDPad,CuDef*%
%ADD14RoundRect,0.192308X-0.682692X0.307692X-0.682692X-0.307692X0.682692X-0.307692X0.682692X0.307692X0*%
%TD*%
%TA.AperFunction,SMDPad,CuDef*%
%ADD15RoundRect,0.112500X-0.237500X0.112500X-0.237500X-0.112500X0.237500X-0.112500X0.237500X0.112500X0*%
%TD*%
%TA.AperFunction,SMDPad,CuDef*%
%ADD16RoundRect,0.155000X-0.212500X-0.155000X0.212500X-0.155000X0.212500X0.155000X-0.212500X0.155000X0*%
%TD*%
%TA.AperFunction,SMDPad,CuDef*%
%ADD17RoundRect,0.150000X0.350000X0.150000X-0.350000X0.150000X-0.350000X-0.150000X0.350000X-0.150000X0*%
%TD*%
%TA.AperFunction,SMDPad,CuDef*%
%ADD18RoundRect,0.160000X0.160000X-0.197500X0.160000X0.197500X-0.160000X0.197500X-0.160000X-0.197500X0*%
%TD*%
%TA.AperFunction,ComponentPad*%
%ADD19C,9.000000*%
%TD*%
%TA.AperFunction,ComponentPad*%
%ADD20C,4.000000*%
%TD*%
%TA.AperFunction,SMDPad,CuDef*%
%ADD21R,2.500000X3.300000*%
%TD*%
%TA.AperFunction,SMDPad,CuDef*%
%ADD22RoundRect,0.150000X0.150000X-0.350000X0.150000X0.350000X-0.150000X0.350000X-0.150000X-0.350000X0*%
%TD*%
%TA.AperFunction,SMDPad,CuDef*%
%ADD23RoundRect,0.192308X0.307692X0.682692X-0.307692X0.682692X-0.307692X-0.682692X0.307692X-0.682692X0*%
%TD*%
%TA.AperFunction,SMDPad,CuDef*%
%ADD24RoundRect,0.112500X0.237500X-0.112500X0.237500X0.112500X-0.237500X0.112500X-0.237500X-0.112500X0*%
%TD*%
%TA.AperFunction,SMDPad,CuDef*%
%ADD25RoundRect,0.150000X-0.150000X0.350000X-0.150000X-0.350000X0.150000X-0.350000X0.150000X0.350000X0*%
%TD*%
%TA.AperFunction,SMDPad,CuDef*%
%ADD26RoundRect,0.192308X-0.307692X-0.682692X0.307692X-0.682692X0.307692X0.682692X-0.307692X0.682692X0*%
%TD*%
%TA.AperFunction,SMDPad,CuDef*%
%ADD27RotRect,2.500000X3.300000X60.000000*%
%TD*%
%TA.AperFunction,SMDPad,CuDef*%
%ADD28RoundRect,0.155000X-0.155000X0.212500X-0.155000X-0.212500X0.155000X-0.212500X0.155000X0.212500X0*%
%TD*%
%TA.AperFunction,SMDPad,CuDef*%
%ADD29RoundRect,0.155000X0.212500X0.155000X-0.212500X0.155000X-0.212500X-0.155000X0.212500X-0.155000X0*%
%TD*%
%TA.AperFunction,SMDPad,CuDef*%
%ADD30RoundRect,0.162500X0.162500X-0.587500X0.162500X0.587500X-0.162500X0.587500X-0.162500X-0.587500X0*%
%TD*%
%TA.AperFunction,ComponentPad*%
%ADD31C,1.700000*%
%TD*%
%TA.AperFunction,SMDPad,CuDef*%
%ADD32RoundRect,0.093750X0.531250X0.093750X-0.531250X0.093750X-0.531250X-0.093750X0.531250X-0.093750X0*%
%TD*%
%TA.AperFunction,SMDPad,CuDef*%
%ADD33RoundRect,0.093750X-0.093750X0.531250X-0.093750X-0.531250X0.093750X-0.531250X0.093750X0.531250X0*%
%TD*%
%TA.AperFunction,SMDPad,CuDef*%
%ADD34RoundRect,0.162500X-0.587500X-0.162500X0.587500X-0.162500X0.587500X0.162500X-0.587500X0.162500X0*%
%TD*%
%TA.AperFunction,SMDPad,CuDef*%
%ADD35RoundRect,0.155000X0.155000X-0.212500X0.155000X0.212500X-0.155000X0.212500X-0.155000X-0.212500X0*%
%TD*%
%TA.AperFunction,SMDPad,CuDef*%
%ADD36RotRect,2.500000X3.300000X300.000000*%
%TD*%
%TA.AperFunction,SMDPad,CuDef*%
%ADD37RoundRect,0.192308X0.682692X-0.307692X0.682692X0.307692X-0.682692X0.307692X-0.682692X-0.307692X0*%
%TD*%
%TA.AperFunction,SMDPad,CuDef*%
%ADD38RoundRect,0.112500X-0.112500X-0.237500X0.112500X-0.237500X0.112500X0.237500X-0.112500X0.237500X0*%
%TD*%
%TA.AperFunction,SMDPad,CuDef*%
%ADD39RoundRect,0.162500X-0.162500X0.587500X-0.162500X-0.587500X0.162500X-0.587500X0.162500X0.587500X0*%
%TD*%
%TA.AperFunction,SMDPad,CuDef*%
%ADD40RoundRect,0.093750X-0.531250X-0.093750X0.531250X-0.093750X0.531250X0.093750X-0.531250X0.093750X0*%
%TD*%
%TA.AperFunction,SMDPad,CuDef*%
%ADD41RoundRect,0.093750X0.093750X-0.531250X0.093750X0.531250X-0.093750X0.531250X-0.093750X-0.531250X0*%
%TD*%
%TA.AperFunction,SMDPad,CuDef*%
%ADD42RotRect,2.500000X3.300000X240.000000*%
%TD*%
%TA.AperFunction,SMDPad,CuDef*%
%ADD43RoundRect,0.112500X0.112500X0.237500X-0.112500X0.237500X-0.112500X-0.237500X0.112500X-0.237500X0*%
%TD*%
%TA.AperFunction,SMDPad,CuDef*%
%ADD44RoundRect,0.162500X0.587500X0.162500X-0.587500X0.162500X-0.587500X-0.162500X0.587500X-0.162500X0*%
%TD*%
%TA.AperFunction,ViaPad*%
%ADD45C,0.800000*%
%TD*%
%TA.AperFunction,Conductor*%
%ADD46C,0.254000*%
%TD*%
G04 APERTURE END LIST*
D10*
%TO.P,R89,1*%
%TO.N,/cell circuit8/cell plus*%
X94452498Y-156230002D03*
%TO.P,R89,2*%
%TO.N,Net-(U18-Event)*%
X95647498Y-156230002D03*
%TD*%
D11*
%TO.P,Q15,1*%
%TO.N,Net-(U6-Event)*%
X60862500Y-162150000D03*
%TO.P,Q15,2*%
%TO.N,/FIRST CELL*%
X60862500Y-164050000D03*
%TO.P,Q15,3*%
%TO.N,Net-(Q15-Pad3)*%
X62737500Y-163100000D03*
%TD*%
D12*
%TO.P,R78,1*%
%TO.N,/cell circuit10/CMGND*%
X126550000Y-145942500D03*
%TO.P,R78,2*%
%TO.N,/cell circuit10/cell_en in*%
X126550000Y-147137500D03*
%TD*%
D13*
%TO.P,R32,1*%
%TO.N,/cell circuit4/cell plus*%
X62447500Y-126050000D03*
%TO.P,R32,2*%
%TO.N,/cell circuit4/DN TX{slash}RST*%
X61252500Y-126050000D03*
%TD*%
D10*
%TO.P,R37,1*%
%TO.N,/cell circuit4/SCL{slash}VCELL*%
X60102500Y-129900000D03*
%TO.P,R37,2*%
%TO.N,/cell circuit4/CMGND*%
X61297500Y-129900000D03*
%TD*%
D14*
%TO.P,R30,1*%
%TO.N,Net-(Q15-Pad3)*%
X65275000Y-161350000D03*
%TO.P,R30,2*%
%TO.N,/STRING NEG*%
X65275000Y-164450000D03*
%TD*%
D15*
%TO.P,Q34,1,G*%
%TO.N,/cell circuit10/cell minus*%
X121440000Y-143700000D03*
%TO.P,Q34,2,S*%
%TO.N,/cell circuit9/CMGND*%
X121440000Y-145000000D03*
%TO.P,Q34,3,D*%
%TO.N,/cell circuit10/cell_en in*%
X123440000Y-144350000D03*
%TD*%
D16*
%TO.P,C27,1*%
%TO.N,/cell circuit8/cell plus*%
X108222500Y-153480000D03*
%TO.P,C27,2*%
%TO.N,/cell circuit8/CMGND*%
X109357500Y-153480000D03*
%TD*%
D13*
%TO.P,R105,1*%
%TO.N,/cell circuit11/cell plus*%
X107507500Y-181890000D03*
%TO.P,R105,2*%
%TO.N,/cell circuit10/cell up tx*%
X106312500Y-181890000D03*
%TD*%
D11*
%TO.P,Q3,1*%
%TO.N,/cell circuit1/cell_en out*%
X42972500Y-160760000D03*
%TO.P,Q3,2*%
%TO.N,/cell circuit2/CMGND*%
X42972500Y-162660000D03*
%TO.P,Q3,3*%
%TO.N,/FIRST CELL*%
X44847500Y-161710000D03*
%TD*%
D17*
%TO.P,Q33,1*%
%TO.N,/cell circuit8/cell_en out*%
X113778750Y-150330000D03*
%TO.P,Q33,2*%
%TO.N,/cell circuit9/CMGND*%
X113778750Y-148430000D03*
%TO.P,Q33,3*%
%TO.N,/cell circuit8/cell plus*%
X111903750Y-149380000D03*
%TD*%
D18*
%TO.P,R62,1*%
%TO.N,/cell circuit10/cell minus*%
X110268750Y-131357500D03*
%TO.P,R62,2*%
%TO.N,/cell circuit9/DN TX{slash}RST*%
X110268750Y-130162500D03*
%TD*%
D19*
%TO.P,BT13,1,+*%
%TO.N,/STRING POS*%
X102150000Y-196600000D03*
D20*
X95650000Y-201400000D03*
D21*
X95150000Y-196600000D03*
%TD*%
D22*
%TO.P,Q30,1*%
%TO.N,Net-(U12-Event)*%
X81450000Y-142087500D03*
%TO.P,Q30,2*%
%TO.N,/cell circuit5/cell plus*%
X83350000Y-142087500D03*
%TO.P,Q30,3*%
%TO.N,Net-(Q30-Pad3)*%
X82400000Y-140212500D03*
%TD*%
D23*
%TO.P,R80,1*%
%TO.N,Net-(Q40-Pad3)*%
X121220000Y-149590000D03*
%TO.P,R80,2*%
%TO.N,/cell circuit10/cell minus*%
X118120000Y-149590000D03*
%TD*%
D12*
%TO.P,R13,1*%
%TO.N,Net-(Q6-Pad3)*%
X40050000Y-137502500D03*
%TO.P,R13,2*%
%TO.N,/cell circuit2/cell up rx*%
X40050000Y-138697500D03*
%TD*%
D13*
%TO.P,R26,1*%
%TO.N,/FIRST CELL*%
X61957500Y-151980000D03*
%TO.P,R26,2*%
%TO.N,/cell circuit1/SCL{slash}VCELL*%
X60762500Y-151980000D03*
%TD*%
D16*
%TO.P,C21,1*%
%TO.N,/cell circuit10/cell minus*%
X118732500Y-145110000D03*
%TO.P,C21,2*%
%TO.N,/cell circuit9/CMGND*%
X119867500Y-145110000D03*
%TD*%
D24*
%TO.P,Q59,1,G*%
%TO.N,/cell circuit12/cell plus*%
X113850000Y-191960000D03*
%TO.P,Q59,2,S*%
%TO.N,/cell circuit12/CMGND*%
X113850000Y-190660000D03*
%TO.P,Q59,3,D*%
%TO.N,/cell circuit12/cell_en out*%
X111850000Y-191310000D03*
%TD*%
D18*
%TO.P,R113,1*%
%TO.N,Net-(Q56-Pad3)*%
X110440000Y-185157500D03*
%TO.P,R113,2*%
%TO.N,/cell circuit11/cell up rx*%
X110440000Y-183962500D03*
%TD*%
D22*
%TO.P,Q53,1*%
%TO.N,/cell circuit10/cell_en out*%
X116270000Y-170967500D03*
%TO.P,Q53,2*%
%TO.N,/cell circuit11/CMGND*%
X118170000Y-170967500D03*
%TO.P,Q53,3*%
%TO.N,/cell circuit10/cell plus*%
X117220000Y-169092500D03*
%TD*%
D10*
%TO.P,R97,1*%
%TO.N,/cell circuit7/SCL{slash}VCELL*%
X99022500Y-184070000D03*
%TO.P,R97,2*%
%TO.N,/cell circuit7/CMGND*%
X100217500Y-184070000D03*
%TD*%
D25*
%TO.P,Q10,1*%
%TO.N,Net-(U4-Event)*%
X46980000Y-143492500D03*
%TO.P,Q10,2*%
%TO.N,/cell circuit3/cell plus*%
X45080000Y-143492500D03*
%TO.P,Q10,3*%
%TO.N,Net-(Q10-Pad3)*%
X46030000Y-145367500D03*
%TD*%
D26*
%TO.P,R50,1*%
%TO.N,Net-(Q25-Pad3)*%
X83220000Y-149920000D03*
%TO.P,R50,2*%
%TO.N,/cell circuit5/cell plus*%
X86320000Y-149920000D03*
%TD*%
D13*
%TO.P,R45,1*%
%TO.N,/cell circuit6/cell plus*%
X73627500Y-162950000D03*
%TO.P,R45,2*%
%TO.N,/cell circuit5/cell up tx*%
X72432500Y-162950000D03*
%TD*%
D18*
%TO.P,R104,1*%
%TO.N,/cell circuit11/cell up tx*%
X108600000Y-186027500D03*
%TO.P,R104,2*%
%TO.N,Net-(Q52-D)*%
X108600000Y-184832500D03*
%TD*%
D16*
%TO.P,C3,1*%
%TO.N,/cell circuit2/cell plus*%
X38402500Y-149070000D03*
%TO.P,C3,2*%
%TO.N,/cell circuit2/CMGND*%
X39537500Y-149070000D03*
%TD*%
D19*
%TO.P,BT8,1,+*%
%TO.N,/cell circuit8/cell plus*%
X102150000Y-157280000D03*
D20*
X101243078Y-149250835D03*
D27*
X105650000Y-151217822D03*
%TD*%
D10*
%TO.P,R123,1*%
%TO.N,/STRING POS*%
X99142500Y-202560000D03*
%TO.P,R123,2*%
%TO.N,/cell circuit13/SCL{slash}VCELL*%
X100337500Y-202560000D03*
%TD*%
D13*
%TO.P,R77,1*%
%TO.N,/cell circuit10/SCL{slash}VCELL*%
X118507500Y-152600000D03*
%TO.P,R77,2*%
%TO.N,/cell circuit10/CMGND*%
X117312500Y-152600000D03*
%TD*%
D16*
%TO.P,C30,1*%
%TO.N,/cell circuit7/cell plus*%
X97012500Y-172250000D03*
%TO.P,C30,2*%
%TO.N,/cell circuit7/CMGND*%
X98147500Y-172250000D03*
%TD*%
D12*
%TO.P,R55,1*%
%TO.N,/cell circuit5/cell plus*%
X96069884Y-129089533D03*
%TO.P,R55,2*%
%TO.N,/cell circuit4/cell up tx*%
X96069884Y-130284533D03*
%TD*%
D10*
%TO.P,R88,1*%
%TO.N,/cell circuit8/CMGND*%
X96342500Y-162170000D03*
%TO.P,R88,2*%
%TO.N,/cell circuit7/cell_en out*%
X97537500Y-162170000D03*
%TD*%
D12*
%TO.P,R111,1*%
%TO.N,/cell circuit12/cell up rx*%
X134370000Y-195172500D03*
%TO.P,R111,2*%
%TO.N,/cell circuit12/CMGND*%
X134370000Y-196367500D03*
%TD*%
D13*
%TO.P,R67,1*%
%TO.N,/cell circuit9/SCL{slash}VCELL*%
X106067500Y-128890000D03*
%TO.P,R67,2*%
%TO.N,/cell circuit9/CMGND*%
X104872500Y-128890000D03*
%TD*%
%TO.P,R74,1*%
%TO.N,/cell circuit10/cell up tx*%
X104857500Y-181760000D03*
%TO.P,R74,2*%
%TO.N,Net-(Q37-D)*%
X103662500Y-181760000D03*
%TD*%
%TO.P,R66,1*%
%TO.N,/cell circuit10/cell minus*%
X108477500Y-129990000D03*
%TO.P,R66,2*%
%TO.N,/cell circuit9/SCL{slash}VCELL*%
X107282500Y-129990000D03*
%TD*%
D18*
%TO.P,R21,1*%
%TO.N,/cell circuit1/cell up rx*%
X60680000Y-148697500D03*
%TO.P,R21,2*%
%TO.N,/cell circuit1/CMGND*%
X60680000Y-147502500D03*
%TD*%
D12*
%TO.P,R118,1*%
%TO.N,/cell circuit12/CMGND*%
X125620000Y-185342500D03*
%TO.P,R118,2*%
%TO.N,/cell circuit11/cell_en out*%
X125620000Y-186537500D03*
%TD*%
D15*
%TO.P,Q12,1,G*%
%TO.N,/cell circuit1/UP TX*%
X46430000Y-150400000D03*
%TO.P,Q12,2,S*%
%TO.N,/cell circuit1/CMGND*%
X46430000Y-151700000D03*
%TO.P,Q12,3,D*%
%TO.N,Net-(Q12-D)*%
X48430000Y-151050000D03*
%TD*%
D28*
%TO.P,C35,1*%
%TO.N,/cell circuit12/SCL{slash}VCELL*%
X132250000Y-195162500D03*
%TO.P,C35,2*%
%TO.N,/cell circuit12/CMGND*%
X132250000Y-196297500D03*
%TD*%
D16*
%TO.P,C11,1*%
%TO.N,/cell circuit4/SCL{slash}VCELL*%
X60122500Y-131060000D03*
%TO.P,C11,2*%
%TO.N,/cell circuit4/CMGND*%
X61257500Y-131060000D03*
%TD*%
D22*
%TO.P,Q25,1*%
%TO.N,Net-(U10-Event)*%
X83870000Y-153637500D03*
%TO.P,Q25,2*%
%TO.N,/cell circuit6/cell plus*%
X85770000Y-153637500D03*
%TO.P,Q25,3*%
%TO.N,Net-(Q25-Pad3)*%
X84820000Y-151762500D03*
%TD*%
D28*
%TO.P,C29,1*%
%TO.N,/cell circuit7/SCL{slash}VCELL*%
X97870000Y-182902500D03*
%TO.P,C29,2*%
%TO.N,/cell circuit7/CMGND*%
X97870000Y-184037500D03*
%TD*%
D18*
%TO.P,R96,1*%
%TO.N,/cell circuit7/cell plus*%
X96710000Y-184177500D03*
%TO.P,R96,2*%
%TO.N,/cell circuit7/SCL{slash}VCELL*%
X96710000Y-182982500D03*
%TD*%
D29*
%TO.P,C28,1*%
%TO.N,/cell circuit7/cell plus*%
X96507500Y-168800000D03*
%TO.P,C28,2*%
%TO.N,/cell circuit7/CMGND*%
X95372500Y-168800000D03*
%TD*%
D13*
%TO.P,R84,1*%
%TO.N,/cell circuit8/cell up tx*%
X103887500Y-141740000D03*
%TO.P,R84,2*%
%TO.N,Net-(Q42-D)*%
X102692500Y-141740000D03*
%TD*%
D30*
%TO.P,U1,1,~{RESET}/PB5*%
%TO.N,/cell circuit2/DN TX{slash}RST*%
X25190000Y-154941250D03*
%TO.P,U1,2,XTAL1/PB3*%
%TO.N,/cell circuit2/SCL{slash}VCELL*%
X26460000Y-154941250D03*
%TO.P,U1,3,XTAL2/PB4*%
%TO.N,/cell circuit2/cell up rx*%
X27730000Y-154941250D03*
%TO.P,U1,4,GND*%
%TO.N,/cell circuit2/CMGND*%
X29000000Y-154941250D03*
%TO.P,U1,5,AREF/PB0*%
%TO.N,/cell circuit2/UP TX*%
X29000000Y-147641250D03*
%TO.P,U1,6,PB1*%
%TO.N,/cell circuit1/cell up tx*%
X27730000Y-147641250D03*
%TO.P,U1,7,PB2*%
%TO.N,/cell circuit2/SDA*%
X26460000Y-147641250D03*
%TO.P,U1,8,VCC*%
%TO.N,/cell circuit2/cell plus*%
X25190000Y-147641250D03*
%TD*%
D12*
%TO.P,R38,1*%
%TO.N,/cell circuit4/CMGND*%
X61600000Y-132802500D03*
%TO.P,R38,2*%
%TO.N,/cell circuit3/cell_en out*%
X61600000Y-133997500D03*
%TD*%
D13*
%TO.P,R53,1*%
%TO.N,Net-(Q26-Pad3)*%
X77297500Y-126050000D03*
%TO.P,R53,2*%
%TO.N,/cell circuit4/cell up rx*%
X76102500Y-126050000D03*
%TD*%
D16*
%TO.P,C4,1*%
%TO.N,/cell circuit3/cell plus*%
X50482500Y-127950000D03*
%TO.P,C4,2*%
%TO.N,/cell circuit3/CMGND*%
X51617500Y-127950000D03*
%TD*%
D31*
%TO.P,J3,1,Pin_1*%
%TO.N,/MC TX*%
X77920000Y-174050000D03*
%TD*%
D10*
%TO.P,R18,1*%
%TO.N,/cell circuit3/CMGND*%
X37992500Y-141780000D03*
%TO.P,R18,2*%
%TO.N,/cell circuit2/cell_en out*%
X39187500Y-141780000D03*
%TD*%
D24*
%TO.P,Q39,1,G*%
%TO.N,/cell circuit10/cell plus*%
X115990000Y-165130000D03*
%TO.P,Q39,2,S*%
%TO.N,/cell circuit10/CMGND*%
X115990000Y-163830000D03*
%TO.P,Q39,3,D*%
%TO.N,/cell circuit10/cell_en out*%
X113990000Y-164480000D03*
%TD*%
D22*
%TO.P,Q55,1*%
%TO.N,Net-(U22-Event)*%
X118930000Y-173998750D03*
%TO.P,Q55,2*%
%TO.N,/cell circuit11/cell plus*%
X120830000Y-173998750D03*
%TO.P,Q55,3*%
%TO.N,Net-(Q55-Pad3)*%
X119880000Y-172123750D03*
%TD*%
D32*
%TO.P,U2,1,A0*%
%TO.N,/cell circuit2/CMGND*%
X41847000Y-147732500D03*
%TO.P,U2,2,A1*%
X41847000Y-147082500D03*
%TO.P,U2,3,A2*%
X41847000Y-146432500D03*
%TO.P,U2,4,GND*%
X41847000Y-145782500D03*
%TO.P,U2,5,SDA*%
%TO.N,/cell circuit2/SDA*%
X35847000Y-145782500D03*
%TO.P,U2,6,SCL*%
%TO.N,/cell circuit2/SCL{slash}VCELL*%
X35847000Y-146432500D03*
%TO.P,U2,7,Event*%
%TO.N,Net-(U2-Event)*%
X35847000Y-147082500D03*
%TO.P,U2,8,V_{DD}*%
%TO.N,/cell circuit2/cell plus*%
X35847000Y-147732500D03*
%TD*%
D18*
%TO.P,R116,1*%
%TO.N,/cell circuit12/cell plus*%
X131270000Y-196407500D03*
%TO.P,R116,2*%
%TO.N,/cell circuit12/SCL{slash}VCELL*%
X131270000Y-195212500D03*
%TD*%
D16*
%TO.P,C24,1*%
%TO.N,/cell circuit10/cell plus*%
X118882500Y-165270000D03*
%TO.P,C24,2*%
%TO.N,/cell circuit10/CMGND*%
X120017500Y-165270000D03*
%TD*%
D11*
%TO.P,Q36,1*%
%TO.N,/cell circuit10/DN TX{slash}RST*%
X127412500Y-150110000D03*
%TO.P,Q36,2*%
%TO.N,/cell circuit10/cell plus*%
X127412500Y-152010000D03*
%TO.P,Q36,3*%
%TO.N,Net-(Q36-Pad3)*%
X129287500Y-151060000D03*
%TD*%
D13*
%TO.P,R76,1*%
%TO.N,/cell circuit10/cell plus*%
X120847500Y-151600000D03*
%TO.P,R76,2*%
%TO.N,/cell circuit10/SCL{slash}VCELL*%
X119652500Y-151600000D03*
%TD*%
D26*
%TO.P,R70,1*%
%TO.N,Net-(Q35-Pad3)*%
X106040000Y-144400000D03*
%TO.P,R70,2*%
%TO.N,/cell circuit8/cell plus*%
X109140000Y-144400000D03*
%TD*%
D10*
%TO.P,R114,1*%
%TO.N,/cell circuit12/cell up tx*%
X112392500Y-205680000D03*
%TO.P,R114,2*%
%TO.N,Net-(Q57-D)*%
X113587500Y-205680000D03*
%TD*%
D12*
%TO.P,R31,1*%
%TO.N,/cell circuit4/cell up rx*%
X62460000Y-129872500D03*
%TO.P,R31,2*%
%TO.N,/cell circuit4/CMGND*%
X62460000Y-131067500D03*
%TD*%
D10*
%TO.P,R43,1*%
%TO.N,Net-(Q21-Pad3)*%
X76792500Y-150360000D03*
%TO.P,R43,2*%
%TO.N,/cell circuit5/cell up rx*%
X77987500Y-150360000D03*
%TD*%
D31*
%TO.P,J2,1,Pin_1*%
%TO.N,/STRING NEG*%
X75390000Y-176600000D03*
%TD*%
D24*
%TO.P,Q37,1,G*%
%TO.N,/cell circuit10/UP TX*%
X112750000Y-168030000D03*
%TO.P,Q37,2,S*%
%TO.N,/cell circuit10/CMGND*%
X112750000Y-166730000D03*
%TO.P,Q37,3,D*%
%TO.N,Net-(Q37-D)*%
X110750000Y-167380000D03*
%TD*%
D12*
%TO.P,R94,1*%
%TO.N,/cell circuit7/cell up tx*%
X99240000Y-169362500D03*
%TO.P,R94,2*%
%TO.N,Net-(Q47-D)*%
X99240000Y-170557500D03*
%TD*%
D33*
%TO.P,U26,1,A0*%
%TO.N,/cell circuit13/CMGND*%
X92255000Y-193650000D03*
%TO.P,U26,2,A1*%
X91605000Y-193650000D03*
%TO.P,U26,3,A2*%
X90955000Y-193650000D03*
%TO.P,U26,4,GND*%
X90305000Y-193650000D03*
%TO.P,U26,5,SDA*%
%TO.N,/cell circuit13/SDA*%
X90305000Y-199650000D03*
%TO.P,U26,6,SCL*%
%TO.N,/cell circuit13/SCL{slash}VCELL*%
X90955000Y-199650000D03*
%TO.P,U26,7,Event*%
%TO.N,Net-(U26-Event)*%
X91605000Y-199650000D03*
%TO.P,U26,8,V_{DD}*%
%TO.N,/STRING POS*%
X92255000Y-199650000D03*
%TD*%
D16*
%TO.P,C5,1*%
%TO.N,/cell circuit3/SCL{slash}VCELL*%
X37332500Y-131430000D03*
%TO.P,C5,2*%
%TO.N,/cell circuit3/CMGND*%
X38467500Y-131430000D03*
%TD*%
D32*
%TO.P,U14,1,A0*%
%TO.N,/cell circuit9/CMGND*%
X122150000Y-148105000D03*
%TO.P,U14,2,A1*%
X122150000Y-147455000D03*
%TO.P,U14,3,A2*%
X122150000Y-146805000D03*
%TO.P,U14,4,GND*%
X122150000Y-146155000D03*
%TO.P,U14,5,SDA*%
%TO.N,/cell circuit9/SDA*%
X116150000Y-146155000D03*
%TO.P,U14,6,SCL*%
%TO.N,/cell circuit9/SCL{slash}VCELL*%
X116150000Y-146805000D03*
%TO.P,U14,7,Event*%
%TO.N,Net-(U14-Event)*%
X116150000Y-147455000D03*
%TO.P,U14,8,V_{DD}*%
%TO.N,/cell circuit10/cell minus*%
X116150000Y-148105000D03*
%TD*%
D13*
%TO.P,R61,1*%
%TO.N,/cell circuit10/cell dn tx*%
X104927500Y-131060000D03*
%TO.P,R61,2*%
%TO.N,/cell circuit9/CMGND*%
X103732500Y-131060000D03*
%TD*%
D15*
%TO.P,Q7,1,G*%
%TO.N,/cell circuit3/UP TX*%
X54550000Y-127400000D03*
%TO.P,Q7,2,S*%
%TO.N,/cell circuit3/CMGND*%
X54550000Y-128700000D03*
%TO.P,Q7,3,D*%
%TO.N,Net-(Q7-D)*%
X56550000Y-128050000D03*
%TD*%
D16*
%TO.P,C8,1*%
%TO.N,/cell circuit1/SCL{slash}VCELL*%
X60732500Y-150900000D03*
%TO.P,C8,2*%
%TO.N,/cell circuit1/CMGND*%
X61867500Y-150900000D03*
%TD*%
D13*
%TO.P,R59,1*%
%TO.N,/cell circuit5/cell plus*%
X83117500Y-143320000D03*
%TO.P,R59,2*%
%TO.N,Net-(U12-Event)*%
X81922500Y-143320000D03*
%TD*%
%TO.P,R49,1*%
%TO.N,/cell circuit6/cell plus*%
X85687500Y-154880000D03*
%TO.P,R49,2*%
%TO.N,Net-(U10-Event)*%
X84492500Y-154880000D03*
%TD*%
D34*
%TO.P,U25,1,~{RESET}/PB5*%
%TO.N,/cell circuit13/DN TX{slash}RST*%
X102130000Y-203375000D03*
%TO.P,U25,2,XTAL1/PB3*%
%TO.N,/cell circuit13/SCL{slash}VCELL*%
X102130000Y-204645000D03*
%TO.P,U25,3,XTAL2/PB4*%
%TO.N,Net-(U25-XTAL2{slash}PB4)*%
X102130000Y-205915000D03*
%TO.P,U25,4,GND*%
%TO.N,/cell circuit13/CMGND*%
X102130000Y-207185000D03*
%TO.P,U25,5,AREF/PB0*%
%TO.N,unconnected-(U25-AREF{slash}PB0-Pad5)*%
X109430000Y-207185000D03*
%TO.P,U25,6,PB1*%
%TO.N,/cell circuit12/cell up tx*%
X109430000Y-205915000D03*
%TO.P,U25,7,PB2*%
%TO.N,/cell circuit13/SDA*%
X109430000Y-204645000D03*
%TO.P,U25,8,VCC*%
%TO.N,/STRING POS*%
X109430000Y-203375000D03*
%TD*%
D15*
%TO.P,Q22,1,G*%
%TO.N,/cell circuit6/UP TX*%
X72980000Y-164490000D03*
%TO.P,Q22,2,S*%
%TO.N,/cell circuit6/CMGND*%
X72980000Y-165790000D03*
%TO.P,Q22,3,D*%
%TO.N,Net-(Q22-D)*%
X74980000Y-165140000D03*
%TD*%
D11*
%TO.P,Q51,1*%
%TO.N,/cell circuit11/DN TX{slash}RST*%
X110732500Y-169670000D03*
%TO.P,Q51,2*%
%TO.N,/cell circuit11/cell plus*%
X110732500Y-171570000D03*
%TO.P,Q51,3*%
%TO.N,Net-(Q51-Pad3)*%
X112607500Y-170620000D03*
%TD*%
D35*
%TO.P,C32,1*%
%TO.N,/cell circuit11/SCL{slash}VCELL*%
X106620000Y-170917500D03*
%TO.P,C32,2*%
%TO.N,/cell circuit11/CMGND*%
X106620000Y-169782500D03*
%TD*%
D34*
%TO.P,U11,1,~{RESET}/PB5*%
%TO.N,/cell circuit5/DN TX{slash}RST*%
X86929884Y-127032033D03*
%TO.P,U11,2,XTAL1/PB3*%
%TO.N,/cell circuit5/SCL{slash}VCELL*%
X86929884Y-128302033D03*
%TO.P,U11,3,XTAL2/PB4*%
%TO.N,/cell circuit5/cell up rx*%
X86929884Y-129572033D03*
%TO.P,U11,4,GND*%
%TO.N,/cell circuit5/CMGND*%
X86929884Y-130842033D03*
%TO.P,U11,5,AREF/PB0*%
%TO.N,/cell circuit5/UP TX*%
X94229884Y-130842033D03*
%TO.P,U11,6,PB1*%
%TO.N,/cell circuit4/cell up tx*%
X94229884Y-129572033D03*
%TO.P,U11,7,PB2*%
%TO.N,/cell circuit5/SDA*%
X94229884Y-128302033D03*
%TO.P,U11,8,VCC*%
%TO.N,/cell circuit5/cell plus*%
X94229884Y-127032033D03*
%TD*%
D18*
%TO.P,R69,1*%
%TO.N,/cell circuit10/cell minus*%
X101238750Y-144607500D03*
%TO.P,R69,2*%
%TO.N,Net-(U14-Event)*%
X101238750Y-143412500D03*
%TD*%
D26*
%TO.P,R10,1*%
%TO.N,Net-(Q5-Pad3)*%
X41425000Y-154650000D03*
%TO.P,R10,2*%
%TO.N,/FIRST CELL*%
X44525000Y-154650000D03*
%TD*%
D19*
%TO.P,BT11,1,+*%
%TO.N,/cell circuit11/cell plus*%
X113500000Y-176940000D03*
D20*
X120906922Y-180169165D03*
D36*
X117000000Y-183002178D03*
%TD*%
D31*
%TO.P,J6,1,Pin_1*%
%TO.N,/CELL EN*%
X75390000Y-174050000D03*
%TD*%
D24*
%TO.P,Q57,1,G*%
%TO.N,/cell circuit12/UP TX*%
X116900000Y-206420000D03*
%TO.P,Q57,2,S*%
%TO.N,/cell circuit12/CMGND*%
X116900000Y-205120000D03*
%TO.P,Q57,3,D*%
%TO.N,Net-(Q57-D)*%
X114900000Y-205770000D03*
%TD*%
D15*
%TO.P,Q32,1,G*%
%TO.N,/cell circuit9/UP TX*%
X116200001Y-129800000D03*
%TO.P,Q32,2,S*%
%TO.N,/cell circuit9/CMGND*%
X116200000Y-131100001D03*
%TO.P,Q32,3,D*%
%TO.N,Net-(Q32-D)*%
X118200000Y-130450000D03*
%TD*%
D18*
%TO.P,R14,1*%
%TO.N,/cell circuit3/cell up tx*%
X57650000Y-129357500D03*
%TO.P,R14,2*%
%TO.N,Net-(Q7-D)*%
X57650000Y-128162500D03*
%TD*%
D12*
%TO.P,R35,1*%
%TO.N,/cell circuit4/cell plus*%
X58890000Y-129892500D03*
%TO.P,R35,2*%
%TO.N,/cell circuit3/cell up tx*%
X58890000Y-131087500D03*
%TD*%
D10*
%TO.P,R63,1*%
%TO.N,Net-(Q31-Pad3)*%
X113982500Y-129790000D03*
%TO.P,R63,2*%
%TO.N,/cell circuit8/cell up rx*%
X115177500Y-129790000D03*
%TD*%
D24*
%TO.P,Q47,1,G*%
%TO.N,/cell circuit7/UP TX*%
X102000000Y-172080000D03*
%TO.P,Q47,2,S*%
%TO.N,/cell circuit7/CMGND*%
X102000000Y-170780000D03*
%TO.P,Q47,3,D*%
%TO.N,Net-(Q47-D)*%
X100000000Y-171430000D03*
%TD*%
D13*
%TO.P,R75,1*%
%TO.N,/cell circuit10/cell plus*%
X118547500Y-163180000D03*
%TO.P,R75,2*%
%TO.N,/cell circuit10/cell dn rx*%
X117352500Y-163180000D03*
%TD*%
D19*
%TO.P,BT9,1,+*%
%TO.N,/cell circuit10/cell minus*%
X113500000Y-137620000D03*
D20*
X120906922Y-140849165D03*
D36*
X117000000Y-143682178D03*
%TD*%
D37*
%TO.P,R40,1*%
%TO.N,Net-(Q20-Pad3)*%
X59200000Y-139200000D03*
%TO.P,R40,2*%
%TO.N,/cell circuit3/cell plus*%
X59200000Y-136100000D03*
%TD*%
D12*
%TO.P,R68,1*%
%TO.N,/cell circuit9/CMGND*%
X115010000Y-149622500D03*
%TO.P,R68,2*%
%TO.N,/cell circuit8/cell_en out*%
X115010000Y-150817500D03*
%TD*%
D18*
%TO.P,R44,1*%
%TO.N,/cell circuit6/cell up tx*%
X76140000Y-166357500D03*
%TO.P,R44,2*%
%TO.N,Net-(Q22-D)*%
X76140000Y-165162500D03*
%TD*%
D22*
%TO.P,Q40,1*%
%TO.N,Net-(U16-Event)*%
X123000000Y-151007500D03*
%TO.P,Q40,2*%
%TO.N,/cell circuit10/cell plus*%
X124900000Y-151007500D03*
%TO.P,Q40,3*%
%TO.N,Net-(Q40-Pad3)*%
X123950000Y-149132500D03*
%TD*%
D16*
%TO.P,C2,1*%
%TO.N,/cell circuit2/SCL{slash}VCELL*%
X27177500Y-157941250D03*
%TO.P,C2,2*%
%TO.N,/cell circuit2/CMGND*%
X28312500Y-157941250D03*
%TD*%
D19*
%TO.P,BT6,1,+*%
%TO.N,/cell circuit6/cell plus*%
X79450000Y-157280000D03*
D20*
X86856922Y-160509165D03*
D36*
X82950000Y-163342178D03*
%TD*%
D25*
%TO.P,Q8,1*%
%TO.N,/cell circuit2/cell_en out*%
X39190000Y-142962500D03*
%TO.P,Q8,2*%
%TO.N,/cell circuit3/CMGND*%
X37290000Y-142962500D03*
%TO.P,Q8,3*%
%TO.N,/cell circuit2/cell plus*%
X38240000Y-144837500D03*
%TD*%
D11*
%TO.P,Q1,1*%
%TO.N,/cell circuit2/DN TX{slash}RST*%
X24782500Y-159410000D03*
%TO.P,Q1,2*%
%TO.N,/cell circuit2/cell plus*%
X24782500Y-161310000D03*
%TO.P,Q1,3*%
%TO.N,Net-(Q1-Pad3)*%
X26657500Y-160360000D03*
%TD*%
D12*
%TO.P,R92,1*%
%TO.N,/cell circuit7/cell plus*%
X84000000Y-175902502D03*
%TO.P,R92,2*%
%TO.N,/cell circuit7/DN TX{slash}RST*%
X84000000Y-177097502D03*
%TD*%
%TO.P,R23,1*%
%TO.N,Net-(U25-XTAL2{slash}PB4)*%
X100290000Y-206092500D03*
%TO.P,R23,2*%
%TO.N,/cell circuit13/CMGND*%
X100290000Y-207287500D03*
%TD*%
D38*
%TO.P,Q17,1,G*%
%TO.N,/cell circuit4/UP TX*%
X75500000Y-130310000D03*
%TO.P,Q17,2,S*%
%TO.N,/cell circuit4/CMGND*%
X76800000Y-130310000D03*
%TO.P,Q17,3,D*%
%TO.N,Net-(Q17-D)*%
X76150000Y-128310000D03*
%TD*%
D15*
%TO.P,Q27,1,G*%
%TO.N,/cell circuit5/UP TX*%
X95300000Y-132570000D03*
%TO.P,Q27,2,S*%
%TO.N,/cell circuit5/CMGND*%
X95300000Y-133870000D03*
%TO.P,Q27,3,D*%
%TO.N,Net-(Q27-D)*%
X97300000Y-133220000D03*
%TD*%
D23*
%TO.P,R100,1*%
%TO.N,Net-(Q50-Pad3)*%
X86040000Y-169790000D03*
%TO.P,R100,2*%
%TO.N,/cell circuit6/cell plus*%
X82940000Y-169790000D03*
%TD*%
D18*
%TO.P,R107,1*%
%TO.N,/cell circuit11/SCL{slash}VCELL*%
X105310000Y-169977500D03*
%TO.P,R107,2*%
%TO.N,/cell circuit11/CMGND*%
X105310000Y-168782500D03*
%TD*%
D15*
%TO.P,Q52,1,G*%
%TO.N,/cell circuit11/UP TX*%
X105850000Y-183180000D03*
%TO.P,Q52,2,S*%
%TO.N,/cell circuit11/CMGND*%
X105850000Y-184480000D03*
%TO.P,Q52,3,D*%
%TO.N,Net-(Q52-D)*%
X107850000Y-183830000D03*
%TD*%
D19*
%TO.P,BT12,1,+*%
%TO.N,/cell circuit12/cell plus*%
X124850000Y-196600000D03*
D20*
X118350000Y-201400000D03*
D21*
X117850000Y-196600000D03*
%TD*%
D23*
%TO.P,R20,1*%
%TO.N,Net-(Q10-Pad3)*%
X47800000Y-147070000D03*
%TO.P,R20,2*%
%TO.N,/cell circuit2/cell plus*%
X44700000Y-147070000D03*
%TD*%
D13*
%TO.P,R71,1*%
%TO.N,/cell circuit10/cell up rx*%
X116087500Y-152580000D03*
%TO.P,R71,2*%
%TO.N,/cell circuit10/CMGND*%
X114892500Y-152580000D03*
%TD*%
D28*
%TO.P,C12,1*%
%TO.N,/cell circuit4/cell plus*%
X77250000Y-135442500D03*
%TO.P,C12,2*%
%TO.N,/cell circuit4/CMGND*%
X77250000Y-136577500D03*
%TD*%
D13*
%TO.P,R108,1*%
%TO.N,/cell circuit11/CMGND*%
X117537500Y-172250000D03*
%TO.P,R108,2*%
%TO.N,/cell circuit10/cell_en out*%
X116342500Y-172250000D03*
%TD*%
%TO.P,R101,1*%
%TO.N,/cell circuit11/cell up rx*%
X105027500Y-171150000D03*
%TO.P,R101,2*%
%TO.N,/cell circuit11/CMGND*%
X103832500Y-171150000D03*
%TD*%
D18*
%TO.P,R102,1*%
%TO.N,/cell circuit11/cell plus*%
X109370000Y-171157500D03*
%TO.P,R102,2*%
%TO.N,/cell circuit11/DN TX{slash}RST*%
X109370000Y-169962500D03*
%TD*%
D11*
%TO.P,Q6,1*%
%TO.N,/cell circuit3/DN TX{slash}RST*%
X36782500Y-137010000D03*
%TO.P,Q6,2*%
%TO.N,/cell circuit3/cell plus*%
X36782500Y-138910000D03*
%TO.P,Q6,3*%
%TO.N,Net-(Q6-Pad3)*%
X38657500Y-137960000D03*
%TD*%
D13*
%TO.P,R33,1*%
%TO.N,Net-(Q16-Pad3)*%
X53727500Y-126440000D03*
%TO.P,R33,2*%
%TO.N,/cell circuit3/cell up rx*%
X52532500Y-126440000D03*
%TD*%
D10*
%TO.P,R91,1*%
%TO.N,/cell circuit7/cell up rx*%
X99602500Y-182950000D03*
%TO.P,R91,2*%
%TO.N,/cell circuit7/CMGND*%
X100797500Y-182950000D03*
%TD*%
D19*
%TO.P,BT7,1,+*%
%TO.N,/cell circuit7/cell plus*%
X90800000Y-176940000D03*
D20*
X89893078Y-168910835D03*
D27*
X94300000Y-170877822D03*
%TD*%
D25*
%TO.P,Q5,1*%
%TO.N,Net-(U2-Event)*%
X42450000Y-150802500D03*
%TO.P,Q5,2*%
%TO.N,/cell circuit2/cell plus*%
X40550000Y-150802500D03*
%TO.P,Q5,3*%
%TO.N,Net-(Q5-Pad3)*%
X41500000Y-152677500D03*
%TD*%
D16*
%TO.P,C10,1*%
%TO.N,/cell circuit4/cell plus*%
X73952500Y-127250000D03*
%TO.P,C10,2*%
%TO.N,/cell circuit4/CMGND*%
X75087500Y-127250000D03*
%TD*%
D18*
%TO.P,R12,1*%
%TO.N,/cell circuit3/cell plus*%
X35600000Y-138797500D03*
%TO.P,R12,2*%
%TO.N,/cell circuit3/DN TX{slash}RST*%
X35600000Y-137602500D03*
%TD*%
D13*
%TO.P,R2,1*%
%TO.N,/cell circuit2/cell plus*%
X25901250Y-162841250D03*
%TO.P,R2,2*%
%TO.N,/cell circuit2/DN TX{slash}RST*%
X24706250Y-162841250D03*
%TD*%
D18*
%TO.P,R103,1*%
%TO.N,Net-(Q51-Pad3)*%
X113930000Y-170807500D03*
%TO.P,R103,2*%
%TO.N,/cell circuit10/cell up rx*%
X113930000Y-169612500D03*
%TD*%
D16*
%TO.P,C19,1*%
%TO.N,/cell circuit10/cell minus*%
X107232500Y-141750000D03*
%TO.P,C19,2*%
%TO.N,/cell circuit9/CMGND*%
X108367500Y-141750000D03*
%TD*%
D10*
%TO.P,R87,1*%
%TO.N,/cell circuit8/SCL{slash}VCELL*%
X111012500Y-165170000D03*
%TO.P,R87,2*%
%TO.N,/cell circuit8/CMGND*%
X112207500Y-165170000D03*
%TD*%
D16*
%TO.P,C9,1*%
%TO.N,/FIRST CELL*%
X42322500Y-159220000D03*
%TO.P,C9,2*%
%TO.N,/cell circuit1/CMGND*%
X43457500Y-159220000D03*
%TD*%
D18*
%TO.P,R98,1*%
%TO.N,/cell circuit7/CMGND*%
X92190000Y-164617500D03*
%TO.P,R98,2*%
%TO.N,/cell circuit6/cell_en out*%
X92190000Y-163422500D03*
%TD*%
D32*
%TO.P,U10,1,A0*%
%TO.N,/cell circuit6/CMGND*%
X87330000Y-167635000D03*
%TO.P,U10,2,A1*%
X87330000Y-166985000D03*
%TO.P,U10,3,A2*%
X87330000Y-166335000D03*
%TO.P,U10,4,GND*%
X87330000Y-165685000D03*
%TO.P,U10,5,SDA*%
%TO.N,/cell circuit6/SDA*%
X81330000Y-165685000D03*
%TO.P,U10,6,SCL*%
%TO.N,/cell circuit6/SCL{slash}VCELL*%
X81330000Y-166335000D03*
%TO.P,U10,7,Event*%
%TO.N,Net-(U10-Event)*%
X81330000Y-166985000D03*
%TO.P,U10,8,V_{DD}*%
%TO.N,/cell circuit6/cell plus*%
X81330000Y-167635000D03*
%TD*%
D39*
%TO.P,U21,1,~{RESET}/PB5*%
%TO.N,/cell circuit11/DN TX{slash}RST*%
X107525000Y-172770000D03*
%TO.P,U21,2,XTAL1/PB3*%
%TO.N,/cell circuit11/SCL{slash}VCELL*%
X106255000Y-172770000D03*
%TO.P,U21,3,XTAL2/PB4*%
%TO.N,/cell circuit11/cell up rx*%
X104985000Y-172770000D03*
%TO.P,U21,4,GND*%
%TO.N,/cell circuit11/CMGND*%
X103715000Y-172770000D03*
%TO.P,U21,5,AREF/PB0*%
%TO.N,/cell circuit11/UP TX*%
X103715000Y-180070000D03*
%TO.P,U21,6,PB1*%
%TO.N,/cell circuit10/cell up tx*%
X104985000Y-180070000D03*
%TO.P,U21,7,PB2*%
%TO.N,/cell circuit11/SDA*%
X106255000Y-180070000D03*
%TO.P,U21,8,VCC*%
%TO.N,/cell circuit11/cell plus*%
X107525000Y-180070000D03*
%TD*%
D11*
%TO.P,Q16,1*%
%TO.N,/cell circuit4/DN TX{slash}RST*%
X58932500Y-126440000D03*
%TO.P,Q16,2*%
%TO.N,/cell circuit4/cell plus*%
X58932500Y-128340000D03*
%TO.P,Q16,3*%
%TO.N,Net-(Q16-Pad3)*%
X60807500Y-127390000D03*
%TD*%
D18*
%TO.P,R47,1*%
%TO.N,/cell circuit6/SCL{slash}VCELL*%
X72120000Y-152127500D03*
%TO.P,R47,2*%
%TO.N,/cell circuit6/CMGND*%
X72120000Y-150932500D03*
%TD*%
D17*
%TO.P,Q28,1*%
%TO.N,/cell circuit4/cell_en out*%
X82967500Y-133790000D03*
%TO.P,Q28,2*%
%TO.N,/cell circuit5/CMGND*%
X82967500Y-131890000D03*
%TO.P,Q28,3*%
%TO.N,/cell circuit4/cell plus*%
X81092500Y-132840000D03*
%TD*%
D18*
%TO.P,R126,1*%
%TO.N,/STRING POS*%
X102630000Y-190417500D03*
%TO.P,R126,2*%
%TO.N,Net-(U26-Event)*%
X102630000Y-189222500D03*
%TD*%
D40*
%TO.P,U12,1,A0*%
%TO.N,/cell circuit5/CMGND*%
X81600000Y-146285000D03*
%TO.P,U12,2,A1*%
X81600000Y-146935000D03*
%TO.P,U12,3,A2*%
X81600000Y-147585000D03*
%TO.P,U12,4,GND*%
X81600000Y-148235000D03*
%TO.P,U12,5,SDA*%
%TO.N,/cell circuit5/SDA*%
X87600000Y-148235000D03*
%TO.P,U12,6,SCL*%
%TO.N,/cell circuit5/SCL{slash}VCELL*%
X87600000Y-147585000D03*
%TO.P,U12,7,Event*%
%TO.N,Net-(U12-Event)*%
X87600000Y-146935000D03*
%TO.P,U12,8,V_{DD}*%
%TO.N,/cell circuit5/cell plus*%
X87600000Y-146285000D03*
%TD*%
D19*
%TO.P,BT3,1,+*%
%TO.N,/cell circuit3/cell plus*%
X45400000Y-137620000D03*
D20*
X51900000Y-132820000D03*
D21*
X52400000Y-137620000D03*
%TD*%
D17*
%TO.P,Q58,1*%
%TO.N,/cell circuit11/cell_en out*%
X124397500Y-186990000D03*
%TO.P,Q58,2*%
%TO.N,/cell circuit12/CMGND*%
X124397500Y-185090000D03*
%TO.P,Q58,3*%
%TO.N,/cell circuit11/cell plus*%
X122522500Y-186040000D03*
%TD*%
D10*
%TO.P,R121,1*%
%TO.N,Net-(Q13-Pad3)*%
X124662500Y-204990000D03*
%TO.P,R121,2*%
%TO.N,/cell circuit12/cell up rx*%
X125857500Y-204990000D03*
%TD*%
D28*
%TO.P,C6,1*%
%TO.N,/cell circuit3/cell plus*%
X54320000Y-136012500D03*
%TO.P,C6,2*%
%TO.N,/cell circuit3/CMGND*%
X54320000Y-137147500D03*
%TD*%
D39*
%TO.P,U9,1,~{RESET}/PB5*%
%TO.N,/cell circuit6/DN TX{slash}RST*%
X73575000Y-153930000D03*
%TO.P,U9,2,XTAL1/PB3*%
%TO.N,/cell circuit6/SCL{slash}VCELL*%
X72305000Y-153930000D03*
%TO.P,U9,3,XTAL2/PB4*%
%TO.N,/cell circuit6/cell up rx*%
X71035000Y-153930000D03*
%TO.P,U9,4,GND*%
%TO.N,/cell circuit6/CMGND*%
X69765000Y-153930000D03*
%TO.P,U9,5,AREF/PB0*%
%TO.N,/cell circuit6/UP TX*%
X69765000Y-161230000D03*
%TO.P,U9,6,PB1*%
%TO.N,/cell circuit5/cell up tx*%
X71035000Y-161230000D03*
%TO.P,U9,7,PB2*%
%TO.N,/cell circuit6/SDA*%
X72305000Y-161230000D03*
%TO.P,U9,8,VCC*%
%TO.N,/cell circuit6/cell plus*%
X73575000Y-161230000D03*
%TD*%
D17*
%TO.P,Q18,1*%
%TO.N,/cell circuit3/cell_en out*%
X60237500Y-134300000D03*
%TO.P,Q18,2*%
%TO.N,/cell circuit4/CMGND*%
X60237500Y-132400000D03*
%TO.P,Q18,3*%
%TO.N,/cell circuit3/cell plus*%
X58362500Y-133350000D03*
%TD*%
D22*
%TO.P,Q48,1*%
%TO.N,/cell circuit6/cell_en out*%
X88850000Y-166187500D03*
%TO.P,Q48,2*%
%TO.N,/cell circuit7/CMGND*%
X90750000Y-166187500D03*
%TO.P,Q48,3*%
%TO.N,/cell circuit6/cell plus*%
X89800000Y-164312500D03*
%TD*%
D10*
%TO.P,R24,1*%
%TO.N,/cell circuit1/cell up tx*%
X44632500Y-152810000D03*
%TO.P,R24,2*%
%TO.N,Net-(Q12-D)*%
X45827500Y-152810000D03*
%TD*%
D13*
%TO.P,R124,1*%
%TO.N,/cell circuit13/SCL{slash}VCELL*%
X100337500Y-203620000D03*
%TO.P,R124,2*%
%TO.N,/cell circuit13/CMGND*%
X99142500Y-203620000D03*
%TD*%
D29*
%TO.P,C14,1*%
%TO.N,/cell circuit6/SCL{slash}VCELL*%
X70997500Y-151120000D03*
%TO.P,C14,2*%
%TO.N,/cell circuit6/CMGND*%
X69862500Y-151120000D03*
%TD*%
D18*
%TO.P,R73,1*%
%TO.N,Net-(Q36-Pad3)*%
X118950000Y-136747500D03*
%TO.P,R73,2*%
%TO.N,/cell circuit10/cell dn tx*%
X118950000Y-135552500D03*
%TD*%
D11*
%TO.P,Q23,1*%
%TO.N,/cell circuit5/cell_en out*%
X78552500Y-144380000D03*
%TO.P,Q23,2*%
%TO.N,/cell circuit6/CMGND*%
X78552500Y-146280000D03*
%TO.P,Q23,3*%
%TO.N,/cell circuit5/cell plus*%
X80427500Y-145330000D03*
%TD*%
D18*
%TO.P,R93,1*%
%TO.N,Net-(Q46-Pad3)*%
X80790000Y-173187500D03*
%TO.P,R93,2*%
%TO.N,/cell circuit6/cell up rx*%
X80790000Y-171992500D03*
%TD*%
%TO.P,R72,1*%
%TO.N,/cell circuit10/cell plus*%
X126260000Y-151977500D03*
%TO.P,R72,2*%
%TO.N,/cell circuit10/DN TX{slash}RST*%
X126260000Y-150782500D03*
%TD*%
D12*
%TO.P,R58,1*%
%TO.N,/cell circuit5/CMGND*%
X84000000Y-131572500D03*
%TO.P,R58,2*%
%TO.N,/cell circuit4/cell_en out*%
X84000000Y-132767500D03*
%TD*%
D22*
%TO.P,Q50,1*%
%TO.N,Net-(U20-Event)*%
X84100000Y-173528750D03*
%TO.P,Q50,2*%
%TO.N,/cell circuit7/cell plus*%
X86000000Y-173528750D03*
%TO.P,Q50,3*%
%TO.N,Net-(Q50-Pad3)*%
X85050000Y-171653750D03*
%TD*%
D41*
%TO.P,U8,1,A0*%
%TO.N,/cell circuit4/CMGND*%
X78195000Y-140590000D03*
%TO.P,U8,2,A1*%
X78845000Y-140590000D03*
%TO.P,U8,3,A2*%
X79495000Y-140590000D03*
%TO.P,U8,4,GND*%
X80145000Y-140590000D03*
%TO.P,U8,5,SDA*%
%TO.N,/cell circuit4/SDA*%
X80145000Y-134590000D03*
%TO.P,U8,6,SCL*%
%TO.N,/cell circuit4/SCL{slash}VCELL*%
X79495000Y-134590000D03*
%TO.P,U8,7,Event*%
%TO.N,Net-(U8-Event)*%
X78845000Y-134590000D03*
%TO.P,U8,8,V_{DD}*%
%TO.N,/cell circuit4/cell plus*%
X78195000Y-134590000D03*
%TD*%
D18*
%TO.P,R112,1*%
%TO.N,/cell circuit12/cell plus*%
X130140000Y-196347500D03*
%TO.P,R112,2*%
%TO.N,/cell circuit12/DN TX{slash}RST*%
X130140000Y-195152500D03*
%TD*%
D11*
%TO.P,Q31,1*%
%TO.N,/cell circuit9/DN TX{slash}RST*%
X111491250Y-129940000D03*
%TO.P,Q31,2*%
%TO.N,/cell circuit10/cell minus*%
X111491250Y-131840000D03*
%TO.P,Q31,3*%
%TO.N,Net-(Q31-Pad3)*%
X113366250Y-130890000D03*
%TD*%
D10*
%TO.P,R7,1*%
%TO.N,/cell circuit2/SCL{slash}VCELL*%
X27177500Y-159061250D03*
%TO.P,R7,2*%
%TO.N,/cell circuit2/CMGND*%
X28372500Y-159061250D03*
%TD*%
D18*
%TO.P,R28,1*%
%TO.N,/STRING POS*%
X119970000Y-205647500D03*
%TO.P,R28,2*%
%TO.N,/cell circuit13/DN TX{slash}RST*%
X119970000Y-204452500D03*
%TD*%
D10*
%TO.P,R6,1*%
%TO.N,/cell circuit2/cell plus*%
X24642500Y-157251250D03*
%TO.P,R6,2*%
%TO.N,/cell circuit2/SCL{slash}VCELL*%
X25837500Y-157251250D03*
%TD*%
D12*
%TO.P,R19,1*%
%TO.N,/cell circuit3/cell plus*%
X48290000Y-142332500D03*
%TO.P,R19,2*%
%TO.N,Net-(U4-Event)*%
X48290000Y-143527500D03*
%TD*%
D18*
%TO.P,R115,1*%
%TO.N,/cell circuit12/cell plus*%
X127060000Y-186227500D03*
%TO.P,R115,2*%
%TO.N,/cell circuit11/cell up tx*%
X127060000Y-185032500D03*
%TD*%
D35*
%TO.P,C34,1*%
%TO.N,/cell circuit12/cell plus*%
X128120000Y-186217500D03*
%TO.P,C34,2*%
%TO.N,/cell circuit12/CMGND*%
X128120000Y-185082500D03*
%TD*%
D37*
%TO.P,R60,1*%
%TO.N,Net-(Q30-Pad3)*%
X82430000Y-138810000D03*
%TO.P,R60,2*%
%TO.N,/cell circuit4/cell plus*%
X82430000Y-135710000D03*
%TD*%
D18*
%TO.P,R51,1*%
%TO.N,/cell circuit5/cell up rx*%
X85130000Y-132747500D03*
%TO.P,R51,2*%
%TO.N,/cell circuit5/CMGND*%
X85130000Y-131552500D03*
%TD*%
D29*
%TO.P,C20,1*%
%TO.N,/cell circuit9/SCL{slash}VCELL*%
X106147500Y-130030000D03*
%TO.P,C20,2*%
%TO.N,/cell circuit9/CMGND*%
X105012500Y-130030000D03*
%TD*%
D39*
%TO.P,U15,1,~{RESET}/PB5*%
%TO.N,/cell circuit10/DN TX{slash}RST*%
X118565000Y-154260000D03*
%TO.P,U15,2,XTAL1/PB3*%
%TO.N,/cell circuit10/SCL{slash}VCELL*%
X117295000Y-154260000D03*
%TO.P,U15,3,XTAL2/PB4*%
%TO.N,/cell circuit10/cell up rx*%
X116025000Y-154260000D03*
%TO.P,U15,4,GND*%
%TO.N,/cell circuit10/CMGND*%
X114755000Y-154260000D03*
%TO.P,U15,5,AREF/PB0*%
%TO.N,/cell circuit10/UP TX*%
X114755000Y-161560000D03*
%TO.P,U15,6,PB1*%
%TO.N,/cell circuit10/cell dn rx*%
X116025000Y-161560000D03*
%TO.P,U15,7,PB2*%
%TO.N,/cell circuit10/SDA*%
X117295000Y-161560000D03*
%TO.P,U15,8,VCC*%
%TO.N,/cell circuit10/cell plus*%
X118565000Y-161560000D03*
%TD*%
D29*
%TO.P,C25,1*%
%TO.N,/cell circuit8/cell plus*%
X107587500Y-149330000D03*
%TO.P,C25,2*%
%TO.N,/cell circuit8/CMGND*%
X106452500Y-149330000D03*
%TD*%
D17*
%TO.P,Q60,1*%
%TO.N,Net-(U24-Event)*%
X123047500Y-190920000D03*
%TO.P,Q60,2*%
%TO.N,/cell circuit12/cell plus*%
X123047500Y-189020000D03*
%TO.P,Q60,3*%
%TO.N,Net-(Q60-Pad3)*%
X121172500Y-189970000D03*
%TD*%
D31*
%TO.P,J1,1,Pin_1*%
%TO.N,/STRING POS*%
X86460000Y-203540000D03*
%TD*%
D12*
%TO.P,R57,1*%
%TO.N,/cell circuit5/SCL{slash}VCELL*%
X85030000Y-129212500D03*
%TO.P,R57,2*%
%TO.N,/cell circuit5/CMGND*%
X85030000Y-130407500D03*
%TD*%
D26*
%TO.P,R127,1*%
%TO.N,Net-(Q62-Pad3)*%
X107210000Y-192700000D03*
%TO.P,R127,2*%
%TO.N,/cell circuit12/cell plus*%
X110310000Y-192700000D03*
%TD*%
D19*
%TO.P,BT4,1,+*%
%TO.N,/cell circuit4/cell plus*%
X68100000Y-137620000D03*
D20*
X74600000Y-132820000D03*
D21*
X75100000Y-137620000D03*
%TD*%
D13*
%TO.P,R34,1*%
%TO.N,/cell circuit4/cell up tx*%
X80167500Y-129000000D03*
%TO.P,R34,2*%
%TO.N,Net-(Q17-D)*%
X78972500Y-129000000D03*
%TD*%
%TO.P,R109,1*%
%TO.N,/cell circuit11/cell plus*%
X120427500Y-175290000D03*
%TO.P,R109,2*%
%TO.N,Net-(U22-Event)*%
X119232500Y-175290000D03*
%TD*%
D12*
%TO.P,R119,1*%
%TO.N,/cell circuit12/cell plus*%
X124170000Y-189372500D03*
%TO.P,R119,2*%
%TO.N,Net-(U24-Event)*%
X124170000Y-190567500D03*
%TD*%
D19*
%TO.P,BT5,1,+*%
%TO.N,/cell circuit5/cell plus*%
X90800000Y-137620000D03*
D20*
X91706922Y-145649165D03*
D42*
X87300000Y-143682178D03*
%TD*%
D25*
%TO.P,Q41,1*%
%TO.N,/cell circuit8/DN TX{slash}RST*%
X106440001Y-163682499D03*
%TO.P,Q41,2*%
%TO.N,/cell circuit8/cell plus*%
X104540001Y-163682499D03*
%TO.P,Q41,3*%
%TO.N,Net-(Q41-Pad3)*%
X105490001Y-165557499D03*
%TD*%
D19*
%TO.P,BT2,1,+*%
%TO.N,/cell circuit2/cell plus*%
X34050000Y-157280000D03*
D20*
X33143078Y-149250835D03*
D27*
X37550000Y-151217822D03*
%TD*%
D17*
%TO.P,Q56,1*%
%TO.N,/cell circuit12/DN TX{slash}RST*%
X127297500Y-190120000D03*
%TO.P,Q56,2*%
%TO.N,/cell circuit12/cell plus*%
X127297500Y-188220000D03*
%TO.P,Q56,3*%
%TO.N,Net-(Q56-Pad3)*%
X125422500Y-189170000D03*
%TD*%
D16*
%TO.P,C13,1*%
%TO.N,/cell circuit6/cell plus*%
X74832500Y-163000000D03*
%TO.P,C13,2*%
%TO.N,/cell circuit6/CMGND*%
X75967500Y-163000000D03*
%TD*%
D30*
%TO.P,U19,1,~{RESET}/PB5*%
%TO.N,/cell circuit7/DN TX{slash}RST*%
X96945000Y-181230000D03*
%TO.P,U19,2,XTAL1/PB3*%
%TO.N,/cell circuit7/SCL{slash}VCELL*%
X98215000Y-181230000D03*
%TO.P,U19,3,XTAL2/PB4*%
%TO.N,/cell circuit7/cell up rx*%
X99485000Y-181230000D03*
%TO.P,U19,4,GND*%
%TO.N,/cell circuit7/CMGND*%
X100755000Y-181230000D03*
%TO.P,U19,5,AREF/PB0*%
%TO.N,/cell circuit7/UP TX*%
X100755000Y-173930000D03*
%TO.P,U19,6,PB1*%
%TO.N,/cell circuit6/cell up tx*%
X99485000Y-173930000D03*
%TO.P,U19,7,PB2*%
%TO.N,/cell circuit7/SDA*%
X98215000Y-173930000D03*
%TO.P,U19,8,VCC*%
%TO.N,/cell circuit7/cell plus*%
X96945000Y-173930000D03*
%TD*%
D32*
%TO.P,U22,1,A0*%
%TO.N,/cell circuit11/CMGND*%
X121000000Y-187845000D03*
%TO.P,U22,2,A1*%
X121000000Y-187195000D03*
%TO.P,U22,3,A2*%
X121000000Y-186545000D03*
%TO.P,U22,4,GND*%
X121000000Y-185895000D03*
%TO.P,U22,5,SDA*%
%TO.N,/cell circuit11/SDA*%
X115000000Y-185895000D03*
%TO.P,U22,6,SCL*%
%TO.N,/cell circuit11/SCL{slash}VCELL*%
X115000000Y-186545000D03*
%TO.P,U22,7,Event*%
%TO.N,Net-(U22-Event)*%
X115000000Y-187195000D03*
%TO.P,U22,8,V_{DD}*%
%TO.N,/cell circuit11/cell plus*%
X115000000Y-187845000D03*
%TD*%
D34*
%TO.P,U7,1,~{RESET}/PB5*%
%TO.N,/cell circuit4/DN TX{slash}RST*%
X64620000Y-126535000D03*
%TO.P,U7,2,XTAL1/PB3*%
%TO.N,/cell circuit4/SCL{slash}VCELL*%
X64620000Y-127805000D03*
%TO.P,U7,3,XTAL2/PB4*%
%TO.N,/cell circuit4/cell up rx*%
X64620000Y-129075000D03*
%TO.P,U7,4,GND*%
%TO.N,/cell circuit4/CMGND*%
X64620000Y-130345000D03*
%TO.P,U7,5,AREF/PB0*%
%TO.N,/cell circuit4/UP TX*%
X71920000Y-130345000D03*
%TO.P,U7,6,PB1*%
%TO.N,/cell circuit3/cell up tx*%
X71920000Y-129075000D03*
%TO.P,U7,7,PB2*%
%TO.N,/cell circuit4/SDA*%
X71920000Y-127805000D03*
%TO.P,U7,8,VCC*%
%TO.N,/cell circuit4/cell plus*%
X71920000Y-126535000D03*
%TD*%
D10*
%TO.P,R17,1*%
%TO.N,/cell circuit3/SCL{slash}VCELL*%
X38332500Y-132510000D03*
%TO.P,R17,2*%
%TO.N,/cell circuit3/CMGND*%
X39527500Y-132510000D03*
%TD*%
D26*
%TO.P,R110,1*%
%TO.N,Net-(Q55-Pad3)*%
X119950000Y-170270000D03*
%TO.P,R110,2*%
%TO.N,/cell circuit10/cell plus*%
X123050000Y-170270000D03*
%TD*%
D12*
%TO.P,R83,1*%
%TO.N,Net-(Q41-Pad3)*%
X103830000Y-166032500D03*
%TO.P,R83,2*%
%TO.N,/cell circuit7/cell up rx*%
X103830000Y-167227500D03*
%TD*%
D15*
%TO.P,Q2,1,G*%
%TO.N,/cell circuit2/UP TX*%
X32640000Y-144320000D03*
%TO.P,Q2,2,S*%
%TO.N,/cell circuit2/CMGND*%
X32640000Y-145620000D03*
%TO.P,Q2,3,D*%
%TO.N,Net-(Q2-D)*%
X34640000Y-144970000D03*
%TD*%
D40*
%TO.P,U20,1,A0*%
%TO.N,/cell circuit7/CMGND*%
X92983000Y-165987500D03*
%TO.P,U20,2,A1*%
X92983000Y-166637500D03*
%TO.P,U20,3,A2*%
X92983000Y-167287500D03*
%TO.P,U20,4,GND*%
X92983000Y-167937500D03*
%TO.P,U20,5,SDA*%
%TO.N,/cell circuit7/SDA*%
X98983000Y-167937500D03*
%TO.P,U20,6,SCL*%
%TO.N,/cell circuit7/SCL{slash}VCELL*%
X98983000Y-167287500D03*
%TO.P,U20,7,Event*%
%TO.N,Net-(U20-Event)*%
X98983000Y-166637500D03*
%TO.P,U20,8,V_{DD}*%
%TO.N,/cell circuit7/cell plus*%
X98983000Y-165987500D03*
%TD*%
D12*
%TO.P,R5,1*%
%TO.N,/cell circuit2/cell plus*%
X44600000Y-150552500D03*
%TO.P,R5,2*%
%TO.N,/cell circuit1/cell up tx*%
X44600000Y-151747500D03*
%TD*%
D32*
%TO.P,U6,1,A0*%
%TO.N,/cell circuit1/CMGND*%
X47025000Y-158325000D03*
%TO.P,U6,2,A1*%
X47025000Y-157675000D03*
%TO.P,U6,3,A2*%
X47025000Y-157025000D03*
%TO.P,U6,4,GND*%
X47025000Y-156375000D03*
%TO.P,U6,5,SDA*%
%TO.N,/cell circuit1/SDA*%
X41025000Y-156375000D03*
%TO.P,U6,6,SCL*%
%TO.N,/cell circuit1/SCL{slash}VCELL*%
X41025000Y-157025000D03*
%TO.P,U6,7,Event*%
%TO.N,Net-(U6-Event)*%
X41025000Y-157675000D03*
%TO.P,U6,8,V_{DD}*%
%TO.N,/FIRST CELL*%
X41025000Y-158325000D03*
%TD*%
D17*
%TO.P,Q38,1*%
%TO.N,/cell circuit10/cell_en in*%
X125447500Y-147470000D03*
%TO.P,Q38,2*%
%TO.N,/cell circuit10/CMGND*%
X125447500Y-145570000D03*
%TO.P,Q38,3*%
%TO.N,/cell circuit10/cell minus*%
X123572500Y-146520000D03*
%TD*%
D16*
%TO.P,C15,1*%
%TO.N,/cell circuit6/cell plus*%
X85142500Y-164630000D03*
%TO.P,C15,2*%
%TO.N,/cell circuit6/CMGND*%
X86277500Y-164630000D03*
%TD*%
D12*
%TO.P,R36,1*%
%TO.N,/cell circuit4/cell plus*%
X62160000Y-127352500D03*
%TO.P,R36,2*%
%TO.N,/cell circuit4/SCL{slash}VCELL*%
X62160000Y-128547500D03*
%TD*%
D38*
%TO.P,Q49,1,G*%
%TO.N,/cell circuit7/cell plus*%
X99480000Y-165129999D03*
%TO.P,Q49,2,S*%
%TO.N,/cell circuit7/CMGND*%
X100780001Y-165130000D03*
%TO.P,Q49,3,D*%
%TO.N,/cell circuit7/cell_en out*%
X100130000Y-163130000D03*
%TD*%
D18*
%TO.P,R25,1*%
%TO.N,/FIRST CELL*%
X49475000Y-151247500D03*
%TO.P,R25,2*%
%TO.N,/MC TX*%
X49475000Y-150052500D03*
%TD*%
D29*
%TO.P,C23,1*%
%TO.N,/cell circuit10/SCL{slash}VCELL*%
X118487500Y-151590000D03*
%TO.P,C23,2*%
%TO.N,/cell circuit10/CMGND*%
X117352500Y-151590000D03*
%TD*%
D34*
%TO.P,U3,1,~{RESET}/PB5*%
%TO.N,/cell circuit3/DN TX{slash}RST*%
X41300000Y-127465000D03*
%TO.P,U3,2,XTAL1/PB3*%
%TO.N,/cell circuit3/SCL{slash}VCELL*%
X41300000Y-128735000D03*
%TO.P,U3,3,XTAL2/PB4*%
%TO.N,/cell circuit3/cell up rx*%
X41300000Y-130005000D03*
%TO.P,U3,4,GND*%
%TO.N,/cell circuit3/CMGND*%
X41300000Y-131275000D03*
%TO.P,U3,5,AREF/PB0*%
%TO.N,/cell circuit3/UP TX*%
X48600000Y-131275000D03*
%TO.P,U3,6,PB1*%
%TO.N,/cell circuit2/cell up tx*%
X48600000Y-130005000D03*
%TO.P,U3,7,PB2*%
%TO.N,/cell circuit3/SDA*%
X48600000Y-128735000D03*
%TO.P,U3,8,VCC*%
%TO.N,/cell circuit3/cell plus*%
X48600000Y-127465000D03*
%TD*%
D15*
%TO.P,Q54,1,G*%
%TO.N,/cell circuit11/cell plus*%
X123810000Y-182260000D03*
%TO.P,Q54,2,S*%
%TO.N,/cell circuit11/CMGND*%
X123810000Y-183560000D03*
%TO.P,Q54,3,D*%
%TO.N,/cell circuit11/cell_en out*%
X125810000Y-182910000D03*
%TD*%
D13*
%TO.P,R39,1*%
%TO.N,/cell circuit4/cell plus*%
X60087500Y-144060000D03*
%TO.P,R39,2*%
%TO.N,Net-(U8-Event)*%
X58892500Y-144060000D03*
%TD*%
D23*
%TO.P,R120,1*%
%TO.N,Net-(Q60-Pad3)*%
X119760000Y-189770000D03*
%TO.P,R120,2*%
%TO.N,/cell circuit11/cell plus*%
X116660000Y-189770000D03*
%TD*%
D43*
%TO.P,Q19,1,G*%
%TO.N,/cell circuit4/cell plus*%
X82770000Y-128810000D03*
%TO.P,Q19,2,S*%
%TO.N,/cell circuit4/CMGND*%
X81470000Y-128810000D03*
%TO.P,Q19,3,D*%
%TO.N,/cell circuit4/cell_en out*%
X82120000Y-130810000D03*
%TD*%
D33*
%TO.P,U24,1,A0*%
%TO.N,/cell circuit12/CMGND*%
X114715000Y-193660000D03*
%TO.P,U24,2,A1*%
X114065000Y-193660000D03*
%TO.P,U24,3,A2*%
X113415000Y-193660000D03*
%TO.P,U24,4,GND*%
X112765000Y-193660000D03*
%TO.P,U24,5,SDA*%
%TO.N,/cell circuit12/SDA*%
X112765000Y-199660000D03*
%TO.P,U24,6,SCL*%
%TO.N,/cell circuit12/SCL{slash}VCELL*%
X113415000Y-199660000D03*
%TO.P,U24,7,Event*%
%TO.N,Net-(U24-Event)*%
X114065000Y-199660000D03*
%TO.P,U24,8,V_{DD}*%
%TO.N,/cell circuit12/cell plus*%
X114715000Y-199660000D03*
%TD*%
D29*
%TO.P,C18,1*%
%TO.N,/cell circuit5/cell plus*%
X85497500Y-145120000D03*
%TO.P,C18,2*%
%TO.N,/cell circuit5/CMGND*%
X84362500Y-145120000D03*
%TD*%
D16*
%TO.P,C1,1*%
%TO.N,/cell circuit2/cell plus*%
X24676250Y-146051250D03*
%TO.P,C1,2*%
%TO.N,/cell circuit2/CMGND*%
X25811250Y-146051250D03*
%TD*%
D18*
%TO.P,R8,1*%
%TO.N,/cell circuit2/CMGND*%
X41620000Y-162107500D03*
%TO.P,R8,2*%
%TO.N,/cell circuit1/cell_en out*%
X41620000Y-160912500D03*
%TD*%
D16*
%TO.P,C33,1*%
%TO.N,/cell circuit11/cell plus*%
X118642500Y-184780000D03*
%TO.P,C33,2*%
%TO.N,/cell circuit11/CMGND*%
X119777500Y-184780000D03*
%TD*%
D29*
%TO.P,C7,1*%
%TO.N,/FIRST CELL*%
X50942500Y-153725000D03*
%TO.P,C7,2*%
%TO.N,/cell circuit1/CMGND*%
X49807500Y-153725000D03*
%TD*%
D18*
%TO.P,R48,1*%
%TO.N,/cell circuit6/CMGND*%
X77350000Y-146357500D03*
%TO.P,R48,2*%
%TO.N,/cell circuit5/cell_en out*%
X77350000Y-145162500D03*
%TD*%
D30*
%TO.P,U17,1,~{RESET}/PB5*%
%TO.N,/cell circuit8/DN TX{slash}RST*%
X108415000Y-162400000D03*
%TO.P,U17,2,XTAL1/PB3*%
%TO.N,/cell circuit8/SCL{slash}VCELL*%
X109685000Y-162400000D03*
%TO.P,U17,3,XTAL2/PB4*%
%TO.N,/cell circuit8/cell up rx*%
X110955000Y-162400000D03*
%TO.P,U17,4,GND*%
%TO.N,/cell circuit8/CMGND*%
X112225000Y-162400000D03*
%TO.P,U17,5,AREF/PB0*%
%TO.N,/cell circuit8/UP TX*%
X112225000Y-155100000D03*
%TO.P,U17,6,PB1*%
%TO.N,/cell circuit7/cell up tx*%
X110955000Y-155100000D03*
%TO.P,U17,7,PB2*%
%TO.N,/cell circuit8/SDA*%
X109685000Y-155100000D03*
%TO.P,U17,8,VCC*%
%TO.N,/cell circuit8/cell plus*%
X108415000Y-155100000D03*
%TD*%
D11*
%TO.P,Q21,1*%
%TO.N,/cell circuit6/DN TX{slash}RST*%
X73652500Y-148760000D03*
%TO.P,Q21,2*%
%TO.N,/cell circuit6/cell plus*%
X73652500Y-150660000D03*
%TO.P,Q21,3*%
%TO.N,Net-(Q21-Pad3)*%
X75527500Y-149710000D03*
%TD*%
D18*
%TO.P,R125,1*%
%TO.N,/cell circuit13/CMGND*%
X108600000Y-197147500D03*
%TO.P,R125,2*%
%TO.N,/cell circuit12/cell_en out*%
X108600000Y-195952500D03*
%TD*%
D12*
%TO.P,R11,1*%
%TO.N,/cell circuit3/cell up rx*%
X39600000Y-130152500D03*
%TO.P,R11,2*%
%TO.N,/cell circuit3/CMGND*%
X39600000Y-131347500D03*
%TD*%
D35*
%TO.P,C22,1*%
%TO.N,/cell circuit10/cell plus*%
X120140000Y-160747500D03*
%TO.P,C22,2*%
%TO.N,/cell circuit10/CMGND*%
X120140000Y-159612500D03*
%TD*%
D28*
%TO.P,C17,1*%
%TO.N,/cell circuit5/SCL{slash}VCELL*%
X83969884Y-128639533D03*
%TO.P,C17,2*%
%TO.N,/cell circuit5/CMGND*%
X83969884Y-129774533D03*
%TD*%
D24*
%TO.P,Q29,1,G*%
%TO.N,/cell circuit5/cell plus*%
X80429999Y-149030000D03*
%TO.P,Q29,2,S*%
%TO.N,/cell circuit5/CMGND*%
X80430000Y-147729999D03*
%TO.P,Q29,3,D*%
%TO.N,/cell circuit5/cell_en out*%
X78430000Y-148380000D03*
%TD*%
D10*
%TO.P,R9,1*%
%TO.N,/cell circuit2/cell plus*%
X40942500Y-149580000D03*
%TO.P,R9,2*%
%TO.N,Net-(U2-Event)*%
X42137500Y-149580000D03*
%TD*%
D18*
%TO.P,R3,1*%
%TO.N,Net-(Q1-Pad3)*%
X37800000Y-162497500D03*
%TO.P,R3,2*%
%TO.N,/cell circuit1/cell up rx*%
X37800000Y-161302500D03*
%TD*%
D14*
%TO.P,R90,1*%
%TO.N,Net-(Q45-Pad3)*%
X94020000Y-160490000D03*
%TO.P,R90,2*%
%TO.N,/cell circuit7/cell plus*%
X94020000Y-163590000D03*
%TD*%
D13*
%TO.P,R106,1*%
%TO.N,/cell circuit11/cell plus*%
X107797500Y-168560000D03*
%TO.P,R106,2*%
%TO.N,/cell circuit11/SCL{slash}VCELL*%
X106602500Y-168560000D03*
%TD*%
D22*
%TO.P,Q26,1*%
%TO.N,/cell circuit5/DN TX{slash}RST*%
X78840000Y-127907500D03*
%TO.P,Q26,2*%
%TO.N,/cell circuit5/cell plus*%
X80740000Y-127907500D03*
%TO.P,Q26,3*%
%TO.N,Net-(Q26-Pad3)*%
X79790000Y-126032500D03*
%TD*%
D30*
%TO.P,U23,1,~{RESET}/PB5*%
%TO.N,/cell circuit12/DN TX{slash}RST*%
X129955000Y-193150000D03*
%TO.P,U23,2,XTAL1/PB3*%
%TO.N,/cell circuit12/SCL{slash}VCELL*%
X131225000Y-193150000D03*
%TO.P,U23,3,XTAL2/PB4*%
%TO.N,/cell circuit12/cell up rx*%
X132495000Y-193150000D03*
%TO.P,U23,4,GND*%
%TO.N,/cell circuit12/CMGND*%
X133765000Y-193150000D03*
%TO.P,U23,5,AREF/PB0*%
%TO.N,/cell circuit12/UP TX*%
X133765000Y-185850000D03*
%TO.P,U23,6,PB1*%
%TO.N,/cell circuit11/cell up tx*%
X132495000Y-185850000D03*
%TO.P,U23,7,PB2*%
%TO.N,/cell circuit12/SDA*%
X131225000Y-185850000D03*
%TO.P,U23,8,VCC*%
%TO.N,/cell circuit12/cell plus*%
X129955000Y-185850000D03*
%TD*%
D18*
%TO.P,R22,1*%
%TO.N,/FIRST CELL*%
X61610000Y-155017500D03*
%TO.P,R22,2*%
%TO.N,/cell circuit1/DN TX{slash}RST*%
X61610000Y-153822500D03*
%TD*%
D10*
%TO.P,R27,1*%
%TO.N,/cell circuit1/SCL{slash}VCELL*%
X60682500Y-149730000D03*
%TO.P,R27,2*%
%TO.N,/cell circuit1/CMGND*%
X61877500Y-149730000D03*
%TD*%
D19*
%TO.P,BT1,1,+*%
%TO.N,/FIRST CELL*%
X56750000Y-157280000D03*
D20*
X50250000Y-162080000D03*
D21*
X49750000Y-157280000D03*
%TD*%
D18*
%TO.P,R131,1*%
%TO.N,/CELL EN*%
X67575000Y-167722500D03*
%TO.P,R131,2*%
%TO.N,/STRING NEG*%
X67575000Y-166527500D03*
%TD*%
D24*
%TO.P,Q42,1,G*%
%TO.N,/cell circuit8/UP TX*%
X113200000Y-153200000D03*
%TO.P,Q42,2,S*%
%TO.N,/cell circuit8/CMGND*%
X113200000Y-151900000D03*
%TO.P,Q42,3,D*%
%TO.N,Net-(Q42-D)*%
X111200000Y-152550000D03*
%TD*%
D16*
%TO.P,C31,1*%
%TO.N,/cell circuit11/cell plus*%
X108682500Y-182350000D03*
%TO.P,C31,2*%
%TO.N,/cell circuit11/CMGND*%
X109817500Y-182350000D03*
%TD*%
D11*
%TO.P,Q11,1*%
%TO.N,/cell circuit1/DN TX{slash}RST*%
X63202500Y-153600000D03*
%TO.P,Q11,2*%
%TO.N,/FIRST CELL*%
X63202500Y-155500000D03*
%TO.P,Q11,3*%
%TO.N,/MC RX*%
X65077500Y-154550000D03*
%TD*%
D35*
%TO.P,C37,1*%
%TO.N,/STRING POS*%
X109270000Y-201547500D03*
%TO.P,C37,2*%
%TO.N,/cell circuit13/CMGND*%
X109270000Y-200412500D03*
%TD*%
D31*
%TO.P,J4,1,Pin_1*%
%TO.N,/MC RX*%
X77930000Y-171520000D03*
%TD*%
D12*
%TO.P,R4,1*%
%TO.N,/cell circuit2/cell up tx*%
X35650000Y-143432500D03*
%TO.P,R4,2*%
%TO.N,Net-(Q2-D)*%
X35650000Y-144627500D03*
%TD*%
D18*
%TO.P,R95,1*%
%TO.N,/cell circuit7/cell plus*%
X82430000Y-173267500D03*
%TO.P,R95,2*%
%TO.N,/cell circuit6/cell up tx*%
X82430000Y-172072500D03*
%TD*%
D40*
%TO.P,U18,1,A0*%
%TO.N,/cell circuit8/CMGND*%
X104310000Y-146375000D03*
%TO.P,U18,2,A1*%
X104310000Y-147025000D03*
%TO.P,U18,3,A2*%
X104310000Y-147675000D03*
%TO.P,U18,4,GND*%
X104310000Y-148325000D03*
%TO.P,U18,5,SDA*%
%TO.N,/cell circuit8/SDA*%
X110310000Y-148325000D03*
%TO.P,U18,6,SCL*%
%TO.N,/cell circuit8/SCL{slash}VCELL*%
X110310000Y-147675000D03*
%TO.P,U18,7,Event*%
%TO.N,Net-(U18-Event)*%
X110310000Y-147025000D03*
%TO.P,U18,8,V_{DD}*%
%TO.N,/cell circuit8/cell plus*%
X110310000Y-146375000D03*
%TD*%
D31*
%TO.P,J5,1,Pin_1*%
%TO.N,/FIRST CELL*%
X75390000Y-171510000D03*
%TD*%
D10*
%TO.P,R1,1*%
%TO.N,/cell circuit2/cell up rx*%
X27177500Y-156811250D03*
%TO.P,R1,2*%
%TO.N,/cell circuit2/CMGND*%
X28372500Y-156811250D03*
%TD*%
D38*
%TO.P,Q4,1,G*%
%TO.N,/cell circuit2/cell plus*%
X40750000Y-144859999D03*
%TO.P,Q4,2,S*%
%TO.N,/cell circuit2/CMGND*%
X42050001Y-144860000D03*
%TO.P,Q4,3,D*%
%TO.N,/cell circuit2/cell_en out*%
X41400000Y-142860000D03*
%TD*%
D15*
%TO.P,Q9,1,G*%
%TO.N,/cell circuit3/cell plus*%
X60790000Y-136200000D03*
%TO.P,Q9,2,S*%
%TO.N,/cell circuit3/CMGND*%
X60790000Y-137500000D03*
%TO.P,Q9,3,D*%
%TO.N,/cell circuit3/cell_en out*%
X62790000Y-136850000D03*
%TD*%
D25*
%TO.P,Q43,1*%
%TO.N,/cell circuit7/cell_en out*%
X97870000Y-163232500D03*
%TO.P,Q43,2*%
%TO.N,/cell circuit8/CMGND*%
X95970000Y-163232500D03*
%TO.P,Q43,3*%
%TO.N,/cell circuit7/cell plus*%
X96920000Y-165107500D03*
%TD*%
D17*
%TO.P,Q46,1*%
%TO.N,/cell circuit7/DN TX{slash}RST*%
X82658750Y-177120000D03*
%TO.P,Q46,2*%
%TO.N,/cell circuit7/cell plus*%
X82658750Y-175220000D03*
%TO.P,Q46,3*%
%TO.N,Net-(Q46-Pad3)*%
X80783750Y-176170000D03*
%TD*%
D13*
%TO.P,R85,1*%
%TO.N,/cell circuit8/cell plus*%
X103567500Y-163170000D03*
%TO.P,R85,2*%
%TO.N,/cell circuit7/cell up tx*%
X102372500Y-163170000D03*
%TD*%
D12*
%TO.P,R54,1*%
%TO.N,/cell circuit5/cell up tx*%
X98570000Y-132002500D03*
%TO.P,R54,2*%
%TO.N,Net-(Q27-D)*%
X98570000Y-133197500D03*
%TD*%
D18*
%TO.P,R52,1*%
%TO.N,/cell circuit5/cell plus*%
X82080000Y-127237500D03*
%TO.P,R52,2*%
%TO.N,/cell circuit5/DN TX{slash}RST*%
X82080000Y-126042500D03*
%TD*%
D41*
%TO.P,U4,1,A0*%
%TO.N,/cell circuit3/CMGND*%
X55275000Y-140520000D03*
%TO.P,U4,2,A1*%
X55925000Y-140520000D03*
%TO.P,U4,3,A2*%
X56575000Y-140520000D03*
%TO.P,U4,4,GND*%
X57225000Y-140520000D03*
%TO.P,U4,5,SDA*%
%TO.N,/cell circuit3/SDA*%
X57225000Y-134520000D03*
%TO.P,U4,6,SCL*%
%TO.N,/cell circuit3/SCL{slash}VCELL*%
X56575000Y-134520000D03*
%TO.P,U4,7,Event*%
%TO.N,Net-(U4-Event)*%
X55925000Y-134520000D03*
%TO.P,U4,8,V_{DD}*%
%TO.N,/cell circuit3/cell plus*%
X55275000Y-134520000D03*
%TD*%
D15*
%TO.P,Q44,1,G*%
%TO.N,/cell circuit8/cell plus*%
X108970000Y-149630000D03*
%TO.P,Q44,2,S*%
%TO.N,/cell circuit8/CMGND*%
X108970000Y-150930000D03*
%TO.P,Q44,3,D*%
%TO.N,/cell circuit8/cell_en out*%
X110970000Y-150280000D03*
%TD*%
D35*
%TO.P,C36,1*%
%TO.N,/cell circuit12/cell plus*%
X115760000Y-197167500D03*
%TO.P,C36,2*%
%TO.N,/cell circuit12/CMGND*%
X115760000Y-196032500D03*
%TD*%
D18*
%TO.P,R64,1*%
%TO.N,/cell circuit10/cell dn rx*%
X118440000Y-134057500D03*
%TO.P,R64,2*%
%TO.N,Net-(Q32-D)*%
X118440000Y-132862500D03*
%TD*%
D13*
%TO.P,R65,1*%
%TO.N,/cell circuit10/cell minus*%
X106147500Y-141700000D03*
%TO.P,R65,2*%
%TO.N,/cell circuit8/cell up tx*%
X104952500Y-141700000D03*
%TD*%
D24*
%TO.P,Q14,1,G*%
%TO.N,/FIRST CELL*%
X47289999Y-165090000D03*
%TO.P,Q14,2,S*%
%TO.N,/cell circuit1/CMGND*%
X47290000Y-163789999D03*
%TO.P,Q14,3,D*%
%TO.N,/cell circuit1/cell_en out*%
X45290000Y-164440000D03*
%TD*%
D35*
%TO.P,C16,1*%
%TO.N,/cell circuit5/cell plus*%
X96019884Y-127894533D03*
%TO.P,C16,2*%
%TO.N,/cell circuit5/CMGND*%
X96019884Y-126759533D03*
%TD*%
D10*
%TO.P,R122,1*%
%TO.N,/STRING POS*%
X111492500Y-203870000D03*
%TO.P,R122,2*%
%TO.N,/cell circuit12/cell up tx*%
X112687500Y-203870000D03*
%TD*%
D39*
%TO.P,U13,1,~{RESET}/PB5*%
%TO.N,/cell circuit9/DN TX{slash}RST*%
X107525000Y-132800000D03*
%TO.P,U13,2,XTAL1/PB3*%
%TO.N,/cell circuit9/SCL{slash}VCELL*%
X106255000Y-132800000D03*
%TO.P,U13,3,XTAL2/PB4*%
%TO.N,/cell circuit10/cell dn tx*%
X104985000Y-132800000D03*
%TO.P,U13,4,GND*%
%TO.N,/cell circuit9/CMGND*%
X103715000Y-132800000D03*
%TO.P,U13,5,AREF/PB0*%
%TO.N,/cell circuit9/UP TX*%
X103715000Y-140100000D03*
%TO.P,U13,6,PB1*%
%TO.N,/cell circuit8/cell up tx*%
X104985000Y-140100000D03*
%TO.P,U13,7,PB2*%
%TO.N,/cell circuit9/SDA*%
X106255000Y-140100000D03*
%TO.P,U13,8,VCC*%
%TO.N,/cell circuit10/cell minus*%
X107525000Y-140100000D03*
%TD*%
D13*
%TO.P,R79,1*%
%TO.N,/cell circuit10/cell plus*%
X124417500Y-152120000D03*
%TO.P,R79,2*%
%TO.N,Net-(U16-Event)*%
X123222500Y-152120000D03*
%TD*%
%TO.P,R42,1*%
%TO.N,/cell circuit6/cell plus*%
X72637500Y-149630000D03*
%TO.P,R42,2*%
%TO.N,/cell circuit6/DN TX{slash}RST*%
X71442500Y-149630000D03*
%TD*%
D11*
%TO.P,Q62,1*%
%TO.N,Net-(U26-Event)*%
X103882500Y-188890000D03*
%TO.P,Q62,2*%
%TO.N,/STRING POS*%
X103882500Y-190790000D03*
%TO.P,Q62,3*%
%TO.N,Net-(Q62-Pad3)*%
X105757500Y-189840000D03*
%TD*%
D10*
%TO.P,R82,1*%
%TO.N,/cell circuit8/cell plus*%
X104992500Y-162520000D03*
%TO.P,R82,2*%
%TO.N,/cell circuit8/DN TX{slash}RST*%
X106187500Y-162520000D03*
%TD*%
%TO.P,R16,1*%
%TO.N,/cell circuit3/cell plus*%
X37112500Y-133560000D03*
%TO.P,R16,2*%
%TO.N,/cell circuit3/SCL{slash}VCELL*%
X38307500Y-133560000D03*
%TD*%
D11*
%TO.P,Q13,1*%
%TO.N,/cell circuit13/DN TX{slash}RST*%
X121202500Y-204190000D03*
%TO.P,Q13,2*%
%TO.N,/STRING POS*%
X121202500Y-206090000D03*
%TO.P,Q13,3*%
%TO.N,Net-(Q13-Pad3)*%
X123077500Y-205140000D03*
%TD*%
D13*
%TO.P,R41,1*%
%TO.N,/cell circuit6/cell up rx*%
X70997500Y-152180000D03*
%TO.P,R41,2*%
%TO.N,/cell circuit6/CMGND*%
X69802500Y-152180000D03*
%TD*%
D19*
%TO.P,BT10,1,+*%
%TO.N,/cell circuit10/cell plus*%
X124850000Y-157280000D03*
D20*
X125756922Y-165309165D03*
D42*
X121350000Y-163342178D03*
%TD*%
D13*
%TO.P,R99,1*%
%TO.N,/cell circuit7/cell plus*%
X85577501Y-174670000D03*
%TO.P,R99,2*%
%TO.N,Net-(U20-Event)*%
X84382501Y-174670000D03*
%TD*%
D28*
%TO.P,C26,1*%
%TO.N,/cell circuit8/SCL{slash}VCELL*%
X109800000Y-164082500D03*
%TO.P,C26,2*%
%TO.N,/cell circuit8/CMGND*%
X109800000Y-165217500D03*
%TD*%
D11*
%TO.P,Q61,1*%
%TO.N,/cell circuit12/cell_en out*%
X109902500Y-195410000D03*
%TO.P,Q61,2*%
%TO.N,/cell circuit13/CMGND*%
X109902500Y-197310000D03*
%TO.P,Q61,3*%
%TO.N,/cell circuit12/cell plus*%
X111777500Y-196360000D03*
%TD*%
D18*
%TO.P,R29,1*%
%TO.N,/FIRST CELL*%
X59050000Y-164247500D03*
%TO.P,R29,2*%
%TO.N,Net-(U6-Event)*%
X59050000Y-163052500D03*
%TD*%
D13*
%TO.P,R46,1*%
%TO.N,/cell circuit6/cell plus*%
X74477500Y-152200000D03*
%TO.P,R46,2*%
%TO.N,/cell circuit6/SCL{slash}VCELL*%
X73282500Y-152200000D03*
%TD*%
D35*
%TO.P,C39,1*%
%TO.N,/STRING POS*%
X93160000Y-197277500D03*
%TO.P,C39,2*%
%TO.N,/cell circuit13/CMGND*%
X93160000Y-196142500D03*
%TD*%
D24*
%TO.P,Q66,1,G*%
%TO.N,/CELL EN*%
X65600000Y-167750000D03*
%TO.P,Q66,2,S*%
%TO.N,/STRING NEG*%
X65600000Y-166450000D03*
%TO.P,Q66,3,D*%
%TO.N,/cell circuit1/CMGND*%
X63600000Y-167100000D03*
%TD*%
D18*
%TO.P,R86,1*%
%TO.N,/cell circuit8/cell plus*%
X108570000Y-165267500D03*
%TO.P,R86,2*%
%TO.N,/cell circuit8/SCL{slash}VCELL*%
X108570000Y-164072500D03*
%TD*%
D44*
%TO.P,U5,1,~{RESET}/PB5*%
%TO.N,/cell circuit1/DN TX{slash}RST*%
X58950000Y-151815000D03*
%TO.P,U5,2,XTAL1/PB3*%
%TO.N,/cell circuit1/SCL{slash}VCELL*%
X58950000Y-150545000D03*
%TO.P,U5,3,XTAL2/PB4*%
%TO.N,/cell circuit1/cell up rx*%
X58950000Y-149275000D03*
%TO.P,U5,4,GND*%
%TO.N,/cell circuit1/CMGND*%
X58950000Y-148005000D03*
%TO.P,U5,5,AREF/PB0*%
%TO.N,/cell circuit1/UP TX*%
X51650000Y-148005000D03*
%TO.P,U5,6,PB1*%
%TO.N,/MC TX*%
X51650000Y-149275000D03*
%TO.P,U5,7,PB2*%
%TO.N,/cell circuit1/SDA*%
X51650000Y-150545000D03*
%TO.P,U5,8,VCC*%
%TO.N,/FIRST CELL*%
X51650000Y-151815000D03*
%TD*%
D29*
%TO.P,C38,1*%
%TO.N,/cell circuit13/SCL{slash}VCELL*%
X100337500Y-204690000D03*
%TO.P,C38,2*%
%TO.N,/cell circuit13/CMGND*%
X99202500Y-204690000D03*
%TD*%
D13*
%TO.P,R15,1*%
%TO.N,/cell circuit3/cell plus*%
X51597500Y-130100000D03*
%TO.P,R15,2*%
%TO.N,/cell circuit2/cell up tx*%
X50402500Y-130100000D03*
%TD*%
D11*
%TO.P,Q35,1*%
%TO.N,Net-(U14-Event)*%
X102571250Y-143100000D03*
%TO.P,Q35,2*%
%TO.N,/cell circuit10/cell minus*%
X102571250Y-145000000D03*
%TO.P,Q35,3*%
%TO.N,Net-(Q35-Pad3)*%
X104446250Y-144050000D03*
%TD*%
D32*
%TO.P,U16,1,A0*%
%TO.N,/cell circuit10/CMGND*%
X122427000Y-168212500D03*
%TO.P,U16,2,A1*%
X122427000Y-167562500D03*
%TO.P,U16,3,A2*%
X122427000Y-166912500D03*
%TO.P,U16,4,GND*%
X122427000Y-166262500D03*
%TO.P,U16,5,SDA*%
%TO.N,/cell circuit10/SDA*%
X116427000Y-166262500D03*
%TO.P,U16,6,SCL*%
%TO.N,/cell circuit10/SCL{slash}VCELL*%
X116427000Y-166912500D03*
%TO.P,U16,7,Event*%
%TO.N,Net-(U16-Event)*%
X116427000Y-167562500D03*
%TO.P,U16,8,V_{DD}*%
%TO.N,/cell circuit10/cell plus*%
X116427000Y-168212500D03*
%TD*%
D25*
%TO.P,Q45,1*%
%TO.N,Net-(U18-Event)*%
X96080000Y-157402500D03*
%TO.P,Q45,2*%
%TO.N,/cell circuit8/cell plus*%
X94180000Y-157402500D03*
%TO.P,Q45,3*%
%TO.N,Net-(Q45-Pad3)*%
X95130000Y-159277500D03*
%TD*%
D22*
%TO.P,Q20,1*%
%TO.N,Net-(U8-Event)*%
X58530000Y-142808750D03*
%TO.P,Q20,2*%
%TO.N,/cell circuit4/cell plus*%
X60430000Y-142808750D03*
%TO.P,Q20,3*%
%TO.N,Net-(Q20-Pad3)*%
X59480000Y-140933750D03*
%TD*%
D15*
%TO.P,Q24,1,G*%
%TO.N,/cell circuit6/cell plus*%
X89490000Y-161540000D03*
%TO.P,Q24,2,S*%
%TO.N,/cell circuit6/CMGND*%
X89490000Y-162840000D03*
%TO.P,Q24,3,D*%
%TO.N,/cell circuit6/cell_en out*%
X91490000Y-162190000D03*
%TD*%
D10*
%TO.P,R81,1*%
%TO.N,/cell circuit8/cell up rx*%
X110992500Y-164070000D03*
%TO.P,R81,2*%
%TO.N,/cell circuit8/CMGND*%
X112187500Y-164070000D03*
%TD*%
D12*
%TO.P,R56,1*%
%TO.N,/cell circuit5/cell plus*%
X85070000Y-126882500D03*
%TO.P,R56,2*%
%TO.N,/cell circuit5/SCL{slash}VCELL*%
X85070000Y-128077500D03*
%TD*%
%TO.P,R117,1*%
%TO.N,/cell circuit12/SCL{slash}VCELL*%
X133250000Y-195132500D03*
%TO.P,R117,2*%
%TO.N,/cell circuit12/CMGND*%
X133250000Y-196327500D03*
%TD*%
D45*
%TO.N,/FIRST CELL*%
X51625000Y-152990006D03*
X62990000Y-152370000D03*
X46152438Y-153774394D03*
X44570000Y-158340000D03*
X46080000Y-161000000D03*
X59050000Y-165300000D03*
%TO.N,/STRING NEG*%
X67950000Y-165430000D03*
%TO.N,/MC TX*%
X53370000Y-149670000D03*
%TO.N,/cell circuit2/cell plus*%
X43270000Y-149640000D03*
X25450000Y-149050000D03*
X37260000Y-145130000D03*
X25690000Y-158530000D03*
%TO.N,/STRING POS*%
X112320000Y-202640000D03*
X108000000Y-201210000D03*
%TO.N,Net-(U8-Event)*%
X62550000Y-142350000D03*
X77550000Y-132619998D03*
%TO.N,Net-(U10-Event)*%
X84950000Y-156400000D03*
X79431699Y-167248301D03*
%TO.N,Net-(U12-Event)*%
X90556128Y-148042394D03*
X81500002Y-141060000D03*
%TO.N,/cell circuit2/cell up rx*%
X27930000Y-153290000D03*
X38417199Y-139020000D03*
%TO.N,/cell circuit2/cell up tx*%
X35920000Y-142250000D03*
X47781000Y-130039710D03*
%TO.N,Net-(U4-Event)*%
X50000000Y-142620002D03*
X55208203Y-132599334D03*
%TO.N,Net-(Q37-D)*%
X110370000Y-168130000D03*
X104135006Y-182541422D03*
%TO.N,Net-(U16-Event)*%
X114552976Y-166682977D03*
X118136397Y-158525297D03*
%TO.N,Net-(Q42-D)*%
X111150931Y-151689931D03*
X102736001Y-140687012D03*
%TO.N,Net-(U18-Event)*%
X96090000Y-155091250D03*
X111574075Y-146617434D03*
%TO.N,Net-(U20-Event)*%
X84972251Y-172819000D03*
X100085784Y-166625295D03*
%TO.N,Net-(U22-Event)*%
X113610000Y-187400000D03*
X119120000Y-176410000D03*
%TO.N,Net-(U24-Event)*%
X115450000Y-201600002D03*
X121767550Y-190888135D03*
%TO.N,/cell circuit2/CMGND*%
X31987692Y-146089000D03*
X43011550Y-146980966D03*
X28550000Y-160000000D03*
X42450000Y-161900000D03*
X29400000Y-153450000D03*
X26850000Y-146000000D03*
%TO.N,/cell circuit3/cell plus*%
X50300000Y-127050000D03*
X57450000Y-136800000D03*
X37070000Y-134420000D03*
X35550000Y-139900000D03*
X58066499Y-134255194D03*
%TO.N,/cell circuit12/cell plus*%
X112710000Y-196010000D03*
X121820000Y-188780000D03*
X128260000Y-187330000D03*
X112790000Y-192150000D03*
%TO.N,/cell circuit3/CMGND*%
X54900000Y-142620002D03*
X53000000Y-128000000D03*
X38190000Y-143520000D03*
X40700000Y-132400000D03*
%TO.N,/cell circuit3/SCL{slash}VCELL*%
X44850000Y-128735000D03*
X56262072Y-132616132D03*
%TO.N,/cell circuit12/CMGND*%
X117959971Y-204673997D03*
X128976000Y-185370000D03*
X124250000Y-186036001D03*
X134370000Y-197350000D03*
X133640000Y-191770000D03*
X114830000Y-191520000D03*
%TO.N,/cell circuit12/SCL{slash}VCELL*%
X130490000Y-191500000D03*
X114160000Y-201600002D03*
%TO.N,/cell circuit13/CMGND*%
X110390000Y-200310000D03*
X107960000Y-198260000D03*
X99310000Y-207280000D03*
X92420000Y-191599998D03*
X98000000Y-204030000D03*
%TO.N,/cell circuit12/UP TX*%
X133700000Y-187650000D03*
X118100000Y-206460000D03*
%TO.N,/cell circuit3/cell up tx*%
X68799672Y-129066772D03*
X57610002Y-130300000D03*
%TO.N,/cell circuit12/cell up rx*%
X132440000Y-191560000D03*
X126960000Y-204520000D03*
%TO.N,/cell circuit12/SDA*%
X111370000Y-198720000D03*
X130780000Y-187290000D03*
%TO.N,/cell circuit13/SDA*%
X107570000Y-204760000D03*
X90750000Y-201600002D03*
%TO.N,/cell circuit4/cell plus*%
X80070000Y-132500000D03*
X60600000Y-128344000D03*
X73065973Y-127042689D03*
X80200000Y-136500000D03*
X61250000Y-142800000D03*
%TO.N,/cell circuit5/cell plus*%
X92650000Y-127070000D03*
X84180000Y-141660000D03*
X80240000Y-146230000D03*
X83270000Y-126990000D03*
%TO.N,/cell circuit6/cell plus*%
X83840000Y-168700000D03*
X88740000Y-164560000D03*
X74633199Y-151172299D03*
X74650000Y-161850000D03*
X86140000Y-155800000D03*
%TO.N,/cell circuit7/cell plus*%
X97425752Y-166895752D03*
X82700000Y-174220000D03*
X95860000Y-165880000D03*
X98230000Y-171286000D03*
X95690000Y-184170000D03*
X93970000Y-164770000D03*
%TO.N,/cell circuit8/cell plus*%
X93395000Y-156135000D03*
X108410000Y-156500000D03*
X105380000Y-163620000D03*
X108535250Y-147225250D03*
X110862749Y-149392749D03*
X107470000Y-165340000D03*
X107530000Y-146520000D03*
%TO.N,/cell circuit10/cell minus*%
X109450000Y-132100000D03*
X108450000Y-140750000D03*
X119360000Y-148130000D03*
X122490000Y-145120000D03*
X103187162Y-144011545D03*
X109450000Y-129100000D03*
%TO.N,/cell circuit10/cell plus*%
X121920000Y-169510000D03*
X118850000Y-167770000D03*
X120450000Y-152600000D03*
X117989248Y-167299248D03*
%TO.N,/cell circuit11/cell plus*%
X108220000Y-169420000D03*
X122430000Y-185040000D03*
X120450000Y-176290000D03*
X108950000Y-181250000D03*
%TO.N,/cell circuit1/CMGND*%
X49170000Y-152279998D03*
X61808750Y-148631250D03*
X62860000Y-166020000D03*
X46880000Y-162280002D03*
%TO.N,/cell circuit1/SCL{slash}VCELL*%
X56630000Y-150920000D03*
X42520000Y-157220000D03*
%TO.N,/cell circuit4/CMGND*%
X59600000Y-133350000D03*
X63450000Y-131067500D03*
X77760000Y-130440000D03*
X78349000Y-142658130D03*
X76650000Y-127250000D03*
X79390000Y-130750197D03*
%TO.N,/cell circuit4/SCL{slash}VCELL*%
X67950000Y-127085289D03*
X78424182Y-132031163D03*
%TO.N,/cell circuit6/CMGND*%
X88512091Y-162976002D03*
X69800000Y-155480000D03*
X76332251Y-163917749D03*
X78870000Y-147220000D03*
X72180000Y-165160000D03*
%TO.N,/cell circuit6/SCL{slash}VCELL*%
X72410380Y-155780000D03*
X77980000Y-165270000D03*
%TO.N,/cell circuit5/CMGND*%
X82930000Y-132836001D03*
X96110000Y-133410000D03*
X97110000Y-126820000D03*
X81201187Y-144245630D03*
X86160000Y-131780000D03*
%TO.N,/cell circuit5/SCL{slash}VCELL*%
X84934789Y-137778842D03*
X90029129Y-148955188D03*
%TO.N,/cell circuit9/CMGND*%
X122656242Y-143479075D03*
X103950000Y-130070000D03*
X116200000Y-131850000D03*
X109475354Y-142274646D03*
X113760000Y-149320000D03*
%TO.N,/cell circuit9/SCL{slash}VCELL*%
X110911766Y-144429480D03*
X106514024Y-134119000D03*
%TO.N,/cell circuit10/CMGND*%
X124640000Y-145070000D03*
X116340000Y-151590000D03*
X118820472Y-157723448D03*
X115558145Y-162992504D03*
X114050000Y-163601000D03*
%TO.N,/cell circuit10/SCL{slash}VCELL*%
X117410000Y-155740000D03*
X114419000Y-165383825D03*
%TO.N,/cell circuit8/CMGND*%
X102657260Y-146401401D03*
X112709160Y-151289768D03*
X110385999Y-153170577D03*
X96880000Y-163890000D03*
X112380000Y-160760000D03*
X96340000Y-161310000D03*
%TO.N,/cell circuit8/SCL{slash}VCELL*%
X109460000Y-160790000D03*
X112344145Y-147792571D03*
%TO.N,/cell circuit7/CMGND*%
X91350000Y-165290000D03*
X97270000Y-185190000D03*
X101110000Y-179720000D03*
X99388288Y-172212926D03*
%TO.N,/cell circuit7/SCL{slash}VCELL*%
X100899660Y-167295016D03*
X98250000Y-179280000D03*
%TO.N,/cell circuit11/CMGND*%
X122944351Y-183298095D03*
X118260000Y-169740000D03*
X106550000Y-183960000D03*
X110750000Y-182900000D03*
X104050000Y-170050000D03*
%TO.N,/cell circuit11/SCL{slash}VCELL*%
X106340000Y-174680000D03*
X113170000Y-186390000D03*
%TO.N,/cell circuit4/DN TX{slash}RST*%
X60040000Y-126010000D03*
X66324089Y-126919000D03*
%TO.N,/cell circuit10/UP TX*%
X111790000Y-167380000D03*
X114598388Y-160076113D03*
%TO.N,/cell circuit1/cell up rx*%
X57508500Y-148870020D03*
X38977952Y-159595529D03*
%TO.N,/cell circuit1/cell up tx*%
X43550000Y-151760000D03*
X28677968Y-149152032D03*
%TO.N,/cell circuit4/cell up tx*%
X80007413Y-129882587D03*
X92860000Y-129670000D03*
%TO.N,/cell circuit6/cell up rx*%
X70848380Y-155588722D03*
X80229235Y-170973341D03*
%TO.N,/cell circuit5/cell up rx*%
X76684177Y-149121321D03*
X85260000Y-134000000D03*
%TO.N,/cell circuit6/cell up tx*%
X83982845Y-172374751D03*
X98680000Y-175350000D03*
%TO.N,/cell circuit5/cell up tx*%
X96800000Y-131460000D03*
X71360000Y-158500000D03*
%TO.N,/cell circuit8/cell up rx*%
X114229994Y-131760500D03*
X111260000Y-160640000D03*
%TO.N,/cell circuit10/cell dn rx*%
X119330000Y-134310000D03*
X116200000Y-160010000D03*
%TO.N,/cell circuit10/cell up rx*%
X115390000Y-156170000D03*
X113680000Y-168610000D03*
%TO.N,/cell circuit11/cell up rx*%
X109230000Y-183820000D03*
X105110000Y-174190000D03*
%TO.N,/cell circuit11/cell up tx*%
X109960000Y-186250000D03*
X127122000Y-183927209D03*
%TD*%
D46*
%TO.N,Net-(Q1-Pad3)*%
X26481250Y-160341250D02*
X28590000Y-162450000D01*
X28590000Y-162450000D02*
X37752500Y-162450000D01*
%TO.N,Net-(Q2-D)*%
X34982500Y-144627500D02*
X35650000Y-144627500D01*
X34640000Y-144970000D02*
X34982500Y-144627500D01*
%TO.N,/FIRST CELL*%
X51625000Y-151930000D02*
X51625000Y-152990000D01*
X62600000Y-151980000D02*
X62990000Y-152370000D01*
X47289999Y-165090000D02*
X50250000Y-162129999D01*
X51625000Y-153042500D02*
X50942500Y-153725000D01*
X44847500Y-161710000D02*
X45370000Y-161710000D01*
X43202500Y-158340000D02*
X44570000Y-158340000D01*
X51625000Y-152990000D02*
X51625000Y-152990006D01*
X62720000Y-155017500D02*
X63202500Y-155500000D01*
X42322500Y-159220000D02*
X41920000Y-159220000D01*
X45370000Y-161710000D02*
X46080000Y-161000000D01*
X61610000Y-155017500D02*
X59012500Y-155017500D01*
X44525000Y-154650000D02*
X45276832Y-154650000D01*
X42322500Y-159220000D02*
X43202500Y-158340000D01*
X51625000Y-151930000D02*
X50157500Y-151930000D01*
X60665000Y-164247500D02*
X60862500Y-164050000D01*
X41920000Y-159220000D02*
X41025000Y-158325000D01*
X50157500Y-151930000D02*
X49475000Y-151247500D01*
X49750000Y-157280000D02*
X49750000Y-161580000D01*
X61957500Y-151980000D02*
X62600000Y-151980000D01*
X61610000Y-155017500D02*
X62720000Y-155017500D01*
X51625000Y-152990000D02*
X51625000Y-153042500D01*
X59050000Y-164247500D02*
X60665000Y-164247500D01*
X45276832Y-154650000D02*
X46152438Y-153774394D01*
X59050000Y-164247500D02*
X59050000Y-165300000D01*
%TO.N,/STRING NEG*%
X67575000Y-165805000D02*
X67950000Y-165430000D01*
X65275000Y-166125000D02*
X65600000Y-166450000D01*
X65600000Y-166450000D02*
X67497500Y-166450000D01*
X67575000Y-166527500D02*
X67575000Y-165805000D01*
X65275000Y-164450000D02*
X65275000Y-166125000D01*
%TO.N,/MC RX*%
X67038501Y-163244000D02*
X67038501Y-156308501D01*
X68731000Y-165337580D02*
X68731000Y-164936499D01*
X74242000Y-167717000D02*
X71110420Y-167717000D01*
X67038501Y-156308501D02*
X65280000Y-154550000D01*
X77930000Y-171405000D02*
X74242000Y-167717000D01*
X71110420Y-167717000D02*
X68731000Y-165337580D01*
X68731000Y-164936499D02*
X67038501Y-163244000D01*
%TO.N,/MC TX*%
X51625000Y-149390000D02*
X53090000Y-149390000D01*
X53090000Y-149390000D02*
X53370000Y-149670000D01*
X50137500Y-149390000D02*
X49475000Y-150052500D01*
X51625000Y-149390000D02*
X50137500Y-149390000D01*
%TO.N,/cell circuit2/cell plus*%
X40750000Y-144859999D02*
X40750000Y-146722500D01*
X44182500Y-150552500D02*
X43270000Y-149640000D01*
X37184500Y-149070000D02*
X35847000Y-147732500D01*
X37552500Y-144837500D02*
X37260000Y-145130000D01*
X25190000Y-147641250D02*
X25190000Y-148790000D01*
X25190000Y-146565000D02*
X24676250Y-146051250D01*
X44700000Y-147070000D02*
X44700000Y-148210000D01*
X44600000Y-150552500D02*
X44182500Y-150552500D01*
X25690000Y-158393750D02*
X25690000Y-160207500D01*
X24547500Y-157251250D02*
X25690000Y-158393750D01*
X38402500Y-149070000D02*
X37184500Y-149070000D01*
X37550000Y-151217822D02*
X35110065Y-151217822D01*
X38240000Y-144837500D02*
X37552500Y-144837500D01*
X40550000Y-150802500D02*
X40550000Y-149972500D01*
X25190000Y-147641250D02*
X25190000Y-146565000D01*
X35110065Y-151217822D02*
X33143078Y-149250835D01*
X34661413Y-147732500D02*
X33143078Y-149250835D01*
X40550000Y-149972500D02*
X40942500Y-149580000D01*
X25690000Y-160207500D02*
X24606250Y-161291250D01*
X37550000Y-151217822D02*
X40134678Y-151217822D01*
X40134678Y-151217822D02*
X40550000Y-150802500D01*
X25190000Y-148790000D02*
X25450000Y-149050000D01*
X24606250Y-161546250D02*
X25901250Y-162841250D01*
X40750000Y-146722500D02*
X38402500Y-149070000D01*
X24606250Y-161291250D02*
X24606250Y-161546250D01*
X35847000Y-147732500D02*
X34661413Y-147732500D01*
X44700000Y-148210000D02*
X43270000Y-149640000D01*
%TO.N,/STRING POS*%
X113741000Y-203781000D02*
X112600000Y-202640000D01*
X118171476Y-203781000D02*
X113741000Y-203781000D01*
X103002500Y-190790000D02*
X102630000Y-190417500D01*
X108337500Y-201547500D02*
X108000000Y-201210000D01*
X111492500Y-203870000D02*
X111492500Y-203467500D01*
X92255000Y-198182500D02*
X93160000Y-197277500D01*
X119970000Y-205579524D02*
X118171476Y-203781000D01*
X109270000Y-201547500D02*
X108337500Y-201547500D01*
X93160000Y-197277500D02*
X94472500Y-197277500D01*
X111492500Y-203467500D02*
X112320000Y-202640000D01*
X99142500Y-202560000D02*
X96810000Y-202560000D01*
X95150000Y-196600000D02*
X95150000Y-200900000D01*
X112600000Y-202640000D02*
X112320000Y-202640000D01*
X120412500Y-206090000D02*
X119970000Y-205647500D01*
X121202500Y-206090000D02*
X120412500Y-206090000D01*
X103882500Y-190790000D02*
X103002500Y-190790000D01*
X109430000Y-203375000D02*
X109430000Y-201707500D01*
X103882500Y-190790000D02*
X102150000Y-192522500D01*
X92255000Y-199650000D02*
X92255000Y-198182500D01*
%TO.N,/cell circuit2/cell_en out*%
X39190000Y-142962500D02*
X39190000Y-141782500D01*
X41400000Y-142860000D02*
X39292500Y-142860000D01*
%TO.N,/cell circuit2/SCL{slash}VCELL*%
X31923770Y-146966230D02*
X29999000Y-148891000D01*
X29999000Y-148891000D02*
X29999000Y-149653921D01*
X35847000Y-146432500D02*
X32844923Y-146432500D01*
X26487500Y-157251250D02*
X27177500Y-157941250D01*
X32844923Y-146432500D02*
X32311193Y-146966230D01*
X26460000Y-153192921D02*
X26460000Y-154941250D01*
X32311193Y-146966230D02*
X31923770Y-146966230D01*
X26460000Y-154941250D02*
X26460000Y-155691249D01*
X25742500Y-157251250D02*
X26487500Y-157251250D01*
X25742500Y-156408749D02*
X25742500Y-157251250D01*
X27177500Y-157941250D02*
X27177500Y-159061250D01*
X26460000Y-155691249D02*
X25742500Y-156408749D01*
X29999000Y-149653921D02*
X26460000Y-153192921D01*
%TO.N,Net-(Q5-Pad3)*%
X41425000Y-152752500D02*
X41425000Y-154650000D01*
%TO.N,Net-(Q6-Pad3)*%
X39220000Y-137502500D02*
X40050000Y-137502500D01*
X38762500Y-137960000D02*
X39220000Y-137502500D01*
%TO.N,/cell circuit2/DN TX{slash}RST*%
X23870000Y-161805947D02*
X23870000Y-160127500D01*
X23880000Y-158665000D02*
X23880000Y-156251250D01*
X24606250Y-159391250D02*
X23880000Y-158665000D01*
X23870000Y-160127500D02*
X24606250Y-159391250D01*
X23880000Y-156251250D02*
X25190000Y-154941250D01*
X24706250Y-162841250D02*
X24706250Y-162642197D01*
X24706250Y-162642197D02*
X23870000Y-161805947D01*
%TO.N,Net-(Q7-D)*%
X56550000Y-128050000D02*
X57537500Y-128050000D01*
%TO.N,/cell circuit2/UP TX*%
X32640000Y-144320000D02*
X31920000Y-144320000D01*
X31920000Y-144320000D02*
X29000000Y-147240000D01*
%TO.N,Net-(Q10-Pad3)*%
X46097500Y-145367500D02*
X47800000Y-147070000D01*
%TO.N,/CELL EN*%
X76621000Y-172819000D02*
X76621000Y-170955669D01*
X76621000Y-170955669D02*
X73915331Y-168250000D01*
X65600000Y-167750000D02*
X67547500Y-167750000D01*
X75390000Y-174050000D02*
X76621000Y-172819000D01*
X70570000Y-168250000D02*
X70042500Y-167722500D01*
X70042500Y-167722500D02*
X67575000Y-167722500D01*
X73915331Y-168250000D02*
X70570000Y-168250000D01*
%TO.N,Net-(Q12-D)*%
X48430000Y-151050000D02*
X46028968Y-151050000D01*
X46028968Y-151050000D02*
X45660000Y-151418968D01*
X45660000Y-151418968D02*
X45660000Y-152642500D01*
%TO.N,Net-(Q15-Pad3)*%
X62737500Y-163100000D02*
X63525000Y-163100000D01*
X63525000Y-163100000D02*
X65275000Y-161350000D01*
%TO.N,Net-(Q16-Pad3)*%
X57677396Y-126440000D02*
X58627396Y-127390000D01*
X58627396Y-127390000D02*
X60807500Y-127390000D01*
X53727500Y-126440000D02*
X57677396Y-126440000D01*
%TO.N,Net-(Q17-D)*%
X78972500Y-129000000D02*
X78220000Y-129000000D01*
X77600000Y-128420000D02*
X76130000Y-128420000D01*
X78220000Y-129000000D02*
X78200000Y-129020000D01*
X78200000Y-129020000D02*
X77600000Y-128420000D01*
%TO.N,Net-(Q20-Pad3)*%
X59480000Y-140933750D02*
X59480000Y-139480000D01*
%TO.N,Net-(U8-Event)*%
X62127750Y-141927750D02*
X62550000Y-142350000D01*
X58530000Y-142808750D02*
X58530000Y-143697500D01*
X78845000Y-134590000D02*
X78845000Y-133914998D01*
X78845000Y-133914998D02*
X77550000Y-132619998D01*
X58530000Y-142808750D02*
X59411000Y-141927750D01*
X58530000Y-143697500D02*
X58892500Y-144060000D01*
X59411000Y-141927750D02*
X62127750Y-141927750D01*
%TO.N,Net-(Q21-Pad3)*%
X76142500Y-149710000D02*
X76792500Y-150360000D01*
X75527500Y-149710000D02*
X76142500Y-149710000D01*
%TO.N,Net-(Q22-D)*%
X74980000Y-165140000D02*
X76117500Y-165140000D01*
%TO.N,Net-(U10-Event)*%
X84492500Y-154880000D02*
X84492500Y-155942500D01*
X84492500Y-155942500D02*
X84950000Y-156400000D01*
X79695000Y-166985000D02*
X79431699Y-167248301D01*
X83870000Y-154257500D02*
X84492500Y-154880000D01*
X81330000Y-166985000D02*
X79695000Y-166985000D01*
X83870000Y-153637500D02*
X83870000Y-154257500D01*
%TO.N,Net-(Q25-Pad3)*%
X84820000Y-151520000D02*
X83220000Y-149920000D01*
%TO.N,Net-(Q26-Pad3)*%
X77297500Y-126050000D02*
X79642500Y-126050000D01*
%TO.N,Net-(Q27-D)*%
X98570000Y-133197500D02*
X97322500Y-133197500D01*
%TO.N,Net-(Q30-Pad3)*%
X82510000Y-138640000D02*
X82510000Y-140102500D01*
%TO.N,Net-(U12-Event)*%
X89448734Y-146935000D02*
X90556128Y-148042394D01*
X81450000Y-142847500D02*
X81922500Y-143320000D01*
X81500002Y-141060000D02*
X81500002Y-143025970D01*
X81500002Y-143025970D02*
X81922500Y-143448468D01*
X87600000Y-146935000D02*
X89448734Y-146935000D01*
X81450000Y-142087500D02*
X81450000Y-142847500D01*
%TO.N,Net-(Q31-Pad3)*%
X113982500Y-129790000D02*
X113982500Y-130273750D01*
X113982500Y-130273750D02*
X113366250Y-130890000D01*
%TO.N,Net-(Q32-D)*%
X118440000Y-130690000D02*
X118440000Y-132862500D01*
X118200000Y-130450000D02*
X118440000Y-130690000D01*
%TO.N,Net-(Q35-Pad3)*%
X104446250Y-144050000D02*
X105690000Y-144050000D01*
%TO.N,Net-(U14-Event)*%
X108057669Y-143100000D02*
X102593758Y-143100000D01*
X109657748Y-143111254D02*
X108068923Y-143111254D01*
X101551250Y-143100000D02*
X101238750Y-143412500D01*
X102571250Y-143100000D02*
X101551250Y-143100000D01*
X110360000Y-145389538D02*
X110021000Y-145050538D01*
X108068923Y-143111254D02*
X108057669Y-143100000D01*
X110021000Y-143474506D02*
X109657748Y-143111254D01*
X116150000Y-147455000D02*
X114347286Y-147455000D01*
X114347286Y-147455000D02*
X112281824Y-145389538D01*
X110021000Y-145050538D02*
X110021000Y-143474506D01*
X112281824Y-145389538D02*
X110360000Y-145389538D01*
%TO.N,Net-(Q36-Pad3)*%
X129287500Y-151060000D02*
X129287500Y-150467500D01*
X120397500Y-136747500D02*
X118950000Y-136747500D01*
X129287500Y-150467500D02*
X127441000Y-148621000D01*
X127441000Y-148621000D02*
X127441000Y-145221000D01*
X127441000Y-145221000D02*
X123560000Y-141340000D01*
X123560000Y-139910000D02*
X120397500Y-136747500D01*
X123560000Y-141340000D02*
X123560000Y-139910000D01*
%TO.N,/cell circuit2/cell up rx*%
X27730000Y-153490000D02*
X27930000Y-153290000D01*
X39727500Y-139020000D02*
X38417199Y-139020000D01*
X27730000Y-156258750D02*
X27177500Y-156811250D01*
X27730000Y-154941250D02*
X27730000Y-156258750D01*
X40050000Y-138697500D02*
X39727500Y-139020000D01*
X27730000Y-154941250D02*
X27730000Y-153490000D01*
%TO.N,/cell circuit2/cell up tx*%
X50400000Y-130227500D02*
X48822500Y-130227500D01*
X48822500Y-130227500D02*
X48600000Y-130005000D01*
X47815710Y-130005000D02*
X47781000Y-130039710D01*
X35650000Y-142520000D02*
X35920000Y-142250000D01*
X35650000Y-143432500D02*
X35650000Y-142520000D01*
X48600000Y-130005000D02*
X47815710Y-130005000D01*
%TO.N,/cell circuit2/SDA*%
X33632968Y-145014000D02*
X31958191Y-145014000D01*
X31145144Y-147026436D02*
X29491000Y-148680580D01*
X31958191Y-145014000D02*
X31145144Y-145827047D01*
X28893501Y-150041000D02*
X27855750Y-150041000D01*
X35847000Y-145782500D02*
X34401468Y-145782500D01*
X29491000Y-149443501D02*
X28893501Y-150041000D01*
X29491000Y-148680580D02*
X29491000Y-149443501D01*
X31145144Y-145827047D02*
X31145144Y-147026436D01*
X27855750Y-150041000D02*
X26460000Y-148645250D01*
X34401468Y-145782500D02*
X33632968Y-145014000D01*
X26460000Y-148645250D02*
X26460000Y-147641250D01*
%TO.N,Net-(U4-Event)*%
X50000000Y-142620002D02*
X49991498Y-142611500D01*
X49991498Y-142611500D02*
X49738500Y-142611500D01*
X55925000Y-133383561D02*
X55208203Y-132666764D01*
X49738500Y-142611500D02*
X49132500Y-143217500D01*
X46980000Y-143492500D02*
X48255000Y-143492500D01*
X55208203Y-132666764D02*
X55208203Y-132599334D01*
X49132500Y-143217500D02*
X48380000Y-143217500D01*
X55925000Y-134520000D02*
X55925000Y-133383561D01*
%TO.N,Net-(Q37-D)*%
X103662500Y-181760000D02*
X103662500Y-182068916D01*
X110370000Y-167760000D02*
X110370000Y-168130000D01*
X103662500Y-182068916D02*
X104135006Y-182541422D01*
X110750000Y-167380000D02*
X110370000Y-167760000D01*
%TO.N,Net-(U6-Event)*%
X59960000Y-163052500D02*
X60862500Y-162150000D01*
X40376004Y-157675000D02*
X40000000Y-158051004D01*
X51504000Y-165696000D02*
X54147500Y-163052500D01*
X54147500Y-163052500D02*
X59050000Y-163052500D01*
X43846000Y-165696000D02*
X51504000Y-165696000D01*
X59050000Y-163052500D02*
X59960000Y-163052500D01*
X41025000Y-157675000D02*
X40376004Y-157675000D01*
X40000000Y-158051004D02*
X40000000Y-161850000D01*
X40000000Y-161850000D02*
X43846000Y-165696000D01*
%TO.N,Net-(U16-Event)*%
X118039472Y-156910528D02*
X118039472Y-158428372D01*
X122862500Y-151007500D02*
X122862500Y-152087500D01*
X123000000Y-151897500D02*
X123222500Y-152120000D01*
X118039472Y-158428372D02*
X118136397Y-158525297D01*
X123000000Y-151007500D02*
X123000000Y-151897500D01*
X114552976Y-166682977D02*
X115432499Y-167562500D01*
X115432499Y-167562500D02*
X116427000Y-167562500D01*
X122862500Y-152087500D02*
X118039472Y-156910528D01*
%TO.N,Net-(U2-Event)*%
X42450000Y-149892500D02*
X42137500Y-149580000D01*
X40376104Y-143956500D02*
X42226500Y-143956500D01*
X42450000Y-150802500D02*
X42450000Y-149892500D01*
X38651000Y-145681604D02*
X40376104Y-143956500D01*
X43792550Y-145522550D02*
X43792550Y-147924950D01*
X35847000Y-147082500D02*
X37272001Y-147082500D01*
X37272001Y-147082500D02*
X38651000Y-145703501D01*
X38651000Y-145703501D02*
X38651000Y-145681604D01*
X43792550Y-147924950D02*
X42137500Y-149580000D01*
X42226500Y-143956500D02*
X43792550Y-145522550D01*
%TO.N,Net-(Q40-Pad3)*%
X121556250Y-149143750D02*
X123938750Y-149143750D01*
%TO.N,Net-(Q41-Pad3)*%
X105015000Y-166032500D02*
X105490001Y-165557499D01*
X103830000Y-166032500D02*
X105015000Y-166032500D01*
%TO.N,Net-(Q42-D)*%
X102692500Y-140730513D02*
X102692500Y-141740000D01*
X111200000Y-151739000D02*
X111150931Y-151689931D01*
X111200000Y-152550000D02*
X111200000Y-151739000D01*
X102736001Y-140687012D02*
X102692500Y-140730513D01*
%TO.N,Net-(U18-Event)*%
X111166509Y-147025000D02*
X111574075Y-146617434D01*
X95647498Y-156230002D02*
X95647498Y-156969998D01*
X110310000Y-147025000D02*
X111166509Y-147025000D01*
X95647498Y-156969998D02*
X96080000Y-157402500D01*
X95647498Y-155533752D02*
X96090000Y-155091250D01*
X95647498Y-156230002D02*
X95647498Y-155533752D01*
%TO.N,Net-(Q45-Pad3)*%
X95130000Y-159380000D02*
X94020000Y-160490000D01*
%TO.N,Net-(Q46-Pad3)*%
X80790000Y-173187500D02*
X80790000Y-176163750D01*
%TO.N,Net-(Q47-D)*%
X99680000Y-171430000D02*
X99190000Y-170940000D01*
X100000000Y-171430000D02*
X99680000Y-171430000D01*
%TO.N,Net-(Q50-Pad3)*%
X85050000Y-170780000D02*
X86040000Y-169790000D01*
X85050000Y-171653750D02*
X85050000Y-170780000D01*
%TO.N,Net-(U20-Event)*%
X84382501Y-174670000D02*
X84382501Y-173811251D01*
X84100000Y-173528750D02*
X84809750Y-172819000D01*
X84382501Y-173811251D02*
X84100000Y-173528750D01*
X98983000Y-166637500D02*
X100073579Y-166637500D01*
X100073579Y-166637500D02*
X100085784Y-166625295D01*
X84809750Y-172819000D02*
X84972251Y-172819000D01*
%TO.N,Net-(Q51-Pad3)*%
X113742500Y-170620000D02*
X112607500Y-170620000D01*
%TO.N,Net-(Q52-D)*%
X107850000Y-184082500D02*
X108600000Y-184832500D01*
X107850000Y-183830000D02*
X107850000Y-184082500D01*
%TO.N,Net-(U22-Event)*%
X115000000Y-187195000D02*
X113815000Y-187195000D01*
X119120000Y-176410000D02*
X119120000Y-175402500D01*
X118930000Y-173998750D02*
X118930000Y-174987500D01*
X113815000Y-187195000D02*
X113610000Y-187400000D01*
X118930000Y-174987500D02*
X119232500Y-175290000D01*
%TO.N,Net-(Q55-Pad3)*%
X119950000Y-170270000D02*
X119950000Y-172053750D01*
%TO.N,Net-(Q56-Pad3)*%
X110440000Y-185157500D02*
X110440000Y-185514999D01*
X116644001Y-191719000D02*
X124145524Y-191719000D01*
X124145524Y-191719000D02*
X125422500Y-190442024D01*
X110440000Y-185514999D02*
X116644001Y-191719000D01*
X125422500Y-190442024D02*
X125422500Y-189170000D01*
%TO.N,Net-(Q57-D)*%
X113587500Y-205680000D02*
X114810000Y-205680000D01*
%TO.N,Net-(Q60-Pad3)*%
X121172500Y-189970000D02*
X120902500Y-189700000D01*
X120902500Y-189700000D02*
X119830000Y-189700000D01*
%TO.N,Net-(U24-Event)*%
X123877500Y-190650000D02*
X123317500Y-190650000D01*
X114065000Y-199660000D02*
X114065000Y-200308996D01*
X123317500Y-190650000D02*
X123047500Y-190920000D01*
X114065000Y-200308996D02*
X115356006Y-201600002D01*
X121767550Y-190888135D02*
X123015635Y-190888135D01*
X115356006Y-201600002D02*
X115450000Y-201600002D01*
%TO.N,/cell circuit2/CMGND*%
X41847000Y-147732500D02*
X41847000Y-146432500D01*
X28372500Y-156811250D02*
X28372500Y-157881250D01*
X41620000Y-162107500D02*
X42420000Y-162107500D01*
X28372500Y-159061250D02*
X28372500Y-158001250D01*
X25811250Y-146051250D02*
X26798750Y-146051250D01*
X42050001Y-145579499D02*
X42050001Y-144860000D01*
X28372500Y-155993750D02*
X28372500Y-156811250D01*
X41847000Y-145782500D02*
X42050001Y-145579499D01*
X43011550Y-146980966D02*
X41847000Y-146980966D01*
X29000000Y-155366250D02*
X28372500Y-155993750D01*
X29000000Y-153850000D02*
X29400000Y-153450000D01*
X28372500Y-159061250D02*
X28372500Y-159822500D01*
X41847000Y-145782500D02*
X41847000Y-146432500D01*
X42450000Y-162077500D02*
X42450000Y-161900000D01*
X42420000Y-162107500D02*
X42450000Y-162077500D01*
X42420000Y-162107500D02*
X42972500Y-162660000D01*
X26798750Y-146051250D02*
X26850000Y-146000000D01*
X28372500Y-159822500D02*
X28550000Y-160000000D01*
X32171000Y-146089000D02*
X31987692Y-146089000D01*
X40700500Y-148879000D02*
X41847000Y-147732500D01*
X32640000Y-145620000D02*
X32171000Y-146089000D01*
X29000000Y-154941250D02*
X29000000Y-153850000D01*
X39537500Y-149070000D02*
X39728500Y-148879000D01*
X39728500Y-148879000D02*
X40700500Y-148879000D01*
X41847000Y-146980966D02*
X41847000Y-145782500D01*
%TO.N,/cell circuit3/cell plus*%
X49957500Y-127392500D02*
X50300000Y-127050000D01*
X49957500Y-127465000D02*
X50390000Y-127897500D01*
X55275000Y-134520000D02*
X55275000Y-135057500D01*
X45080000Y-143492500D02*
X45080000Y-137940000D01*
X58362500Y-133350000D02*
X58362500Y-133959193D01*
X59300000Y-136200000D02*
X60790000Y-136200000D01*
X36540000Y-138910000D02*
X35550000Y-139900000D01*
X35600000Y-138797500D02*
X36670000Y-138797500D01*
X54320000Y-136012500D02*
X54007500Y-136012500D01*
X52400000Y-137620000D02*
X52400000Y-133320000D01*
X37112500Y-134377500D02*
X37070000Y-134420000D01*
X58150000Y-136100000D02*
X57450000Y-136800000D01*
X48600000Y-127465000D02*
X49957500Y-127465000D01*
X58362500Y-133959193D02*
X58066499Y-134255194D01*
X49957500Y-127465000D02*
X49957500Y-127392500D01*
X55275000Y-135057500D02*
X54320000Y-136012500D01*
X59200000Y-136100000D02*
X58150000Y-136100000D01*
X37112500Y-133560000D02*
X37112500Y-134377500D01*
X54007500Y-136012500D02*
X52400000Y-137620000D01*
X51597500Y-130100000D02*
X51597500Y-132517500D01*
X48290000Y-142332500D02*
X48290000Y-140510000D01*
%TO.N,/cell circuit12/cell plus*%
X111050000Y-191960000D02*
X112790000Y-191960000D01*
X112790000Y-191960000D02*
X113850000Y-191960000D01*
X115760000Y-197167500D02*
X117282500Y-197167500D01*
X128120000Y-186217500D02*
X129587500Y-186217500D01*
X114715000Y-199660000D02*
X114715000Y-198212500D01*
X117850000Y-196600000D02*
X117850000Y-200900000D01*
X112360000Y-196360000D02*
X112710000Y-196010000D01*
X123817500Y-189020000D02*
X124170000Y-189372500D01*
X123047500Y-189020000D02*
X123817500Y-189020000D01*
X130140000Y-196347500D02*
X131210000Y-196347500D01*
X114715000Y-198212500D02*
X115760000Y-197167500D01*
X127370000Y-188220000D02*
X128260000Y-187330000D01*
X127010000Y-186227500D02*
X128110000Y-186227500D01*
X122807500Y-188780000D02*
X121820000Y-188780000D01*
X123047500Y-189020000D02*
X122807500Y-188780000D01*
X110310000Y-192700000D02*
X111050000Y-191960000D01*
X130140000Y-196347500D02*
X125102500Y-196347500D01*
X112790000Y-191960000D02*
X112790000Y-192150000D01*
X128120000Y-187190000D02*
X128260000Y-187330000D01*
X129587500Y-186217500D02*
X129955000Y-185850000D01*
X128120000Y-186217500D02*
X128120000Y-187190000D01*
X111777500Y-196360000D02*
X112360000Y-196360000D01*
%TO.N,/cell circuit3/CMGND*%
X37290000Y-142962500D02*
X37632500Y-142962500D01*
X40590000Y-132510000D02*
X40700000Y-132400000D01*
X55275000Y-140520000D02*
X55275000Y-142245002D01*
X37290000Y-142962500D02*
X37290000Y-142482500D01*
X58279836Y-138319000D02*
X57225000Y-139373836D01*
X51617500Y-127950000D02*
X52950000Y-127950000D01*
X52950000Y-127950000D02*
X53000000Y-128000000D01*
X39600000Y-131347500D02*
X41227500Y-131347500D01*
X53700000Y-128700000D02*
X53000000Y-128000000D01*
X55275000Y-140520000D02*
X55275000Y-138102500D01*
X37290000Y-142482500D02*
X37992500Y-141780000D01*
X55275000Y-138102500D02*
X54320000Y-137147500D01*
X39600000Y-131347500D02*
X39600000Y-132437500D01*
X37632500Y-142962500D02*
X38190000Y-143520000D01*
X60790000Y-137500000D02*
X59971000Y-138319000D01*
X54550000Y-128700000D02*
X53700000Y-128700000D01*
X39527500Y-132510000D02*
X40590000Y-132510000D01*
X55275000Y-142245002D02*
X54900000Y-142620002D01*
X55925000Y-140520000D02*
X55275000Y-140520000D01*
X39600000Y-131347500D02*
X38550000Y-131347500D01*
X59971000Y-138319000D02*
X58279836Y-138319000D01*
X56575000Y-140520000D02*
X55925000Y-140520000D01*
X57225000Y-139373836D02*
X57225000Y-140520000D01*
X57225000Y-140520000D02*
X56575000Y-140520000D01*
%TO.N,/cell circuit3/SCL{slash}VCELL*%
X37332500Y-131510000D02*
X38332500Y-132510000D01*
X41300000Y-128735000D02*
X44850000Y-128735000D01*
X56575000Y-132929060D02*
X56262072Y-132616132D01*
X38332500Y-132510000D02*
X38332500Y-133535000D01*
X37332500Y-131297410D02*
X39894910Y-128735000D01*
X39894910Y-128735000D02*
X41300000Y-128735000D01*
X56575000Y-134520000D02*
X56575000Y-132929060D01*
%TO.N,/cell circuit12/CMGND*%
X124397500Y-185090000D02*
X124397500Y-185888501D01*
X114715000Y-193660000D02*
X114715000Y-191635000D01*
X114065000Y-193660000D02*
X114715000Y-193660000D01*
X124397500Y-185090000D02*
X125387500Y-185090000D01*
X115760000Y-196032500D02*
X114715000Y-194987500D01*
X116900000Y-205120000D02*
X117513968Y-205120000D01*
X117513968Y-205120000D02*
X117959971Y-204673997D01*
X133250000Y-196327500D02*
X132280000Y-196327500D01*
X114715000Y-194987500D02*
X114715000Y-193660000D01*
X113970000Y-190660000D02*
X114830000Y-191520000D01*
X133765000Y-191895000D02*
X133640000Y-191770000D01*
X114715000Y-191635000D02*
X114830000Y-191520000D01*
X133765000Y-193150000D02*
X133765000Y-191895000D01*
X124397500Y-185888501D02*
X124250000Y-186036001D01*
X134370000Y-196367500D02*
X133290000Y-196367500D01*
X125387500Y-185090000D02*
X125640000Y-185342500D01*
X128120000Y-185082500D02*
X128688500Y-185082500D01*
X134370000Y-196367500D02*
X134370000Y-197350000D01*
X134250000Y-197470000D02*
X134370000Y-197350000D01*
X128688500Y-185082500D02*
X128976000Y-185370000D01*
X113415000Y-193660000D02*
X112765000Y-193660000D01*
X114065000Y-193660000D02*
X113415000Y-193660000D01*
%TO.N,/cell circuit12/SCL{slash}VCELL*%
X132250000Y-195162500D02*
X133220000Y-195162500D01*
X113415000Y-200855002D02*
X113415000Y-199660000D01*
X114160000Y-201600002D02*
X113415000Y-200855002D01*
X131270000Y-195212500D02*
X132200000Y-195212500D01*
X131225000Y-192235000D02*
X130490000Y-191500000D01*
X131225000Y-193150000D02*
X131225000Y-192235000D01*
X131225000Y-193150000D02*
X131225000Y-195167500D01*
%TO.N,/cell circuit13/CMGND*%
X99202500Y-204690000D02*
X99202500Y-203680000D01*
X98410000Y-203620000D02*
X98000000Y-204030000D01*
X110287500Y-200412500D02*
X110390000Y-200310000D01*
X109270000Y-200412500D02*
X110287500Y-200412500D01*
X92255000Y-191764998D02*
X92420000Y-191599998D01*
X92255000Y-193650000D02*
X92255000Y-191764998D01*
X99317500Y-207287500D02*
X99310000Y-207280000D01*
X92255000Y-195237500D02*
X93160000Y-196142500D01*
X108600000Y-197147500D02*
X108600000Y-197620000D01*
X91605000Y-193650000D02*
X92255000Y-193650000D01*
X100290000Y-207287500D02*
X99317500Y-207287500D01*
X99142500Y-203620000D02*
X98410000Y-203620000D01*
X90955000Y-193650000D02*
X91605000Y-193650000D01*
X102130000Y-207185000D02*
X100392500Y-207185000D01*
X108600000Y-197620000D02*
X107960000Y-198260000D01*
X108600000Y-197147500D02*
X109740000Y-197147500D01*
X92255000Y-193650000D02*
X92255000Y-195237500D01*
X90305000Y-193650000D02*
X90955000Y-193650000D01*
%TO.N,/cell circuit13/SCL{slash}VCELL*%
X100337500Y-204690000D02*
X100337500Y-203620000D01*
X90955000Y-199650000D02*
X90955000Y-200298996D01*
X99646500Y-205381000D02*
X100337500Y-204690000D01*
X100337500Y-204690000D02*
X102085000Y-204690000D01*
X100337500Y-203620000D02*
X100337500Y-202560000D01*
X96037004Y-205381000D02*
X99646500Y-205381000D01*
X90955000Y-200298996D02*
X96037004Y-205381000D01*
%TO.N,/cell circuit3/DN TX{slash}RST*%
X41300000Y-127465000D02*
X40446490Y-127465000D01*
X37172490Y-130739000D02*
X36897982Y-130739000D01*
X35758750Y-137602500D02*
X36381250Y-136980000D01*
X36190000Y-136417500D02*
X36782500Y-137010000D01*
X36897982Y-130739000D02*
X36190000Y-131446982D01*
X36190000Y-131446982D02*
X36190000Y-136417500D01*
X40446490Y-127465000D02*
X37172490Y-130739000D01*
%TO.N,/cell circuit3/UP TX*%
X54325001Y-127175001D02*
X54550000Y-127400000D01*
X48231000Y-126269000D02*
X51219000Y-126269000D01*
X47000000Y-130424999D02*
X47000000Y-127500000D01*
X51219000Y-126269000D02*
X52125001Y-127175001D01*
X52125001Y-127175001D02*
X54325001Y-127175001D01*
X47000000Y-127500000D02*
X48231000Y-126269000D01*
X48600000Y-131275000D02*
X47850001Y-131275000D01*
X47850001Y-131275000D02*
X47000000Y-130424999D01*
%TO.N,/cell circuit3/cell_en out*%
X61600000Y-133997500D02*
X62860000Y-135257500D01*
X60237500Y-134300000D02*
X61297500Y-134300000D01*
X62860000Y-135257500D02*
X62860000Y-136780000D01*
X61297500Y-134300000D02*
X61600000Y-133997500D01*
%TO.N,/cell circuit12/DN TX{slash}RST*%
X127297500Y-190120000D02*
X129955000Y-192777500D01*
X129955000Y-193150000D02*
X129955000Y-194967500D01*
%TO.N,/cell circuit12/UP TX*%
X133765000Y-187585000D02*
X133700000Y-187650000D01*
X116900000Y-206420000D02*
X118060000Y-206420000D01*
X133765000Y-185850000D02*
X133765000Y-187585000D01*
X118060000Y-206420000D02*
X118100000Y-206460000D01*
%TO.N,/cell circuit12/cell_en out*%
X109429000Y-194936500D02*
X109902500Y-195410000D01*
X109429000Y-191774506D02*
X109429000Y-194936500D01*
X109893506Y-191310000D02*
X109429000Y-191774506D01*
X109142500Y-195410000D02*
X108600000Y-195952500D01*
X111850000Y-191310000D02*
X109893506Y-191310000D01*
X109902500Y-195410000D02*
X109142500Y-195410000D01*
%TO.N,/cell circuit13/DN TX{slash}RST*%
X120232500Y-204190000D02*
X119970000Y-204452500D01*
X121202500Y-204190000D02*
X120232500Y-204190000D01*
X122083500Y-205163500D02*
X122083500Y-206464104D01*
X122083500Y-206464104D02*
X120656604Y-207891000D01*
X121202500Y-204282500D02*
X122083500Y-205163500D01*
X104075000Y-203375000D02*
X102130000Y-203375000D01*
X120656604Y-207891000D02*
X108591000Y-207891000D01*
X108591000Y-207891000D02*
X104075000Y-203375000D01*
%TO.N,/cell circuit3/cell up rx*%
X46492000Y-127289580D02*
X48020580Y-125761000D01*
X39600000Y-130152500D02*
X41152500Y-130152500D01*
X46492000Y-128503499D02*
X46492000Y-127289580D01*
X48020580Y-125761000D02*
X51853500Y-125761000D01*
X44990499Y-130005000D02*
X46492000Y-128503499D01*
X51853500Y-125761000D02*
X52532500Y-126440000D01*
X41300000Y-130005000D02*
X44990499Y-130005000D01*
%TO.N,/cell circuit3/cell up tx*%
X68807900Y-129075000D02*
X68799672Y-129066772D01*
X57610002Y-130300000D02*
X58102500Y-130300000D01*
X57650000Y-129357500D02*
X57650000Y-130260002D01*
X71920000Y-129075000D02*
X68807900Y-129075000D01*
X57650000Y-130260002D02*
X57610002Y-130300000D01*
X58102500Y-130300000D02*
X58890000Y-131087500D01*
%TO.N,/cell circuit12/cell up rx*%
X133948999Y-194394000D02*
X134370000Y-194815001D01*
X132495000Y-193403128D02*
X133485872Y-194394000D01*
X132495000Y-193150000D02*
X132495000Y-191615000D01*
X125857500Y-204990000D02*
X126490000Y-204990000D01*
X132495000Y-191615000D02*
X132440000Y-191560000D01*
X133485872Y-194394000D02*
X133948999Y-194394000D01*
X134370000Y-194815001D02*
X134370000Y-195172500D01*
X126490000Y-204990000D02*
X126960000Y-204520000D01*
%TO.N,/cell circuit12/cell up tx*%
X112095000Y-205915000D02*
X109430000Y-205915000D01*
X112330000Y-205680000D02*
X112095000Y-205915000D01*
X112687500Y-203870000D02*
X112687500Y-205385000D01*
X112687500Y-205385000D02*
X112392500Y-205680000D01*
%TO.N,/cell circuit3/SDA*%
X53958441Y-129208000D02*
X57225000Y-132474559D01*
X57225000Y-132474559D02*
X57225000Y-134520000D01*
X49073000Y-129208000D02*
X53958441Y-129208000D01*
X48600000Y-128735000D02*
X49073000Y-129208000D01*
%TO.N,/cell circuit12/SDA*%
X131225000Y-186845000D02*
X130780000Y-187290000D01*
X131225000Y-185850000D02*
X131225000Y-186845000D01*
X112310000Y-199660000D02*
X111370000Y-198720000D01*
X112765000Y-199660000D02*
X112310000Y-199660000D01*
%TO.N,/cell circuit13/SDA*%
X90305000Y-199650000D02*
X90305000Y-201155002D01*
X109430000Y-204645000D02*
X107685000Y-204645000D01*
X107685000Y-204645000D02*
X107570000Y-204760000D01*
X90305000Y-201155002D02*
X90750000Y-201600002D01*
%TO.N,Net-(Q13-Pad3)*%
X124662500Y-204990000D02*
X123227500Y-204990000D01*
%TO.N,Net-(U26-Event)*%
X91605000Y-199650000D02*
X91605000Y-196248996D01*
X89736500Y-194380496D02*
X89736500Y-192893500D01*
X89736500Y-192893500D02*
X91870000Y-190760000D01*
X101092500Y-190760000D02*
X102630000Y-189222500D01*
X91605000Y-196248996D02*
X89736500Y-194380496D01*
X102630000Y-189222500D02*
X103550000Y-189222500D01*
X91870000Y-190760000D02*
X101092500Y-190760000D01*
X103550000Y-189222500D02*
X103882500Y-188890000D01*
%TO.N,Net-(Q62-Pad3)*%
X105757500Y-189840000D02*
X107210000Y-191292500D01*
X107210000Y-191292500D02*
X107210000Y-192700000D01*
%TO.N,Net-(U25-XTAL2{slash}PB4)*%
X100290000Y-206092500D02*
X101952500Y-206092500D01*
%TO.N,/cell circuit4/cell plus*%
X58932500Y-128340000D02*
X60850000Y-128340000D01*
X60430000Y-142808750D02*
X60430000Y-143717500D01*
X62160000Y-127352500D02*
X62447500Y-127065000D01*
X81092500Y-132840000D02*
X80410000Y-132840000D01*
X80410000Y-132840000D02*
X80070000Y-132500000D01*
X82740000Y-128770000D02*
X82740000Y-129028420D01*
X60850000Y-128340000D02*
X60604000Y-128340000D01*
X72345000Y-126535000D02*
X73060000Y-127250000D01*
X81160000Y-135540000D02*
X80200000Y-136500000D01*
X60430000Y-142808750D02*
X61241250Y-142808750D01*
X60604000Y-128340000D02*
X60600000Y-128344000D01*
X62447500Y-126050000D02*
X62447500Y-127065000D01*
X60430000Y-143717500D02*
X60087500Y-144060000D01*
X73060000Y-127250000D02*
X73952500Y-127250000D01*
X75100000Y-137620000D02*
X75100000Y-133320000D01*
X81092500Y-130675920D02*
X81092500Y-132840000D01*
X58890000Y-129892500D02*
X58890000Y-128382500D01*
X61244910Y-128340000D02*
X62160000Y-127424910D01*
X60850000Y-128340000D02*
X61244910Y-128340000D01*
X82740000Y-129028420D02*
X81092500Y-130675920D01*
X73040088Y-127042689D02*
X73065973Y-127042689D01*
X77250000Y-135442500D02*
X75100000Y-137592500D01*
X72532399Y-126535000D02*
X73040088Y-127042689D01*
X77342500Y-135442500D02*
X78195000Y-134590000D01*
X61241250Y-142808750D02*
X61250000Y-142800000D01*
X82510000Y-135540000D02*
X81160000Y-135540000D01*
%TO.N,/cell circuit5/cell plus*%
X85070000Y-126882500D02*
X83377500Y-126882500D01*
X85793090Y-145120000D02*
X86349000Y-144564090D01*
X85497500Y-145120000D02*
X86744000Y-146366500D01*
X86320000Y-149920000D02*
X86320000Y-146790500D01*
X80427500Y-146042500D02*
X80240000Y-146230000D01*
X83752500Y-142087500D02*
X84180000Y-141660000D01*
X80427500Y-145330000D02*
X80427500Y-146042500D01*
X94229884Y-127032033D02*
X95157384Y-127032033D01*
X94229884Y-127032033D02*
X92687967Y-127032033D01*
X79699000Y-148299001D02*
X79699000Y-146771000D01*
X83377500Y-126882500D02*
X83270000Y-126990000D01*
X86320000Y-146790500D02*
X86744000Y-146366500D01*
X96019884Y-127894533D02*
X96019884Y-129039533D01*
X87518500Y-146366500D02*
X87600000Y-146285000D01*
X82080000Y-127237500D02*
X83022500Y-127237500D01*
X83350000Y-142087500D02*
X83350000Y-143087500D01*
X92687967Y-127032033D02*
X92650000Y-127070000D01*
X87300000Y-143682178D02*
X89739935Y-143682178D01*
X86744000Y-146366500D02*
X87518500Y-146366500D01*
X80429999Y-149030000D02*
X79699000Y-148299001D01*
X79699000Y-146771000D02*
X80240000Y-146230000D01*
X83350000Y-143087500D02*
X83117500Y-143320000D01*
X83350000Y-142087500D02*
X83752500Y-142087500D01*
X85497500Y-145120000D02*
X85793090Y-145120000D01*
X82080000Y-127237500D02*
X81550000Y-127767500D01*
X86349000Y-144564090D02*
X86349000Y-143720910D01*
X89739935Y-143682178D02*
X91706922Y-145649165D01*
X95157384Y-127032033D02*
X96019884Y-127894533D01*
X83022500Y-127237500D02*
X83270000Y-126990000D01*
X81550000Y-127767500D02*
X80750000Y-127767500D01*
%TO.N,/cell circuit6/cell plus*%
X84237822Y-164630000D02*
X82950000Y-163342178D01*
X73652500Y-150660000D02*
X73652500Y-151375000D01*
X89800000Y-164312500D02*
X88987500Y-164312500D01*
X74832500Y-163000000D02*
X73677500Y-163000000D01*
X74832500Y-163000000D02*
X74832500Y-162032500D01*
X85687500Y-154880000D02*
X85687500Y-155347500D01*
X74164799Y-151172299D02*
X74633199Y-151172299D01*
X89360000Y-161540000D02*
X87887757Y-161540000D01*
X73652500Y-151375000D02*
X74477500Y-152200000D01*
X73652500Y-150660000D02*
X74164799Y-151172299D01*
X85687500Y-155347500D02*
X86140000Y-155800000D01*
X82940000Y-169600000D02*
X83840000Y-168700000D01*
X74832500Y-162032500D02*
X74650000Y-161850000D01*
X82950000Y-163342178D02*
X85783013Y-160509165D01*
X82150000Y-167640000D02*
X82145000Y-167635000D01*
X73575000Y-161230000D02*
X73575000Y-162897500D01*
X88987500Y-164312500D02*
X88740000Y-164560000D01*
X85142500Y-164630000D02*
X84237822Y-164630000D01*
X85142500Y-164647500D02*
X82150000Y-167640000D01*
X82145000Y-167635000D02*
X81330000Y-167635000D01*
X72637500Y-149645000D02*
X73652500Y-150660000D01*
X85770000Y-153637500D02*
X85770000Y-154797500D01*
%TO.N,/cell circuit7/cell plus*%
X98334004Y-165987500D02*
X97520752Y-166800752D01*
X96945000Y-173930000D02*
X96945000Y-172317500D01*
X86000000Y-174247501D02*
X85577501Y-174670000D01*
X96930000Y-165437500D02*
X96302500Y-165437500D01*
X84000000Y-175902502D02*
X83341252Y-175902502D01*
X84000000Y-175902502D02*
X89762502Y-175902502D01*
X95697500Y-184177500D02*
X95690000Y-184170000D01*
X98983000Y-165987500D02*
X98334004Y-165987500D01*
X97012500Y-172250000D02*
X97976500Y-171286000D01*
X83341252Y-175902502D02*
X82658750Y-175220000D01*
X97976500Y-171286000D02*
X98230000Y-171286000D01*
X99480000Y-165129999D02*
X99480000Y-165490500D01*
X91860065Y-170877822D02*
X89893078Y-168910835D01*
X82658750Y-175220000D02*
X82658750Y-174261250D01*
X96507500Y-167814004D02*
X96507500Y-168800000D01*
X86000000Y-173528750D02*
X86000000Y-174247501D01*
X82430000Y-173267500D02*
X82430000Y-173950000D01*
X96302500Y-165437500D02*
X95860000Y-165880000D01*
X85577501Y-174670000D02*
X88530000Y-174670000D01*
X94300000Y-170877822D02*
X91860065Y-170877822D01*
X82658750Y-174261250D02*
X82700000Y-174220000D01*
X94020000Y-163590000D02*
X94020000Y-164720000D01*
X94020000Y-164720000D02*
X93970000Y-164770000D01*
X96710000Y-184177500D02*
X95697500Y-184177500D01*
X99480000Y-165490500D02*
X98983000Y-165987500D01*
X97520752Y-166800752D02*
X96507500Y-167814004D01*
X82430000Y-173950000D02*
X82700000Y-174220000D01*
X97520752Y-166800752D02*
X97425752Y-166895752D01*
%TO.N,/cell circuit8/cell plus*%
X104027502Y-163170000D02*
X104540001Y-163682499D01*
X109140000Y-144400000D02*
X107530000Y-146010000D01*
X94452498Y-156230002D02*
X93490002Y-156230002D01*
X107587500Y-149330000D02*
X108670000Y-149330000D01*
X105317501Y-163682499D02*
X105380000Y-163620000D01*
X105650000Y-151217822D02*
X103210065Y-151217822D01*
X107542500Y-165267500D02*
X107470000Y-165340000D01*
X108670000Y-149330000D02*
X108970000Y-149630000D01*
X104540001Y-162812499D02*
X104962500Y-162390000D01*
X107587500Y-148173000D02*
X108635250Y-147125250D01*
X103567500Y-163170000D02*
X104027502Y-163170000D01*
X111903750Y-149380000D02*
X110875498Y-149380000D01*
X108415000Y-156495000D02*
X108410000Y-156500000D01*
X94452498Y-157130002D02*
X94180000Y-157402500D01*
X104540001Y-163682499D02*
X104540001Y-162812499D01*
X108415000Y-155100000D02*
X108415000Y-156495000D01*
X107530000Y-146010000D02*
X107530000Y-146520000D01*
X103210065Y-151217822D02*
X101243078Y-149250835D01*
X108222500Y-153480000D02*
X108222500Y-154907500D01*
X108635250Y-147125250D02*
X109385500Y-146375000D01*
X109385500Y-146375000D02*
X110310000Y-146375000D01*
X104540001Y-163682499D02*
X105317501Y-163682499D01*
X93490002Y-156230002D02*
X93395000Y-156135000D01*
X110875498Y-149380000D02*
X110862749Y-149392749D01*
X108635250Y-147125250D02*
X108535250Y-147225250D01*
X94452498Y-156230002D02*
X94452498Y-157130002D01*
X107587500Y-149330000D02*
X107587500Y-148173000D01*
X108570000Y-165267500D02*
X107542500Y-165267500D01*
%TO.N,/cell circuit10/cell minus*%
X123572500Y-146520000D02*
X123572500Y-146202500D01*
X110268750Y-131357500D02*
X111008750Y-131357500D01*
X107232500Y-140392500D02*
X107525000Y-140100000D01*
X118427822Y-145110000D02*
X117000000Y-143682178D01*
X101238750Y-144607500D02*
X102178750Y-144607500D01*
X118732500Y-146171496D02*
X116798996Y-148105000D01*
X107800000Y-140100000D02*
X108450000Y-140750000D01*
X120906922Y-143166922D02*
X120906922Y-140849165D01*
X110192500Y-131357500D02*
X109450000Y-132100000D01*
X118732500Y-145110000D02*
X118732500Y-146171496D01*
X102571250Y-144627457D02*
X103187162Y-144011545D01*
X107232500Y-141750000D02*
X106197500Y-141750000D01*
X108560000Y-129990000D02*
X109450000Y-129100000D01*
X117000000Y-143682178D02*
X119833013Y-140849165D01*
X116798996Y-148105000D02*
X116150000Y-148105000D01*
X102571250Y-145000000D02*
X102571250Y-144627457D01*
X123572500Y-146202500D02*
X122490000Y-145120000D01*
X111008750Y-131357500D02*
X111491250Y-131840000D01*
X107525000Y-140100000D02*
X107800000Y-140100000D01*
X107232500Y-141750000D02*
X107232500Y-140392500D01*
X118120000Y-149370000D02*
X119360000Y-148130000D01*
X118732500Y-145110000D02*
X118427822Y-145110000D01*
X121440000Y-143700000D02*
X120906922Y-143166922D01*
X102178750Y-144607500D02*
X102571250Y-145000000D01*
%TO.N,/cell circuit10/cell plus*%
X122680000Y-170270000D02*
X121920000Y-169510000D01*
X118882500Y-166405996D02*
X117075996Y-168212500D01*
X118742500Y-165130000D02*
X115990000Y-165130000D01*
X120697500Y-160677500D02*
X121350000Y-161330000D01*
X117220000Y-169092500D02*
X117527500Y-169092500D01*
X118547500Y-163180000D02*
X118547500Y-161577500D01*
X120290000Y-160677500D02*
X120697500Y-160677500D01*
X124417500Y-152120000D02*
X124417500Y-156847500D01*
X120847500Y-152202500D02*
X120450000Y-152600000D01*
X123789935Y-163342178D02*
X125756922Y-165309165D01*
X117075996Y-168212500D02*
X116427000Y-168212500D01*
X119447500Y-160677500D02*
X118565000Y-161560000D01*
X126958750Y-151867500D02*
X127191250Y-152100000D01*
X124900000Y-151007500D02*
X124900000Y-151637500D01*
X118882500Y-165270000D02*
X118882500Y-166405996D01*
X120290000Y-160677500D02*
X119447500Y-160677500D01*
X124900000Y-151637500D02*
X124417500Y-152120000D01*
X117527500Y-169092500D02*
X118850000Y-167770000D01*
X120847500Y-151600000D02*
X120847500Y-152202500D01*
X121350000Y-163342178D02*
X123789935Y-163342178D01*
X121350000Y-161330000D02*
X121350000Y-163342178D01*
X125787500Y-152120000D02*
X126040000Y-151867500D01*
X126040000Y-151867500D02*
X126958750Y-151867500D01*
X124417500Y-152120000D02*
X125787500Y-152120000D01*
%TO.N,/cell circuit11/cell plus*%
X115785000Y-187845000D02*
X117000000Y-186630000D01*
X110732500Y-171570000D02*
X113500000Y-174337500D01*
X107797500Y-168997500D02*
X108220000Y-169420000D01*
X109370000Y-171157500D02*
X110320000Y-171157500D01*
X120830000Y-174887500D02*
X120427500Y-175290000D01*
X122997757Y-182260000D02*
X120906922Y-180169165D01*
X108682500Y-182350000D02*
X108222500Y-181890000D01*
X110320000Y-171157500D02*
X110732500Y-171570000D01*
X120427500Y-176267500D02*
X120450000Y-176290000D01*
X108222500Y-181890000D02*
X107507500Y-181890000D01*
X107525000Y-180070000D02*
X107525000Y-181872500D01*
X116660000Y-188720000D02*
X115785000Y-187845000D01*
X122522500Y-186040000D02*
X122522500Y-185132500D01*
X122522500Y-185132500D02*
X122430000Y-185040000D01*
X123810000Y-182260000D02*
X122997757Y-182260000D01*
X120830000Y-173998750D02*
X120830000Y-174887500D01*
X108682500Y-182350000D02*
X108682500Y-181517500D01*
X108682500Y-181517500D02*
X108950000Y-181250000D01*
X107797500Y-168560000D02*
X107797500Y-168997500D01*
X115785000Y-187845000D02*
X115000000Y-187845000D01*
X117000000Y-183002178D02*
X119833013Y-180169165D01*
X116660000Y-189770000D02*
X116660000Y-188720000D01*
X117000000Y-186630000D02*
X117000000Y-183002178D01*
X117000000Y-183137500D02*
X118642500Y-184780000D01*
X120427500Y-175290000D02*
X120427500Y-176267500D01*
%TO.N,/cell circuit1/CMGND*%
X61877500Y-149730000D02*
X61877500Y-150890000D01*
X61877500Y-148700000D02*
X61877500Y-149730000D01*
X63600000Y-166760000D02*
X62860000Y-166020000D01*
X58925000Y-148120000D02*
X60062500Y-148120000D01*
X46430000Y-151700000D02*
X48590002Y-151700000D01*
X60680000Y-147502500D02*
X61877500Y-148700000D01*
X49807500Y-153725000D02*
X49807500Y-152917498D01*
X47025000Y-162135002D02*
X46880000Y-162280002D01*
X47290000Y-162690002D02*
X46880000Y-162280002D01*
X47025000Y-158325000D02*
X47025000Y-162135002D01*
X47025000Y-156375000D02*
X47025000Y-158325000D01*
X49807500Y-152917498D02*
X49170000Y-152279998D01*
X43457500Y-159220000D02*
X47005000Y-159220000D01*
X47290000Y-163789999D02*
X47290000Y-162690002D01*
X48590002Y-151700000D02*
X49170000Y-152279998D01*
X60062500Y-148120000D02*
X60680000Y-147502500D01*
X63600000Y-167100000D02*
X63600000Y-166760000D01*
%TO.N,/cell circuit1/SCL{slash}VCELL*%
X58925000Y-150660000D02*
X60492500Y-150660000D01*
X58925000Y-150660000D02*
X56890000Y-150660000D01*
X60762500Y-151980000D02*
X60762500Y-150930000D01*
X42325000Y-157025000D02*
X42520000Y-157220000D01*
X41025000Y-157025000D02*
X42325000Y-157025000D01*
X56890000Y-150660000D02*
X56630000Y-150920000D01*
X60682500Y-149730000D02*
X60682500Y-150850000D01*
X60492500Y-150660000D02*
X60582500Y-150750000D01*
%TO.N,/cell circuit4/CMGND*%
X81440000Y-129554501D02*
X80244304Y-130750197D01*
X78845000Y-140590000D02*
X79495000Y-140590000D01*
X77740000Y-130420000D02*
X77760000Y-130440000D01*
X61197500Y-132400000D02*
X61600000Y-132802500D01*
X78195000Y-142504130D02*
X78349000Y-142658130D01*
X60237500Y-132400000D02*
X60237500Y-132712500D01*
X63450000Y-131067500D02*
X63897500Y-131067500D01*
X75087500Y-127250000D02*
X76650000Y-127250000D01*
X60237500Y-132400000D02*
X61197500Y-132400000D01*
X80244304Y-130750197D02*
X79390000Y-130750197D01*
X61257500Y-131060000D02*
X62452500Y-131060000D01*
X77250000Y-136577500D02*
X78195000Y-137522500D01*
X78195000Y-140590000D02*
X78845000Y-140590000D01*
X60237500Y-132712500D02*
X59600000Y-133350000D01*
X63897500Y-131067500D02*
X64620000Y-130345000D01*
X78195000Y-140590000D02*
X78195000Y-142504130D01*
X78195000Y-137522500D02*
X78195000Y-140590000D01*
X79495000Y-140590000D02*
X80145000Y-140590000D01*
X76780000Y-130420000D02*
X77740000Y-130420000D01*
X81440000Y-128770000D02*
X81440000Y-129554501D01*
X62460000Y-131067500D02*
X63450000Y-131067500D01*
X61297500Y-129900000D02*
X61297500Y-131020000D01*
%TO.N,/cell circuit4/SCL{slash}VCELL*%
X60102500Y-129900000D02*
X60803500Y-129199000D01*
X60803500Y-129199000D02*
X61508500Y-129199000D01*
X62160000Y-128547500D02*
X62902500Y-127805000D01*
X64725500Y-127699500D02*
X67335789Y-127699500D01*
X62902500Y-127805000D02*
X64620000Y-127805000D01*
X79495000Y-134590000D02*
X79495000Y-133845000D01*
X61508500Y-129199000D02*
X62160000Y-128547500D01*
X78781000Y-132387981D02*
X78424182Y-132031163D01*
X78781000Y-133131000D02*
X78781000Y-132387981D01*
X60102500Y-129900000D02*
X60102500Y-131040000D01*
X79495000Y-133845000D02*
X78781000Y-133131000D01*
X67335789Y-127699500D02*
X67950000Y-127085289D01*
%TO.N,/cell circuit6/CMGND*%
X72810000Y-165790000D02*
X72180000Y-165160000D01*
X69862500Y-151120000D02*
X69862500Y-152120000D01*
X75967500Y-163000000D02*
X75967500Y-163552998D01*
X71616500Y-150429000D02*
X70553500Y-150429000D01*
X69765000Y-155445000D02*
X69800000Y-155480000D01*
X87330000Y-166985000D02*
X87330000Y-167635000D01*
X87330000Y-166335000D02*
X87330000Y-166985000D01*
X75967500Y-163552998D02*
X76332251Y-163917749D01*
X89490000Y-162840000D02*
X88648093Y-162840000D01*
X88648093Y-162840000D02*
X88512091Y-162976002D01*
X72120000Y-150932500D02*
X71616500Y-150429000D01*
X69765000Y-153930000D02*
X69765000Y-155445000D01*
X87330000Y-165685000D02*
X87330000Y-166335000D01*
X78552500Y-146280000D02*
X78552500Y-146902500D01*
X70553500Y-150429000D02*
X69862500Y-151120000D01*
X86858093Y-164630000D02*
X88512091Y-162976002D01*
X69802500Y-152180000D02*
X69802500Y-153892500D01*
X86277500Y-164630000D02*
X86858093Y-164630000D01*
X86277500Y-164632500D02*
X87330000Y-165685000D01*
X78552500Y-146280000D02*
X77427500Y-146280000D01*
X78552500Y-146902500D02*
X78870000Y-147220000D01*
%TO.N,/cell circuit6/SCL{slash}VCELL*%
X81330000Y-166335000D02*
X79045000Y-166335000D01*
X72305000Y-155674620D02*
X72410380Y-155780000D01*
X72120000Y-152127500D02*
X71112500Y-151120000D01*
X72305000Y-153930000D02*
X72305000Y-155674620D01*
X72120000Y-152127500D02*
X72120000Y-153745000D01*
X72120000Y-152127500D02*
X73210000Y-152127500D01*
X79045000Y-166335000D02*
X77980000Y-165270000D01*
%TO.N,/cell circuit5/CMGND*%
X85030000Y-130407500D02*
X86495351Y-130407500D01*
X82930000Y-132836001D02*
X82967500Y-132798501D01*
X85932500Y-131552500D02*
X86160000Y-131780000D01*
X96019884Y-126759533D02*
X97049533Y-126759533D01*
X85130000Y-131552500D02*
X85932500Y-131552500D01*
X86495351Y-130407500D02*
X86929884Y-130842033D01*
X80550001Y-147729999D02*
X80695000Y-147585000D01*
X80695000Y-147585000D02*
X81600000Y-147585000D01*
X85030000Y-130407500D02*
X84602851Y-130407500D01*
X85130000Y-131552500D02*
X84020000Y-131552500D01*
X83197500Y-146285000D02*
X81600000Y-146285000D01*
X81600000Y-146285000D02*
X81600000Y-144644443D01*
X97049533Y-126759533D02*
X97110000Y-126820000D01*
X81600000Y-146285000D02*
X81600000Y-146935000D01*
X95300000Y-133870000D02*
X95650000Y-133870000D01*
X81600000Y-146935000D02*
X81600000Y-147585000D01*
X81600000Y-144644443D02*
X81201187Y-144245630D01*
X82967500Y-132798501D02*
X82967500Y-131890000D01*
X81600000Y-147585000D02*
X81600000Y-148235000D01*
X84362500Y-145120000D02*
X83197500Y-146285000D01*
X85030000Y-130407500D02*
X85030000Y-131452500D01*
X95650000Y-133870000D02*
X96110000Y-133410000D01*
X84602851Y-130407500D02*
X83969884Y-129774533D01*
%TO.N,/cell circuit5/SCL{slash}VCELL*%
X88658941Y-147585000D02*
X87600000Y-147585000D01*
X86929884Y-128302033D02*
X87679883Y-128302033D01*
X84894884Y-128639533D02*
X85099884Y-128434533D01*
X85110000Y-137880000D02*
X85035947Y-137880000D01*
X85030000Y-128774649D02*
X84894884Y-128639533D01*
X83969884Y-128639533D02*
X84894884Y-128639533D01*
X88568884Y-129191034D02*
X88568884Y-132911116D01*
X90029129Y-148955188D02*
X88658941Y-147585000D01*
X85035947Y-137880000D02*
X84934789Y-137778842D01*
X85030000Y-129212500D02*
X85030000Y-128774649D01*
X85110000Y-136370000D02*
X85110000Y-137880000D01*
X85099884Y-128434533D02*
X86797384Y-128434533D01*
X87679883Y-128302033D02*
X88568884Y-129191034D01*
X88568884Y-132911116D02*
X85110000Y-136370000D01*
%TO.N,/cell circuit9/CMGND*%
X119867500Y-145110000D02*
X121330000Y-145110000D01*
X103715000Y-132800000D02*
X103715000Y-131077500D01*
X103732500Y-130287500D02*
X103950000Y-130070000D01*
X121440000Y-145000000D02*
X122656242Y-143783758D01*
X105012500Y-130030000D02*
X103990000Y-130030000D01*
X122150000Y-146805000D02*
X122150000Y-147455000D01*
X121440000Y-145000000D02*
X121440000Y-145445000D01*
X108950708Y-141750000D02*
X109475354Y-142274646D01*
X103990000Y-130030000D02*
X103950000Y-130070000D01*
X122150000Y-146155000D02*
X122150000Y-146805000D01*
X115010000Y-149622500D02*
X114062500Y-149622500D01*
X103732500Y-131060000D02*
X103732500Y-130287500D01*
X122656242Y-143783758D02*
X122656242Y-143479075D01*
X105012500Y-130030000D02*
X105012500Y-129030000D01*
X114062500Y-149622500D02*
X113760000Y-149320000D01*
X116200000Y-131100001D02*
X116200000Y-131850000D01*
X113778750Y-149301250D02*
X113760000Y-149320000D01*
X113778750Y-148430000D02*
X113778750Y-149301250D01*
X121330000Y-145110000D02*
X121440000Y-145000000D01*
X108367500Y-141750000D02*
X108950708Y-141750000D01*
X121440000Y-145445000D02*
X122150000Y-146155000D01*
X122150000Y-147455000D02*
X122150000Y-148105000D01*
%TO.N,/cell circuit9/SCL{slash}VCELL*%
X106620500Y-130503000D02*
X106620500Y-132429500D01*
X106620500Y-132429500D02*
X106252500Y-132797500D01*
X116150000Y-146805000D02*
X114485000Y-146805000D01*
X112109480Y-144429480D02*
X110911766Y-144429480D01*
X106255000Y-132800000D02*
X106255000Y-133859976D01*
X106067500Y-128890000D02*
X106067500Y-129950000D01*
X114485000Y-146805000D02*
X112109480Y-144429480D01*
X106255000Y-133859976D02*
X106514024Y-134119000D01*
X106147500Y-130030000D02*
X107242500Y-130030000D01*
X106147500Y-130030000D02*
X106620500Y-130503000D01*
%TO.N,/cell circuit10/CMGND*%
X120017500Y-165270000D02*
X121010000Y-166262500D01*
X113789000Y-163601000D02*
X114050000Y-163601000D01*
X112750000Y-166730000D02*
X113130000Y-166350000D01*
X115558145Y-163398145D02*
X115558145Y-162992504D01*
X121010000Y-166262500D02*
X122427000Y-166262500D01*
X120290000Y-159542500D02*
X120290000Y-159192976D01*
X113130000Y-166350000D02*
X113130000Y-164260000D01*
X126177500Y-145570000D02*
X126550000Y-145942500D01*
X125447500Y-145570000D02*
X126177500Y-145570000D01*
X116253018Y-164093018D02*
X115990000Y-163830000D01*
X122427000Y-166912500D02*
X122427000Y-167562500D01*
X122427000Y-166262500D02*
X122427000Y-166912500D01*
X120290000Y-159192976D02*
X118820472Y-157723448D01*
X120017500Y-165270000D02*
X118840518Y-164093018D01*
X125140000Y-145570000D02*
X124640000Y-145070000D01*
X118840518Y-164093018D02*
X116253018Y-164093018D01*
X114892500Y-152580000D02*
X114892500Y-154122500D01*
X122427000Y-167562500D02*
X122427000Y-168212500D01*
X113130000Y-164260000D02*
X113789000Y-163601000D01*
X117352500Y-151590000D02*
X115882500Y-151590000D01*
X117312500Y-152600000D02*
X117312500Y-151630000D01*
X115882500Y-151590000D02*
X114892500Y-152580000D01*
X115990000Y-163830000D02*
X115558145Y-163398145D01*
%TO.N,/cell circuit10/SCL{slash}VCELL*%
X115351000Y-166486499D02*
X115351000Y-166376499D01*
X117295000Y-154260000D02*
X117295000Y-155625000D01*
X118487500Y-151590000D02*
X118487500Y-152580000D01*
X118507500Y-151600000D02*
X119652500Y-151600000D01*
X117295000Y-153812500D02*
X118507500Y-152600000D01*
X117295000Y-155625000D02*
X117410000Y-155740000D01*
X115351000Y-166376499D02*
X114419000Y-165444499D01*
X114419000Y-165444499D02*
X114419000Y-165383825D01*
X116427000Y-166912500D02*
X115777001Y-166912500D01*
X118507500Y-152600000D02*
X118507500Y-151600000D01*
X115777001Y-166912500D02*
X115351000Y-166486499D01*
%TO.N,/cell circuit8/CMGND*%
X112225000Y-160915000D02*
X112380000Y-160760000D01*
X104310000Y-146375000D02*
X102683661Y-146375000D01*
X102683661Y-146375000D02*
X102657260Y-146401401D01*
X112187500Y-164070000D02*
X112187500Y-162437500D01*
X111506500Y-165871000D02*
X112207500Y-165170000D01*
X96627500Y-163890000D02*
X95970000Y-163232500D01*
X105405000Y-148325000D02*
X104310000Y-148325000D01*
X110453500Y-165871000D02*
X111506500Y-165871000D01*
X107152982Y-150021000D02*
X108022018Y-150021000D01*
X106410000Y-149330000D02*
X105405000Y-148325000D01*
X112225000Y-162400000D02*
X112225000Y-160915000D01*
X106461982Y-149330000D02*
X107152982Y-150021000D01*
X96342500Y-162170000D02*
X96342500Y-161312500D01*
X108022018Y-150021000D02*
X108931018Y-150930000D01*
X109357500Y-153480000D02*
X110076576Y-153480000D01*
X112207500Y-165170000D02*
X112207500Y-164090000D01*
X96342500Y-162860000D02*
X95970000Y-163232500D01*
X96342500Y-162170000D02*
X96342500Y-162860000D01*
X112709160Y-151409160D02*
X112709160Y-151289768D01*
X113200000Y-151900000D02*
X112709160Y-151409160D01*
X104310000Y-148325000D02*
X104310000Y-147675000D01*
X96880000Y-163890000D02*
X96627500Y-163890000D01*
X104310000Y-146375000D02*
X104310000Y-147025000D01*
X110076576Y-153480000D02*
X110385999Y-153170577D01*
X104310000Y-147675000D02*
X104310000Y-147025000D01*
X109800000Y-165217500D02*
X110453500Y-165871000D01*
X96342500Y-161312500D02*
X96340000Y-161310000D01*
%TO.N,/cell circuit8/SCL{slash}VCELL*%
X109800000Y-164082500D02*
X108580000Y-164082500D01*
X109800000Y-164082500D02*
X110887500Y-165170000D01*
X109800000Y-164082500D02*
X109800000Y-162515000D01*
X112226574Y-147675000D02*
X110310000Y-147675000D01*
X109685000Y-162400000D02*
X109685000Y-161015000D01*
X109685000Y-161015000D02*
X109460000Y-160790000D01*
X112344145Y-147792571D02*
X112226574Y-147675000D01*
%TO.N,/cell circuit7/CMGND*%
X92983000Y-165987500D02*
X92983000Y-166637500D01*
X100755000Y-181230000D02*
X100755000Y-182907500D01*
X97870000Y-184590000D02*
X97270000Y-185190000D01*
X90750000Y-165890000D02*
X91350000Y-165290000D01*
X98351000Y-184771000D02*
X97870000Y-184290000D01*
X92022500Y-164617500D02*
X91350000Y-165290000D01*
X94510000Y-167937500D02*
X92983000Y-167937500D01*
X102000000Y-170780000D02*
X100567074Y-172212926D01*
X92983000Y-165987500D02*
X92047500Y-165987500D01*
X102000000Y-170780000D02*
X102308000Y-170472000D01*
X92047500Y-165987500D02*
X91350000Y-165290000D01*
X97870000Y-184037500D02*
X97870000Y-184590000D01*
X99351214Y-172250000D02*
X99388288Y-172212926D01*
X102308000Y-166657999D02*
X100780001Y-165130000D01*
X100797500Y-183490000D02*
X100217500Y-184070000D01*
X100797500Y-182950000D02*
X100797500Y-183490000D01*
X92983000Y-166637500D02*
X92983000Y-167287500D01*
X102308000Y-170472000D02*
X102308000Y-166657999D01*
X100755000Y-181230000D02*
X100755000Y-180075000D01*
X97870000Y-184290000D02*
X97870000Y-184037500D01*
X99516500Y-184771000D02*
X98351000Y-184771000D01*
X92983000Y-167287500D02*
X92983000Y-167937500D01*
X95372500Y-168800000D02*
X94510000Y-167937500D01*
X100755000Y-180075000D02*
X101110000Y-179720000D01*
X98147500Y-172250000D02*
X99351214Y-172250000D01*
X100217500Y-184070000D02*
X99516500Y-184771000D01*
X100567074Y-172212926D02*
X99388288Y-172212926D01*
%TO.N,/cell circuit7/SCL{slash}VCELL*%
X97870000Y-182902500D02*
X99022500Y-184055000D01*
X97870000Y-181575000D02*
X98215000Y-181230000D01*
X97870000Y-182902500D02*
X97870000Y-181575000D01*
X99662999Y-167287500D02*
X100077296Y-167701797D01*
X100077296Y-167701797D02*
X100492879Y-167701797D01*
X100492879Y-167701797D02*
X100899660Y-167295016D01*
X98215000Y-181230000D02*
X98215000Y-179315000D01*
X98215000Y-179315000D02*
X98250000Y-179280000D01*
X98983000Y-167287500D02*
X99662999Y-167287500D01*
X96710000Y-182982500D02*
X97790000Y-182982500D01*
%TO.N,/cell circuit11/CMGND*%
X118170000Y-170967500D02*
X118170000Y-171617500D01*
X109817500Y-182350000D02*
X110200000Y-182350000D01*
X105310000Y-168782500D02*
X105620000Y-168782500D01*
X118170000Y-169830000D02*
X118260000Y-169740000D01*
X106030000Y-184480000D02*
X106550000Y-183960000D01*
X119885000Y-184780000D02*
X121000000Y-185895000D01*
X103832500Y-171150000D02*
X103832500Y-170267500D01*
X118170000Y-170967500D02*
X118170000Y-169830000D01*
X105620000Y-168782500D02*
X106620000Y-169782500D01*
X110200000Y-182350000D02*
X110750000Y-182900000D01*
X121000000Y-187195000D02*
X121000000Y-187845000D01*
X121000000Y-185895000D02*
X121000000Y-186545000D01*
X123810000Y-183560000D02*
X123206256Y-183560000D01*
X121000000Y-185242446D02*
X122944351Y-183298095D01*
X118170000Y-171617500D02*
X117537500Y-172250000D01*
X121000000Y-185895000D02*
X121000000Y-185242446D01*
X123206256Y-183560000D02*
X122944351Y-183298095D01*
X105310000Y-168790000D02*
X104050000Y-170050000D01*
X103832500Y-171150000D02*
X103832500Y-172652500D01*
X121000000Y-186545000D02*
X121000000Y-187195000D01*
X103832500Y-170267500D02*
X104050000Y-170050000D01*
%TO.N,/cell circuit11/SCL{slash}VCELL*%
X106255000Y-174595000D02*
X106340000Y-174680000D01*
X106620000Y-172405000D02*
X106255000Y-172770000D01*
X107311000Y-169268500D02*
X106602500Y-168560000D01*
X113170000Y-186390000D02*
X113325000Y-186545000D01*
X105310000Y-169977500D02*
X105680000Y-169977500D01*
X107311000Y-170226500D02*
X107311000Y-169268500D01*
X106620000Y-170917500D02*
X106620000Y-172405000D01*
X106620000Y-170917500D02*
X107311000Y-170226500D01*
X113325000Y-186545000D02*
X115000000Y-186545000D01*
X106255000Y-172770000D02*
X106255000Y-174595000D01*
X105680000Y-169977500D02*
X106620000Y-170917500D01*
%TO.N,/cell circuit1/cell_en out*%
X43853500Y-163003500D02*
X45290000Y-164440000D01*
X42972500Y-160760000D02*
X43853500Y-161641000D01*
X42972500Y-160760000D02*
X41772500Y-160760000D01*
X43853500Y-161641000D02*
X43853500Y-163003500D01*
%TO.N,/cell circuit1/DN TX{slash}RST*%
X63202500Y-153600000D02*
X61832500Y-153600000D01*
X58925000Y-151930000D02*
X60817500Y-153822500D01*
X61832500Y-153600000D02*
X61610000Y-153822500D01*
X60817500Y-153822500D02*
X61610000Y-153822500D01*
%TO.N,/cell circuit1/UP TX*%
X46464359Y-150434359D02*
X47915641Y-150434359D01*
X48650435Y-149707153D02*
X50237588Y-148120000D01*
X48642847Y-149707153D02*
X48650435Y-149707153D01*
X50237588Y-148120000D02*
X51625000Y-148120000D01*
X47915641Y-150434359D02*
X48642847Y-149707153D01*
%TO.N,/cell circuit4/DN TX{slash}RST*%
X58932500Y-126440000D02*
X59362500Y-126010000D01*
X65940089Y-126535000D02*
X66324089Y-126919000D01*
X61482500Y-126010000D02*
X60040000Y-126010000D01*
X59362500Y-126010000D02*
X60040000Y-126010000D01*
X64620000Y-126535000D02*
X65940089Y-126535000D01*
%TO.N,/cell circuit4/UP TX*%
X71920000Y-130345000D02*
X75400000Y-130345000D01*
%TO.N,/cell circuit4/cell_en out*%
X82149000Y-133471499D02*
X82149000Y-132641396D01*
X81865001Y-130994999D02*
X82090000Y-130770000D01*
X82967500Y-133790000D02*
X82467501Y-133790000D01*
X82467501Y-133790000D02*
X82149000Y-133471499D01*
X82149000Y-132641396D02*
X81865001Y-132357397D01*
X83467499Y-133790000D02*
X84000000Y-133257499D01*
X82967500Y-133790000D02*
X83467499Y-133790000D01*
X81865001Y-132357397D02*
X81865001Y-130994999D01*
X84000000Y-133257499D02*
X84000000Y-132767500D01*
%TO.N,/cell circuit6/DN TX{slash}RST*%
X71442500Y-149630000D02*
X72312500Y-148760000D01*
X75550000Y-153930000D02*
X73575000Y-153930000D01*
X73652500Y-149085947D02*
X76060000Y-151493447D01*
X73652500Y-148760000D02*
X73652500Y-149085947D01*
X76060000Y-151493447D02*
X76060000Y-153420000D01*
X76060000Y-153420000D02*
X75550000Y-153930000D01*
X72312500Y-148760000D02*
X73652500Y-148760000D01*
%TO.N,/cell circuit6/UP TX*%
X72980000Y-164490000D02*
X72614501Y-164490000D01*
X72614501Y-164490000D02*
X69765000Y-161640499D01*
%TO.N,/cell circuit5/cell_en out*%
X77350000Y-145230476D02*
X76649000Y-145931476D01*
X76649000Y-146799000D02*
X78230000Y-148380000D01*
X78132500Y-144380000D02*
X77350000Y-145162500D01*
X76649000Y-145931476D02*
X76649000Y-146799000D01*
X78552500Y-144380000D02*
X78132500Y-144380000D01*
%TO.N,/cell circuit6/cell_en out*%
X91945104Y-163422500D02*
X92190000Y-163422500D01*
X92190000Y-163020000D02*
X91360000Y-162190000D01*
X92190000Y-163422500D02*
X92190000Y-163020000D01*
X88850000Y-166187500D02*
X89180104Y-166187500D01*
X89180104Y-166187500D02*
X91945104Y-163422500D01*
%TO.N,/cell circuit5/DN TX{slash}RST*%
X81197500Y-126042500D02*
X82080000Y-126042500D01*
X82082500Y-126040000D02*
X85937851Y-126040000D01*
X85937851Y-126040000D02*
X86929884Y-127032033D01*
X78850000Y-127767500D02*
X79472500Y-127767500D01*
X79472500Y-127767500D02*
X81197500Y-126042500D01*
%TO.N,/cell circuit5/UP TX*%
X93748000Y-131018000D02*
X95300000Y-132570000D01*
%TO.N,/cell circuit9/DN TX{slash}RST*%
X111491250Y-129940000D02*
X110491250Y-129940000D01*
X107525000Y-132800000D02*
X110162500Y-130162500D01*
X110491250Y-129940000D02*
X110268750Y-130162500D01*
%TO.N,/cell circuit9/UP TX*%
X104485476Y-128150000D02*
X102950000Y-129685476D01*
X114664524Y-128150000D02*
X104485476Y-128150000D01*
X102950000Y-129685476D02*
X102950000Y-139335000D01*
X102950000Y-139335000D02*
X103715000Y-140100000D01*
X116200001Y-129800000D02*
X116200001Y-129685477D01*
X116200001Y-129685477D02*
X114664524Y-128150000D01*
%TO.N,/cell circuit8/cell_en out*%
X114522500Y-150330000D02*
X115010000Y-150817500D01*
X113778750Y-150330000D02*
X114522500Y-150330000D01*
X110970000Y-150280000D02*
X113728750Y-150280000D01*
%TO.N,/cell circuit10/cell_en in*%
X126550000Y-147137500D02*
X125780000Y-147137500D01*
X125447500Y-146982001D02*
X125447500Y-147470000D01*
X123440000Y-144974501D02*
X125447500Y-146982001D01*
X125780000Y-147137500D02*
X125447500Y-147470000D01*
X123440000Y-144350000D02*
X123440000Y-144974501D01*
%TO.N,/cell circuit10/DN TX{slash}RST*%
X126932500Y-150110000D02*
X126260000Y-150782500D01*
X127412500Y-150110000D02*
X126932500Y-150110000D01*
X122625896Y-150126500D02*
X125604000Y-150126500D01*
X119894501Y-154260000D02*
X122319000Y-151835501D01*
X125604000Y-150126500D02*
X126260000Y-150782500D01*
X118565000Y-154260000D02*
X119894501Y-154260000D01*
X122319000Y-150433396D02*
X122625896Y-150126500D01*
X122319000Y-151835501D02*
X122319000Y-150433396D01*
%TO.N,/cell circuit10/UP TX*%
X114755000Y-160232725D02*
X114598388Y-160076113D01*
X112750000Y-168030000D02*
X112100000Y-167380000D01*
X112100000Y-167380000D02*
X111790000Y-167380000D01*
X114755000Y-161560000D02*
X114755000Y-160232725D01*
%TO.N,/cell circuit10/cell_en out*%
X113638000Y-164832000D02*
X113990000Y-164480000D01*
X113638000Y-166560420D02*
X113638000Y-164832000D01*
X113608000Y-166938000D02*
X113608000Y-166590420D01*
X116342500Y-172250000D02*
X116342500Y-171040000D01*
X116270000Y-169600000D02*
X113608000Y-166938000D01*
X116270000Y-170967500D02*
X116270000Y-169600000D01*
X113608000Y-166590420D02*
X113638000Y-166560420D01*
%TO.N,/cell circuit8/DN TX{slash}RST*%
X106440001Y-163682499D02*
X106440001Y-162672501D01*
X106157500Y-162390000D02*
X108405000Y-162390000D01*
X106440001Y-162672501D02*
X106157500Y-162390000D01*
%TO.N,/cell circuit8/UP TX*%
X113320000Y-154005000D02*
X112225000Y-155100000D01*
X113320000Y-153210000D02*
X113320000Y-154005000D01*
%TO.N,/cell circuit7/cell_en out*%
X98312500Y-163130000D02*
X98210000Y-163232500D01*
X98210000Y-163232500D02*
X97870000Y-163232500D01*
X100130000Y-163130000D02*
X98312500Y-163130000D01*
X98312500Y-163130000D02*
X97880000Y-163562500D01*
X97870000Y-163232500D02*
X97870000Y-162502500D01*
X97870000Y-162502500D02*
X97537500Y-162170000D01*
%TO.N,/cell circuit7/DN TX{slash}RST*%
X84000000Y-177550000D02*
X88400000Y-181950000D01*
X96225000Y-181950000D02*
X96945000Y-181230000D01*
X82658750Y-177120000D02*
X83977502Y-177120000D01*
X84000000Y-177097502D02*
X84000000Y-177550000D01*
X88400000Y-181950000D02*
X96225000Y-181950000D01*
%TO.N,/cell circuit7/UP TX*%
X100755000Y-173325000D02*
X102000000Y-172080000D01*
%TO.N,/cell circuit11/DN TX{slash}RST*%
X109370000Y-169962500D02*
X107525000Y-171807500D01*
X107525000Y-171807500D02*
X107525000Y-172770000D01*
X110732500Y-169670000D02*
X109662500Y-169670000D01*
X109662500Y-169670000D02*
X109370000Y-169962500D01*
%TO.N,/cell circuit11/UP TX*%
X103715000Y-180070000D02*
X102924000Y-180861000D01*
X102924000Y-182434210D02*
X103811712Y-183321922D01*
X102924000Y-180861000D02*
X102924000Y-182434210D01*
X103811712Y-183321922D02*
X105708078Y-183321922D01*
X105708078Y-183321922D02*
X105850000Y-183180000D01*
%TO.N,/cell circuit11/cell_en out*%
X126341000Y-183441000D02*
X126341000Y-185836500D01*
X124397500Y-186990000D02*
X125187500Y-186990000D01*
X125187500Y-186990000D02*
X125640000Y-186537500D01*
X125810000Y-182910000D02*
X126341000Y-183441000D01*
X126341000Y-185836500D02*
X125640000Y-186537500D01*
%TO.N,/cell circuit1/cell up rx*%
X58925000Y-149390000D02*
X58028480Y-149390000D01*
X58925000Y-149390000D02*
X59674999Y-149390000D01*
X37800000Y-161302500D02*
X37800000Y-160773481D01*
X60367499Y-148697500D02*
X60680000Y-148697500D01*
X59674999Y-149390000D02*
X60367499Y-148697500D01*
X37800000Y-160773481D02*
X38977952Y-159595529D01*
X58028480Y-149390000D02*
X57508500Y-148870020D01*
%TO.N,/cell circuit1/cell up tx*%
X43562500Y-151747500D02*
X43550000Y-151760000D01*
X28677968Y-149152032D02*
X27730000Y-148204064D01*
X44600000Y-151747500D02*
X43562500Y-151747500D01*
X44632500Y-152810000D02*
X44632500Y-151780000D01*
%TO.N,/cell circuit4/cell up rx*%
X63620000Y-129070000D02*
X64615000Y-129070000D01*
X62817500Y-129872500D02*
X63620000Y-129070000D01*
X70932942Y-125829000D02*
X75881500Y-125829000D01*
X64620000Y-129075000D02*
X67686942Y-129075000D01*
X67686942Y-129075000D02*
X70932942Y-125829000D01*
X62460000Y-129872500D02*
X62817500Y-129872500D01*
X75881500Y-125829000D02*
X76102500Y-126050000D01*
%TO.N,/cell circuit4/cell up tx*%
X94229884Y-129572033D02*
X92957967Y-129572033D01*
X80007413Y-129882587D02*
X80167500Y-129722500D01*
X92957967Y-129572033D02*
X92860000Y-129670000D01*
X96069884Y-130284533D02*
X95357384Y-129572033D01*
X80167500Y-129722500D02*
X80167500Y-129000000D01*
X95357384Y-129572033D02*
X94229884Y-129572033D01*
%TO.N,/cell circuit6/cell up rx*%
X80790000Y-171534106D02*
X80229235Y-170973341D01*
X71035000Y-153930000D02*
X71035000Y-155402102D01*
X80790000Y-171992500D02*
X80790000Y-171534106D01*
X71035000Y-155402102D02*
X70848380Y-155588722D01*
X70997500Y-152180000D02*
X70997500Y-153892500D01*
%TO.N,/cell circuit5/cell up rx*%
X87285012Y-129674033D02*
X88060884Y-130449905D01*
X88060884Y-131234161D02*
X86575045Y-132720000D01*
X85362500Y-132720000D02*
X85260000Y-132617500D01*
X86575045Y-132720000D02*
X85362500Y-132720000D01*
X88060884Y-130449905D02*
X88060884Y-131234161D01*
X76748821Y-149121321D02*
X76684177Y-149121321D01*
X85260000Y-132617500D02*
X85260000Y-134000000D01*
X77987500Y-150360000D02*
X76748821Y-149121321D01*
%TO.N,/cell circuit6/cell up tx*%
X77327500Y-166357500D02*
X82430000Y-171460000D01*
X76310000Y-166357500D02*
X77327500Y-166357500D01*
X98680000Y-175350000D02*
X99485000Y-174545000D01*
X82430000Y-171460000D02*
X82430000Y-172072500D01*
X83680594Y-172072500D02*
X82430000Y-172072500D01*
X83982845Y-172374751D02*
X83680594Y-172072500D01*
%TO.N,/cell circuit5/cell up tx*%
X71035000Y-161655000D02*
X72330000Y-162950000D01*
X96800000Y-131460000D02*
X98027500Y-131460000D01*
X98027500Y-131460000D02*
X98570000Y-132002500D01*
X71035000Y-158825000D02*
X71360000Y-158500000D01*
X71035000Y-161230000D02*
X71035000Y-158825000D01*
%TO.N,/cell circuit10/cell dn tx*%
X107700000Y-134950000D02*
X106150000Y-134950000D01*
X115816501Y-132739000D02*
X109911000Y-132739000D01*
X118630001Y-135552500D02*
X115816501Y-132739000D01*
X109911000Y-132739000D02*
X107700000Y-134950000D01*
X118950000Y-135552500D02*
X118630001Y-135552500D01*
X106150000Y-134950000D02*
X104985000Y-133785000D01*
X104927500Y-131060000D02*
X104927500Y-132742500D01*
X104985000Y-133785000D02*
X104985000Y-132800000D01*
%TO.N,/cell circuit8/cell up rx*%
X114749000Y-130218500D02*
X114749000Y-131241494D01*
X110955000Y-162400000D02*
X110955000Y-160945000D01*
X115177500Y-129790000D02*
X114749000Y-130218500D01*
X110992500Y-164070000D02*
X110992500Y-162437500D01*
X114749000Y-131241494D02*
X114229994Y-131760500D01*
X110955000Y-160945000D02*
X111260000Y-160640000D01*
%TO.N,/cell circuit10/cell dn rx*%
X116025000Y-161560000D02*
X116025000Y-160185000D01*
X118440000Y-134057500D02*
X119077500Y-134057500D01*
X119077500Y-134057500D02*
X119330000Y-134310000D01*
X116025000Y-161852500D02*
X117352500Y-163180000D01*
X116025000Y-160185000D02*
X116200000Y-160010000D01*
%TO.N,/cell circuit8/cell up tx*%
X104985000Y-140100000D02*
X104985000Y-141582500D01*
X104952500Y-141700000D02*
X103927500Y-141700000D01*
%TO.N,/cell circuit10/cell up rx*%
X113930000Y-169612500D02*
X113930000Y-168860000D01*
X116025000Y-155535000D02*
X115390000Y-156170000D01*
X113930000Y-168860000D02*
X113680000Y-168610000D01*
X116087500Y-152580000D02*
X116087500Y-154197500D01*
X116025000Y-154260000D02*
X116025000Y-155535000D01*
%TO.N,/cell circuit10/cell up tx*%
X104857500Y-181760000D02*
X106182500Y-181760000D01*
X104985000Y-180070000D02*
X104985000Y-181632500D01*
%TO.N,/cell circuit7/cell up rx*%
X102816000Y-168241500D02*
X102816000Y-173464000D01*
X103830000Y-167227500D02*
X102816000Y-168241500D01*
X99485000Y-176795000D02*
X99485000Y-181230000D01*
X99602500Y-182950000D02*
X99602500Y-181347500D01*
X102816000Y-173464000D02*
X99485000Y-176795000D01*
%TO.N,/cell circuit7/cell up tx*%
X106400000Y-161330000D02*
X110955000Y-156775000D01*
X99240000Y-169362500D02*
X99949548Y-169362500D01*
X99949548Y-169362500D02*
X101680660Y-167631388D01*
X110955000Y-156775000D02*
X110955000Y-155100000D01*
X101130000Y-166300000D02*
X100898969Y-166300000D01*
X100170000Y-164660000D02*
X101660000Y-163170000D01*
X101660000Y-163170000D02*
X102372500Y-163170000D01*
X104224000Y-162001476D02*
X104895476Y-161330000D01*
X103541024Y-162001476D02*
X104224000Y-162001476D01*
X104895476Y-161330000D02*
X106400000Y-161330000D01*
X101680660Y-166850660D02*
X101130000Y-166300000D01*
X101680660Y-167631388D02*
X101680660Y-166850660D01*
X100898969Y-166300000D02*
X100170000Y-165571031D01*
X100170000Y-165571031D02*
X100170000Y-164660000D01*
X102372500Y-163170000D02*
X103541024Y-162001476D01*
%TO.N,/cell circuit11/cell up rx*%
X104985000Y-174065000D02*
X105110000Y-174190000D01*
X104985000Y-172770000D02*
X104985000Y-174065000D01*
X104985000Y-172770000D02*
X104985000Y-171192500D01*
X109230000Y-183820000D02*
X110297500Y-183820000D01*
%TO.N,/cell circuit11/cell up tx*%
X127514791Y-184320000D02*
X127122000Y-183927209D01*
X132495000Y-185850000D02*
X132495000Y-185100001D01*
X129360501Y-184650000D02*
X129030501Y-184320000D01*
X127010000Y-184039209D02*
X127122000Y-183927209D01*
X109737500Y-186027500D02*
X109960000Y-186250000D01*
X132044999Y-184650000D02*
X129360501Y-184650000D01*
X132495000Y-185100001D02*
X132044999Y-184650000D01*
X129030501Y-184320000D02*
X127514791Y-184320000D01*
X108600000Y-186027500D02*
X109737500Y-186027500D01*
X127010000Y-185032500D02*
X127010000Y-184039209D01*
%TO.N,/cell circuit1/SDA*%
X46615333Y-154416000D02*
X51794000Y-154416000D01*
X52374999Y-150660000D02*
X51625000Y-150660000D01*
X44656333Y-156375000D02*
X46615333Y-154416000D01*
X51794000Y-154416000D02*
X52870000Y-153340000D01*
X52870000Y-153340000D02*
X52870000Y-151155001D01*
X52870000Y-151155001D02*
X52374999Y-150660000D01*
X41025000Y-156375000D02*
X44656333Y-156375000D01*
%TO.N,/cell circuit4/SDA*%
X79289000Y-132823501D02*
X79289000Y-131773501D01*
X79289000Y-131773501D02*
X78609000Y-131093501D01*
X72669999Y-127805000D02*
X71920000Y-127805000D01*
X80145000Y-134590000D02*
X80145000Y-133679501D01*
X74434999Y-129570000D02*
X72669999Y-127805000D01*
X78609000Y-131093501D02*
X78609000Y-130104499D01*
X78074501Y-129570000D02*
X74434999Y-129570000D01*
X80145000Y-133679501D02*
X79289000Y-132823501D01*
X78609000Y-130104499D02*
X78074501Y-129570000D01*
%TO.N,/cell circuit6/SDA*%
X72551000Y-160099000D02*
X72305000Y-160345000D01*
X72305000Y-160345000D02*
X72305000Y-161230000D01*
X81330000Y-165685000D02*
X80705001Y-165685000D01*
X80705001Y-165685000D02*
X75119001Y-160099000D01*
X75119001Y-160099000D02*
X72551000Y-160099000D01*
%TO.N,/cell circuit5/SDA*%
X87600000Y-148235000D02*
X89175256Y-149810256D01*
X89175256Y-149810256D02*
X90913074Y-149810256D01*
X95681000Y-145042330D02*
X95681000Y-135331000D01*
X90913074Y-149810256D02*
X95681000Y-145042330D01*
X92030000Y-129335499D02*
X93063466Y-128302033D01*
X95681000Y-135331000D02*
X92030000Y-131680000D01*
X93063466Y-128302033D02*
X93747967Y-128302033D01*
X92030000Y-131680000D02*
X92030000Y-129335499D01*
%TO.N,/cell circuit9/SDA*%
X106255000Y-140100000D02*
X106255000Y-139350001D01*
X106255000Y-139350001D02*
X106636001Y-138969000D01*
X107917128Y-138969000D02*
X115103128Y-146155000D01*
X106636001Y-138969000D02*
X107917128Y-138969000D01*
X115103128Y-146155000D02*
X116150000Y-146155000D01*
%TO.N,/cell circuit10/SDA*%
X115200000Y-165507079D02*
X115955421Y-166262500D01*
X114360000Y-159180000D02*
X113720000Y-159820000D01*
X114831000Y-163277499D02*
X114831000Y-163681000D01*
X114831000Y-163681000D02*
X115200000Y-164050000D01*
X113720000Y-159820000D02*
X113720000Y-162166499D01*
X116630000Y-159180000D02*
X114360000Y-159180000D01*
X115200000Y-164050000D02*
X115200000Y-165507079D01*
X117295000Y-161560000D02*
X117295000Y-159845000D01*
X113720000Y-162166499D02*
X114831000Y-163277499D01*
X117295000Y-159845000D02*
X116630000Y-159180000D01*
%TO.N,/cell circuit8/SDA*%
X110950000Y-153969000D02*
X110381000Y-153969000D01*
X110381000Y-153969000D02*
X109685000Y-154665000D01*
X110081749Y-148553251D02*
X110081749Y-150443329D01*
X111474432Y-150908931D02*
X111931931Y-151366430D01*
X110547351Y-150908931D02*
X111474432Y-150908931D01*
X110081749Y-150443329D02*
X110547351Y-150908931D01*
X110310000Y-148325000D02*
X110081749Y-148553251D01*
X111931931Y-152987069D02*
X110950000Y-153969000D01*
X111931931Y-151366430D02*
X111931931Y-152987069D01*
%TO.N,/cell circuit7/SDA*%
X98539000Y-168381500D02*
X98539000Y-169593686D01*
X96470000Y-175290000D02*
X97380000Y-175290000D01*
X95850000Y-174670000D02*
X96470000Y-175290000D01*
X97380000Y-175290000D02*
X98215000Y-174455000D01*
X98983000Y-167937500D02*
X98539000Y-168381500D01*
X98539000Y-169593686D02*
X95850000Y-172282686D01*
X95850000Y-172282686D02*
X95850000Y-174670000D01*
%TO.N,/cell circuit11/SDA*%
X115000000Y-185895000D02*
X108044000Y-178939000D01*
X107011000Y-178939000D02*
X106255000Y-179695000D01*
X108044000Y-178939000D02*
X107011000Y-178939000D01*
%TD*%
M02*
