M48
; DRILL file {KiCad 8.0.2} date 2024-05-22T08:14:10-0700
; FORMAT={-:-/ absolute / metric / decimal}
; #@! TF.CreationDate,2024-05-22T08:14:10-07:00
; #@! TF.GenerationSoftware,Kicad,Pcbnew,8.0.2
; #@! TF.FileFunction,Plated,1,4,PTH
FMAT,2
METRIC
; #@! TA.AperFunction,Plated,PTH,ViaDrill
T1C0.400
; #@! TA.AperFunction,Plated,PTH,ComponentDrill
T2C1.000
; #@! TA.AperFunction,Plated,PTH,ComponentDrill
T3C3.000
; #@! TA.AperFunction,Plated,PTH,ComponentDrill
T4C8.000
%
G90
G05
T1
X25.45Y-149.05
X25.69Y-158.53
X26.85Y-146.0
X27.93Y-153.29
X28.55Y-160.0
X28.678Y-149.152
X29.4Y-153.45
X31.988Y-146.089
X35.55Y-139.9
X35.92Y-142.25
X37.07Y-134.42
X37.26Y-145.13
X38.19Y-143.52
X38.417Y-139.02
X38.978Y-159.596
X40.7Y-132.4
X42.45Y-161.9
X42.52Y-157.22
X43.012Y-146.981
X43.27Y-149.64
X43.55Y-151.76
X44.57Y-158.34
X44.85Y-128.735
X46.08Y-161.0
X46.152Y-153.774
X46.88Y-162.28
X47.781Y-130.04
X49.17Y-152.28
X50.0Y-142.62
X50.3Y-127.05
X51.625Y-152.99
X53.0Y-128.0
X53.37Y-149.67
X54.9Y-142.62
X55.208Y-132.599
X56.262Y-132.616
X56.63Y-150.92
X57.45Y-136.8
X57.508Y-148.87
X57.61Y-130.3
X58.066Y-134.255
X59.05Y-165.3
X59.6Y-133.35
X60.04Y-126.01
X60.6Y-128.344
X61.25Y-142.8
X61.809Y-148.631
X62.55Y-142.35
X62.86Y-166.02
X62.99Y-152.37
X63.45Y-131.067
X66.324Y-126.919
X67.95Y-127.085
X67.95Y-165.43
X68.8Y-129.067
X69.8Y-155.48
X70.848Y-155.589
X71.36Y-158.5
X72.18Y-165.16
X72.41Y-155.78
X73.066Y-127.043
X74.633Y-151.172
X74.65Y-161.85
X76.332Y-163.918
X76.65Y-127.25
X76.684Y-149.121
X77.55Y-132.62
X77.76Y-130.44
X77.98Y-165.27
X78.349Y-142.658
X78.424Y-132.031
X78.87Y-147.22
X79.39Y-130.75
X79.432Y-167.248
X80.007Y-129.883
X80.07Y-132.5
X80.2Y-136.5
X80.229Y-170.973
X80.24Y-146.23
X81.201Y-144.246
X81.5Y-141.06
X82.7Y-174.22
X82.93Y-132.836
X83.27Y-126.99
X83.84Y-168.7
X83.983Y-172.375
X84.18Y-141.66
X84.935Y-137.779
X84.95Y-156.4
X84.972Y-172.819
X85.26Y-134.0
X86.14Y-155.8
X86.16Y-131.78
X88.512Y-162.976
X88.74Y-164.56
X90.029Y-148.955
X90.556Y-148.042
X90.75Y-201.6
X91.35Y-165.29
X92.42Y-191.6
X92.65Y-127.07
X92.86Y-129.67
X93.395Y-156.135
X93.97Y-164.77
X95.69Y-184.17
X95.86Y-165.88
X96.09Y-155.091
X96.11Y-133.41
X96.34Y-161.31
X96.8Y-131.46
X96.88Y-163.89
X97.11Y-126.82
X97.27Y-185.19
X97.426Y-166.896
X98.0Y-204.03
X98.23Y-171.286
X98.25Y-179.28
X98.68Y-175.35
X99.31Y-207.28
X99.388Y-172.213
X100.086Y-166.625
X100.9Y-167.295
X101.11Y-179.72
X102.657Y-146.401
X102.736Y-140.687
X103.187Y-144.012
X103.95Y-130.07
X104.05Y-170.05
X104.135Y-182.541
X105.11Y-174.19
X105.38Y-163.62
X106.34Y-174.68
X106.514Y-134.119
X106.55Y-183.96
X107.47Y-165.34
X107.53Y-146.52
X107.57Y-204.76
X107.96Y-198.26
X108.0Y-201.21
X108.22Y-169.42
X108.41Y-156.5
X108.45Y-140.75
X108.535Y-147.225
X108.95Y-181.25
X109.23Y-183.82
X109.45Y-129.1
X109.45Y-132.1
X109.46Y-160.79
X109.475Y-142.275
X109.96Y-186.25
X110.37Y-168.13
X110.386Y-153.171
X110.39Y-200.31
X110.75Y-182.9
X110.863Y-149.393
X110.912Y-144.429
X111.151Y-151.69
X111.26Y-160.64
X111.37Y-198.72
X111.574Y-146.617
X111.79Y-167.38
X112.32Y-202.64
X112.344Y-147.793
X112.38Y-160.76
X112.709Y-151.29
X112.71Y-196.01
X112.79Y-192.15
X113.17Y-186.39
X113.61Y-187.4
X113.68Y-168.61
X113.76Y-149.32
X114.05Y-163.601
X114.16Y-201.6
X114.23Y-131.761
X114.419Y-165.384
X114.553Y-166.683
X114.598Y-160.076
X114.83Y-191.52
X115.39Y-156.17
X115.45Y-201.6
X115.558Y-162.993
X116.2Y-131.85
X116.2Y-160.01
X116.34Y-151.59
X117.41Y-155.74
X117.96Y-204.674
X117.989Y-167.299
X118.1Y-206.46
X118.136Y-158.525
X118.26Y-169.74
X118.82Y-157.723
X118.85Y-167.77
X119.12Y-176.41
X119.33Y-134.31
X119.36Y-148.13
X120.45Y-152.6
X120.45Y-176.29
X121.768Y-190.888
X121.82Y-188.78
X121.92Y-169.51
X122.43Y-185.04
X122.49Y-145.12
X122.656Y-143.479
X122.944Y-183.298
X124.25Y-186.036
X124.64Y-145.07
X126.96Y-204.52
X127.122Y-183.927
X128.26Y-187.33
X128.976Y-185.37
X130.49Y-191.5
X130.78Y-187.29
X132.44Y-191.56
X133.64Y-191.77
X133.7Y-187.65
X134.37Y-197.35
T2
X75.39Y-171.51
X75.39Y-174.05
X75.39Y-176.6
X77.92Y-174.05
X77.93Y-171.52
X86.46Y-203.54
T3
X33.143Y-149.251
X50.25Y-162.08
X51.9Y-132.82
X74.6Y-132.82
X86.857Y-160.509
X89.893Y-168.911
X91.707Y-145.649
X95.65Y-201.4
X101.243Y-149.251
X118.35Y-201.4
X120.907Y-140.849
X120.907Y-180.169
X125.757Y-165.309
T4
X34.05Y-157.28
X45.4Y-137.62
X56.75Y-157.28
X68.1Y-137.62
X79.45Y-157.28
X90.8Y-137.62
X90.8Y-176.94
X102.15Y-157.28
X102.15Y-196.6
X113.5Y-137.62
X113.5Y-176.94
X124.85Y-157.28
X124.85Y-196.6
M30
