%TF.GenerationSoftware,KiCad,Pcbnew,8.0.2*%
%TF.CreationDate,2024-05-22T08:13:53-07:00*%
%TF.ProjectId,cell string,63656c6c-2073-4747-9269-6e672e6b6963,rev?*%
%TF.SameCoordinates,Original*%
%TF.FileFunction,Soldermask,Top*%
%TF.FilePolarity,Negative*%
%FSLAX46Y46*%
G04 Gerber Fmt 4.6, Leading zero omitted, Abs format (unit mm)*
G04 Created by KiCad (PCBNEW 8.0.2) date 2024-05-22 08:13:53*
%MOMM*%
%LPD*%
G01*
G04 APERTURE LIST*
G04 Aperture macros list*
%AMRoundRect*
0 Rectangle with rounded corners*
0 $1 Rounding radius*
0 $2 $3 $4 $5 $6 $7 $8 $9 X,Y pos of 4 corners*
0 Add a 4 corners polygon primitive as box body*
4,1,4,$2,$3,$4,$5,$6,$7,$8,$9,$2,$3,0*
0 Add four circle primitives for the rounded corners*
1,1,$1+$1,$2,$3*
1,1,$1+$1,$4,$5*
1,1,$1+$1,$6,$7*
1,1,$1+$1,$8,$9*
0 Add four rect primitives between the rounded corners*
20,1,$1+$1,$2,$3,$4,$5,0*
20,1,$1+$1,$4,$5,$6,$7,0*
20,1,$1+$1,$6,$7,$8,$9,0*
20,1,$1+$1,$8,$9,$2,$3,0*%
%AMRotRect*
0 Rectangle, with rotation*
0 The origin of the aperture is its center*
0 $1 length*
0 $2 width*
0 $3 Rotation angle, in degrees counterclockwise*
0 Add horizontal line*
21,1,$1,$2,0,0,$3*%
G04 Aperture macros list end*
%ADD10RoundRect,0.160000X-0.197500X-0.160000X0.197500X-0.160000X0.197500X0.160000X-0.197500X0.160000X0*%
%ADD11RoundRect,0.150000X-0.350000X-0.150000X0.350000X-0.150000X0.350000X0.150000X-0.350000X0.150000X0*%
%ADD12RoundRect,0.160000X-0.160000X0.197500X-0.160000X-0.197500X0.160000X-0.197500X0.160000X0.197500X0*%
%ADD13RoundRect,0.160000X0.197500X0.160000X-0.197500X0.160000X-0.197500X-0.160000X0.197500X-0.160000X0*%
%ADD14RoundRect,0.192308X-0.682692X0.307692X-0.682692X-0.307692X0.682692X-0.307692X0.682692X0.307692X0*%
%ADD15RoundRect,0.112500X-0.237500X0.112500X-0.237500X-0.112500X0.237500X-0.112500X0.237500X0.112500X0*%
%ADD16RoundRect,0.155000X-0.212500X-0.155000X0.212500X-0.155000X0.212500X0.155000X-0.212500X0.155000X0*%
%ADD17RoundRect,0.150000X0.350000X0.150000X-0.350000X0.150000X-0.350000X-0.150000X0.350000X-0.150000X0*%
%ADD18RoundRect,0.160000X0.160000X-0.197500X0.160000X0.197500X-0.160000X0.197500X-0.160000X-0.197500X0*%
%ADD19C,9.000000*%
%ADD20C,4.000000*%
%ADD21R,2.500000X3.300000*%
%ADD22RoundRect,0.150000X0.150000X-0.350000X0.150000X0.350000X-0.150000X0.350000X-0.150000X-0.350000X0*%
%ADD23RoundRect,0.192308X0.307692X0.682692X-0.307692X0.682692X-0.307692X-0.682692X0.307692X-0.682692X0*%
%ADD24RoundRect,0.112500X0.237500X-0.112500X0.237500X0.112500X-0.237500X0.112500X-0.237500X-0.112500X0*%
%ADD25RoundRect,0.150000X-0.150000X0.350000X-0.150000X-0.350000X0.150000X-0.350000X0.150000X0.350000X0*%
%ADD26RoundRect,0.192308X-0.307692X-0.682692X0.307692X-0.682692X0.307692X0.682692X-0.307692X0.682692X0*%
%ADD27RotRect,2.500000X3.300000X60.000000*%
%ADD28RoundRect,0.155000X-0.155000X0.212500X-0.155000X-0.212500X0.155000X-0.212500X0.155000X0.212500X0*%
%ADD29RoundRect,0.155000X0.212500X0.155000X-0.212500X0.155000X-0.212500X-0.155000X0.212500X-0.155000X0*%
%ADD30RoundRect,0.162500X0.162500X-0.587500X0.162500X0.587500X-0.162500X0.587500X-0.162500X-0.587500X0*%
%ADD31C,1.700000*%
%ADD32RoundRect,0.093750X0.531250X0.093750X-0.531250X0.093750X-0.531250X-0.093750X0.531250X-0.093750X0*%
%ADD33RoundRect,0.093750X-0.093750X0.531250X-0.093750X-0.531250X0.093750X-0.531250X0.093750X0.531250X0*%
%ADD34RoundRect,0.162500X-0.587500X-0.162500X0.587500X-0.162500X0.587500X0.162500X-0.587500X0.162500X0*%
%ADD35RoundRect,0.155000X0.155000X-0.212500X0.155000X0.212500X-0.155000X0.212500X-0.155000X-0.212500X0*%
%ADD36RotRect,2.500000X3.300000X300.000000*%
%ADD37RoundRect,0.192308X0.682692X-0.307692X0.682692X0.307692X-0.682692X0.307692X-0.682692X-0.307692X0*%
%ADD38RoundRect,0.112500X-0.112500X-0.237500X0.112500X-0.237500X0.112500X0.237500X-0.112500X0.237500X0*%
%ADD39RoundRect,0.162500X-0.162500X0.587500X-0.162500X-0.587500X0.162500X-0.587500X0.162500X0.587500X0*%
%ADD40RoundRect,0.093750X-0.531250X-0.093750X0.531250X-0.093750X0.531250X0.093750X-0.531250X0.093750X0*%
%ADD41RoundRect,0.093750X0.093750X-0.531250X0.093750X0.531250X-0.093750X0.531250X-0.093750X-0.531250X0*%
%ADD42RotRect,2.500000X3.300000X240.000000*%
%ADD43RoundRect,0.112500X0.112500X0.237500X-0.112500X0.237500X-0.112500X-0.237500X0.112500X-0.237500X0*%
%ADD44RoundRect,0.162500X0.587500X0.162500X-0.587500X0.162500X-0.587500X-0.162500X0.587500X-0.162500X0*%
G04 APERTURE END LIST*
D10*
%TO.C,R89*%
X94452498Y-156230002D03*
X95647498Y-156230002D03*
%TD*%
D11*
%TO.C,Q15*%
X60862500Y-162150000D03*
X60862500Y-164050000D03*
X62737500Y-163100000D03*
%TD*%
D12*
%TO.C,R78*%
X126550000Y-145942500D03*
X126550000Y-147137500D03*
%TD*%
D13*
%TO.C,R32*%
X62447500Y-126050000D03*
X61252500Y-126050000D03*
%TD*%
D10*
%TO.C,R37*%
X60102500Y-129900000D03*
X61297500Y-129900000D03*
%TD*%
D14*
%TO.C,R30*%
X65275000Y-161350000D03*
X65275000Y-164450000D03*
%TD*%
D15*
%TO.C,Q34*%
X121440000Y-143700000D03*
X121440000Y-145000000D03*
X123440000Y-144350000D03*
%TD*%
D16*
%TO.C,C27*%
X108222500Y-153480000D03*
X109357500Y-153480000D03*
%TD*%
D13*
%TO.C,R105*%
X107507500Y-181890000D03*
X106312500Y-181890000D03*
%TD*%
D11*
%TO.C,Q3*%
X42972500Y-160760000D03*
X42972500Y-162660000D03*
X44847500Y-161710000D03*
%TD*%
D17*
%TO.C,Q33*%
X113778750Y-150330000D03*
X113778750Y-148430000D03*
X111903750Y-149380000D03*
%TD*%
D18*
%TO.C,R62*%
X110268750Y-131357500D03*
X110268750Y-130162500D03*
%TD*%
D19*
%TO.C,BT13*%
X102150000Y-196600000D03*
D20*
X95650000Y-201400000D03*
D21*
X95150000Y-196600000D03*
%TD*%
D22*
%TO.C,Q30*%
X81450000Y-142087500D03*
X83350000Y-142087500D03*
X82400000Y-140212500D03*
%TD*%
D23*
%TO.C,R80*%
X121220000Y-149590000D03*
X118120000Y-149590000D03*
%TD*%
D12*
%TO.C,R13*%
X40050000Y-137502500D03*
X40050000Y-138697500D03*
%TD*%
D13*
%TO.C,R26*%
X61957500Y-151980000D03*
X60762500Y-151980000D03*
%TD*%
D16*
%TO.C,C21*%
X118732500Y-145110000D03*
X119867500Y-145110000D03*
%TD*%
D24*
%TO.C,Q59*%
X113850000Y-191960000D03*
X113850000Y-190660000D03*
X111850000Y-191310000D03*
%TD*%
D18*
%TO.C,R113*%
X110440000Y-185157500D03*
X110440000Y-183962500D03*
%TD*%
D22*
%TO.C,Q53*%
X116270000Y-170967500D03*
X118170000Y-170967500D03*
X117220000Y-169092500D03*
%TD*%
D10*
%TO.C,R97*%
X99022500Y-184070000D03*
X100217500Y-184070000D03*
%TD*%
D25*
%TO.C,Q10*%
X46980000Y-143492500D03*
X45080000Y-143492500D03*
X46030000Y-145367500D03*
%TD*%
D26*
%TO.C,R50*%
X83220000Y-149920000D03*
X86320000Y-149920000D03*
%TD*%
D13*
%TO.C,R45*%
X73627500Y-162950000D03*
X72432500Y-162950000D03*
%TD*%
D18*
%TO.C,R104*%
X108600000Y-186027500D03*
X108600000Y-184832500D03*
%TD*%
D16*
%TO.C,C3*%
X38402500Y-149070000D03*
X39537500Y-149070000D03*
%TD*%
D19*
%TO.C,BT8*%
X102150000Y-157280000D03*
D20*
X101243078Y-149250835D03*
D27*
X105650000Y-151217822D03*
%TD*%
D10*
%TO.C,R123*%
X99142500Y-202560000D03*
X100337500Y-202560000D03*
%TD*%
D13*
%TO.C,R77*%
X118507500Y-152600000D03*
X117312500Y-152600000D03*
%TD*%
D16*
%TO.C,C30*%
X97012500Y-172250000D03*
X98147500Y-172250000D03*
%TD*%
D12*
%TO.C,R55*%
X96069884Y-129089533D03*
X96069884Y-130284533D03*
%TD*%
D10*
%TO.C,R88*%
X96342500Y-162170000D03*
X97537500Y-162170000D03*
%TD*%
D12*
%TO.C,R111*%
X134370000Y-195172500D03*
X134370000Y-196367500D03*
%TD*%
D13*
%TO.C,R67*%
X106067500Y-128890000D03*
X104872500Y-128890000D03*
%TD*%
%TO.C,R74*%
X104857500Y-181760000D03*
X103662500Y-181760000D03*
%TD*%
%TO.C,R66*%
X108477500Y-129990000D03*
X107282500Y-129990000D03*
%TD*%
D18*
%TO.C,R21*%
X60680000Y-148697500D03*
X60680000Y-147502500D03*
%TD*%
D12*
%TO.C,R118*%
X125620000Y-185342500D03*
X125620000Y-186537500D03*
%TD*%
D15*
%TO.C,Q12*%
X46430000Y-150400000D03*
X46430000Y-151700000D03*
X48430000Y-151050000D03*
%TD*%
D28*
%TO.C,C35*%
X132250000Y-195162500D03*
X132250000Y-196297500D03*
%TD*%
D16*
%TO.C,C11*%
X60122500Y-131060000D03*
X61257500Y-131060000D03*
%TD*%
D22*
%TO.C,Q25*%
X83870000Y-153637500D03*
X85770000Y-153637500D03*
X84820000Y-151762500D03*
%TD*%
D28*
%TO.C,C29*%
X97870000Y-182902500D03*
X97870000Y-184037500D03*
%TD*%
D18*
%TO.C,R96*%
X96710000Y-184177500D03*
X96710000Y-182982500D03*
%TD*%
D29*
%TO.C,C28*%
X96507500Y-168800000D03*
X95372500Y-168800000D03*
%TD*%
D13*
%TO.C,R84*%
X103887500Y-141740000D03*
X102692500Y-141740000D03*
%TD*%
D30*
%TO.C,U1*%
X25190000Y-154941250D03*
X26460000Y-154941250D03*
X27730000Y-154941250D03*
X29000000Y-154941250D03*
X29000000Y-147641250D03*
X27730000Y-147641250D03*
X26460000Y-147641250D03*
X25190000Y-147641250D03*
%TD*%
D12*
%TO.C,R38*%
X61600000Y-132802500D03*
X61600000Y-133997500D03*
%TD*%
D13*
%TO.C,R53*%
X77297500Y-126050000D03*
X76102500Y-126050000D03*
%TD*%
D16*
%TO.C,C4*%
X50482500Y-127950000D03*
X51617500Y-127950000D03*
%TD*%
D31*
%TO.C,J3*%
X77920000Y-174050000D03*
%TD*%
D10*
%TO.C,R18*%
X37992500Y-141780000D03*
X39187500Y-141780000D03*
%TD*%
D24*
%TO.C,Q39*%
X115990000Y-165130000D03*
X115990000Y-163830000D03*
X113990000Y-164480000D03*
%TD*%
D22*
%TO.C,Q55*%
X118930000Y-173998750D03*
X120830000Y-173998750D03*
X119880000Y-172123750D03*
%TD*%
D32*
%TO.C,U2*%
X41847000Y-147732500D03*
X41847000Y-147082500D03*
X41847000Y-146432500D03*
X41847000Y-145782500D03*
X35847000Y-145782500D03*
X35847000Y-146432500D03*
X35847000Y-147082500D03*
X35847000Y-147732500D03*
%TD*%
D18*
%TO.C,R116*%
X131270000Y-196407500D03*
X131270000Y-195212500D03*
%TD*%
D16*
%TO.C,C24*%
X118882500Y-165270000D03*
X120017500Y-165270000D03*
%TD*%
D11*
%TO.C,Q36*%
X127412500Y-150110000D03*
X127412500Y-152010000D03*
X129287500Y-151060000D03*
%TD*%
D13*
%TO.C,R76*%
X120847500Y-151600000D03*
X119652500Y-151600000D03*
%TD*%
D26*
%TO.C,R70*%
X106040000Y-144400000D03*
X109140000Y-144400000D03*
%TD*%
D10*
%TO.C,R114*%
X112392500Y-205680000D03*
X113587500Y-205680000D03*
%TD*%
D12*
%TO.C,R31*%
X62460000Y-129872500D03*
X62460000Y-131067500D03*
%TD*%
D10*
%TO.C,R43*%
X76792500Y-150360000D03*
X77987500Y-150360000D03*
%TD*%
D31*
%TO.C,J2*%
X75390000Y-176600000D03*
%TD*%
D24*
%TO.C,Q37*%
X112750000Y-168030000D03*
X112750000Y-166730000D03*
X110750000Y-167380000D03*
%TD*%
D12*
%TO.C,R94*%
X99240000Y-169362500D03*
X99240000Y-170557500D03*
%TD*%
D33*
%TO.C,U26*%
X92255000Y-193650000D03*
X91605000Y-193650000D03*
X90955000Y-193650000D03*
X90305000Y-193650000D03*
X90305000Y-199650000D03*
X90955000Y-199650000D03*
X91605000Y-199650000D03*
X92255000Y-199650000D03*
%TD*%
D16*
%TO.C,C5*%
X37332500Y-131430000D03*
X38467500Y-131430000D03*
%TD*%
D32*
%TO.C,U14*%
X122150000Y-148105000D03*
X122150000Y-147455000D03*
X122150000Y-146805000D03*
X122150000Y-146155000D03*
X116150000Y-146155000D03*
X116150000Y-146805000D03*
X116150000Y-147455000D03*
X116150000Y-148105000D03*
%TD*%
D13*
%TO.C,R61*%
X104927500Y-131060000D03*
X103732500Y-131060000D03*
%TD*%
D15*
%TO.C,Q7*%
X54550000Y-127400000D03*
X54550000Y-128700000D03*
X56550000Y-128050000D03*
%TD*%
D16*
%TO.C,C8*%
X60732500Y-150900000D03*
X61867500Y-150900000D03*
%TD*%
D13*
%TO.C,R59*%
X83117500Y-143320000D03*
X81922500Y-143320000D03*
%TD*%
%TO.C,R49*%
X85687500Y-154880000D03*
X84492500Y-154880000D03*
%TD*%
D34*
%TO.C,U25*%
X102130000Y-203375000D03*
X102130000Y-204645000D03*
X102130000Y-205915000D03*
X102130000Y-207185000D03*
X109430000Y-207185000D03*
X109430000Y-205915000D03*
X109430000Y-204645000D03*
X109430000Y-203375000D03*
%TD*%
D15*
%TO.C,Q22*%
X72980000Y-164490000D03*
X72980000Y-165790000D03*
X74980000Y-165140000D03*
%TD*%
D11*
%TO.C,Q51*%
X110732500Y-169670000D03*
X110732500Y-171570000D03*
X112607500Y-170620000D03*
%TD*%
D35*
%TO.C,C32*%
X106620000Y-170917500D03*
X106620000Y-169782500D03*
%TD*%
D34*
%TO.C,U11*%
X86929884Y-127032033D03*
X86929884Y-128302033D03*
X86929884Y-129572033D03*
X86929884Y-130842033D03*
X94229884Y-130842033D03*
X94229884Y-129572033D03*
X94229884Y-128302033D03*
X94229884Y-127032033D03*
%TD*%
D18*
%TO.C,R69*%
X101238750Y-144607500D03*
X101238750Y-143412500D03*
%TD*%
D26*
%TO.C,R10*%
X41425000Y-154650000D03*
X44525000Y-154650000D03*
%TD*%
D19*
%TO.C,BT11*%
X113500000Y-176940000D03*
D20*
X120906922Y-180169165D03*
D36*
X117000000Y-183002178D03*
%TD*%
D31*
%TO.C,J6*%
X75390000Y-174050000D03*
%TD*%
D24*
%TO.C,Q57*%
X116900000Y-206420000D03*
X116900000Y-205120000D03*
X114900000Y-205770000D03*
%TD*%
D15*
%TO.C,Q32*%
X116200001Y-129800000D03*
X116200000Y-131100001D03*
X118200000Y-130450000D03*
%TD*%
D18*
%TO.C,R14*%
X57650000Y-129357500D03*
X57650000Y-128162500D03*
%TD*%
D12*
%TO.C,R35*%
X58890000Y-129892500D03*
X58890000Y-131087500D03*
%TD*%
D10*
%TO.C,R63*%
X113982500Y-129790000D03*
X115177500Y-129790000D03*
%TD*%
D24*
%TO.C,Q47*%
X102000000Y-172080000D03*
X102000000Y-170780000D03*
X100000000Y-171430000D03*
%TD*%
D13*
%TO.C,R75*%
X118547500Y-163180000D03*
X117352500Y-163180000D03*
%TD*%
D19*
%TO.C,BT9*%
X113500000Y-137620000D03*
D20*
X120906922Y-140849165D03*
D36*
X117000000Y-143682178D03*
%TD*%
D37*
%TO.C,R40*%
X59200000Y-139200000D03*
X59200000Y-136100000D03*
%TD*%
D12*
%TO.C,R68*%
X115010000Y-149622500D03*
X115010000Y-150817500D03*
%TD*%
D18*
%TO.C,R44*%
X76140000Y-166357500D03*
X76140000Y-165162500D03*
%TD*%
D22*
%TO.C,Q40*%
X123000000Y-151007500D03*
X124900000Y-151007500D03*
X123950000Y-149132500D03*
%TD*%
D16*
%TO.C,C2*%
X27177500Y-157941250D03*
X28312500Y-157941250D03*
%TD*%
D19*
%TO.C,BT6*%
X79450000Y-157280000D03*
D20*
X86856922Y-160509165D03*
D36*
X82950000Y-163342178D03*
%TD*%
D25*
%TO.C,Q8*%
X39190000Y-142962500D03*
X37290000Y-142962500D03*
X38240000Y-144837500D03*
%TD*%
D11*
%TO.C,Q1*%
X24782500Y-159410000D03*
X24782500Y-161310000D03*
X26657500Y-160360000D03*
%TD*%
D12*
%TO.C,R92*%
X84000000Y-175902502D03*
X84000000Y-177097502D03*
%TD*%
%TO.C,R23*%
X100290000Y-206092500D03*
X100290000Y-207287500D03*
%TD*%
D38*
%TO.C,Q17*%
X75500000Y-130310000D03*
X76800000Y-130310000D03*
X76150000Y-128310000D03*
%TD*%
D15*
%TO.C,Q27*%
X95300000Y-132570000D03*
X95300000Y-133870000D03*
X97300000Y-133220000D03*
%TD*%
D23*
%TO.C,R100*%
X86040000Y-169790000D03*
X82940000Y-169790000D03*
%TD*%
D18*
%TO.C,R107*%
X105310000Y-169977500D03*
X105310000Y-168782500D03*
%TD*%
D15*
%TO.C,Q52*%
X105850000Y-183180000D03*
X105850000Y-184480000D03*
X107850000Y-183830000D03*
%TD*%
D19*
%TO.C,BT12*%
X124850000Y-196600000D03*
D20*
X118350000Y-201400000D03*
D21*
X117850000Y-196600000D03*
%TD*%
D23*
%TO.C,R20*%
X47800000Y-147070000D03*
X44700000Y-147070000D03*
%TD*%
D13*
%TO.C,R71*%
X116087500Y-152580000D03*
X114892500Y-152580000D03*
%TD*%
D28*
%TO.C,C12*%
X77250000Y-135442500D03*
X77250000Y-136577500D03*
%TD*%
D13*
%TO.C,R108*%
X117537500Y-172250000D03*
X116342500Y-172250000D03*
%TD*%
%TO.C,R101*%
X105027500Y-171150000D03*
X103832500Y-171150000D03*
%TD*%
D18*
%TO.C,R102*%
X109370000Y-171157500D03*
X109370000Y-169962500D03*
%TD*%
D11*
%TO.C,Q6*%
X36782500Y-137010000D03*
X36782500Y-138910000D03*
X38657500Y-137960000D03*
%TD*%
D13*
%TO.C,R33*%
X53727500Y-126440000D03*
X52532500Y-126440000D03*
%TD*%
D10*
%TO.C,R91*%
X99602500Y-182950000D03*
X100797500Y-182950000D03*
%TD*%
D19*
%TO.C,BT7*%
X90800000Y-176940000D03*
D20*
X89893078Y-168910835D03*
D27*
X94300000Y-170877822D03*
%TD*%
D25*
%TO.C,Q5*%
X42450000Y-150802500D03*
X40550000Y-150802500D03*
X41500000Y-152677500D03*
%TD*%
D16*
%TO.C,C10*%
X73952500Y-127250000D03*
X75087500Y-127250000D03*
%TD*%
D18*
%TO.C,R12*%
X35600000Y-138797500D03*
X35600000Y-137602500D03*
%TD*%
D13*
%TO.C,R2*%
X25901250Y-162841250D03*
X24706250Y-162841250D03*
%TD*%
D18*
%TO.C,R103*%
X113930000Y-170807500D03*
X113930000Y-169612500D03*
%TD*%
D16*
%TO.C,C19*%
X107232500Y-141750000D03*
X108367500Y-141750000D03*
%TD*%
D10*
%TO.C,R87*%
X111012500Y-165170000D03*
X112207500Y-165170000D03*
%TD*%
D16*
%TO.C,C9*%
X42322500Y-159220000D03*
X43457500Y-159220000D03*
%TD*%
D18*
%TO.C,R98*%
X92190000Y-164617500D03*
X92190000Y-163422500D03*
%TD*%
D32*
%TO.C,U10*%
X87330000Y-167635000D03*
X87330000Y-166985000D03*
X87330000Y-166335000D03*
X87330000Y-165685000D03*
X81330000Y-165685000D03*
X81330000Y-166335000D03*
X81330000Y-166985000D03*
X81330000Y-167635000D03*
%TD*%
D39*
%TO.C,U21*%
X107525000Y-172770000D03*
X106255000Y-172770000D03*
X104985000Y-172770000D03*
X103715000Y-172770000D03*
X103715000Y-180070000D03*
X104985000Y-180070000D03*
X106255000Y-180070000D03*
X107525000Y-180070000D03*
%TD*%
D11*
%TO.C,Q16*%
X58932500Y-126440000D03*
X58932500Y-128340000D03*
X60807500Y-127390000D03*
%TD*%
D18*
%TO.C,R47*%
X72120000Y-152127500D03*
X72120000Y-150932500D03*
%TD*%
D17*
%TO.C,Q28*%
X82967500Y-133790000D03*
X82967500Y-131890000D03*
X81092500Y-132840000D03*
%TD*%
D18*
%TO.C,R126*%
X102630000Y-190417500D03*
X102630000Y-189222500D03*
%TD*%
D40*
%TO.C,U12*%
X81600000Y-146285000D03*
X81600000Y-146935000D03*
X81600000Y-147585000D03*
X81600000Y-148235000D03*
X87600000Y-148235000D03*
X87600000Y-147585000D03*
X87600000Y-146935000D03*
X87600000Y-146285000D03*
%TD*%
D19*
%TO.C,BT3*%
X45400000Y-137620000D03*
D20*
X51900000Y-132820000D03*
D21*
X52400000Y-137620000D03*
%TD*%
D17*
%TO.C,Q58*%
X124397500Y-186990000D03*
X124397500Y-185090000D03*
X122522500Y-186040000D03*
%TD*%
D10*
%TO.C,R121*%
X124662500Y-204990000D03*
X125857500Y-204990000D03*
%TD*%
D28*
%TO.C,C6*%
X54320000Y-136012500D03*
X54320000Y-137147500D03*
%TD*%
D39*
%TO.C,U9*%
X73575000Y-153930000D03*
X72305000Y-153930000D03*
X71035000Y-153930000D03*
X69765000Y-153930000D03*
X69765000Y-161230000D03*
X71035000Y-161230000D03*
X72305000Y-161230000D03*
X73575000Y-161230000D03*
%TD*%
D17*
%TO.C,Q18*%
X60237500Y-134300000D03*
X60237500Y-132400000D03*
X58362500Y-133350000D03*
%TD*%
D22*
%TO.C,Q48*%
X88850000Y-166187500D03*
X90750000Y-166187500D03*
X89800000Y-164312500D03*
%TD*%
D10*
%TO.C,R24*%
X44632500Y-152810000D03*
X45827500Y-152810000D03*
%TD*%
D13*
%TO.C,R124*%
X100337500Y-203620000D03*
X99142500Y-203620000D03*
%TD*%
D29*
%TO.C,C14*%
X70997500Y-151120000D03*
X69862500Y-151120000D03*
%TD*%
D18*
%TO.C,R73*%
X118950000Y-136747500D03*
X118950000Y-135552500D03*
%TD*%
D11*
%TO.C,Q23*%
X78552500Y-144380000D03*
X78552500Y-146280000D03*
X80427500Y-145330000D03*
%TD*%
D18*
%TO.C,R93*%
X80790000Y-173187500D03*
X80790000Y-171992500D03*
%TD*%
%TO.C,R72*%
X126260000Y-151977500D03*
X126260000Y-150782500D03*
%TD*%
D12*
%TO.C,R58*%
X84000000Y-131572500D03*
X84000000Y-132767500D03*
%TD*%
D22*
%TO.C,Q50*%
X84100000Y-173528750D03*
X86000000Y-173528750D03*
X85050000Y-171653750D03*
%TD*%
D41*
%TO.C,U8*%
X78195000Y-140590000D03*
X78845000Y-140590000D03*
X79495000Y-140590000D03*
X80145000Y-140590000D03*
X80145000Y-134590000D03*
X79495000Y-134590000D03*
X78845000Y-134590000D03*
X78195000Y-134590000D03*
%TD*%
D18*
%TO.C,R112*%
X130140000Y-196347500D03*
X130140000Y-195152500D03*
%TD*%
D11*
%TO.C,Q31*%
X111491250Y-129940000D03*
X111491250Y-131840000D03*
X113366250Y-130890000D03*
%TD*%
D10*
%TO.C,R7*%
X27177500Y-159061250D03*
X28372500Y-159061250D03*
%TD*%
D18*
%TO.C,R28*%
X119970000Y-205647500D03*
X119970000Y-204452500D03*
%TD*%
D10*
%TO.C,R6*%
X24642500Y-157251250D03*
X25837500Y-157251250D03*
%TD*%
D12*
%TO.C,R19*%
X48290000Y-142332500D03*
X48290000Y-143527500D03*
%TD*%
D18*
%TO.C,R115*%
X127060000Y-186227500D03*
X127060000Y-185032500D03*
%TD*%
D35*
%TO.C,C34*%
X128120000Y-186217500D03*
X128120000Y-185082500D03*
%TD*%
D37*
%TO.C,R60*%
X82430000Y-138810000D03*
X82430000Y-135710000D03*
%TD*%
D18*
%TO.C,R51*%
X85130000Y-132747500D03*
X85130000Y-131552500D03*
%TD*%
D29*
%TO.C,C20*%
X106147500Y-130030000D03*
X105012500Y-130030000D03*
%TD*%
D39*
%TO.C,U15*%
X118565000Y-154260000D03*
X117295000Y-154260000D03*
X116025000Y-154260000D03*
X114755000Y-154260000D03*
X114755000Y-161560000D03*
X116025000Y-161560000D03*
X117295000Y-161560000D03*
X118565000Y-161560000D03*
%TD*%
D29*
%TO.C,C25*%
X107587500Y-149330000D03*
X106452500Y-149330000D03*
%TD*%
D17*
%TO.C,Q60*%
X123047500Y-190920000D03*
X123047500Y-189020000D03*
X121172500Y-189970000D03*
%TD*%
D31*
%TO.C,J1*%
X86460000Y-203540000D03*
%TD*%
D12*
%TO.C,R57*%
X85030000Y-129212500D03*
X85030000Y-130407500D03*
%TD*%
D26*
%TO.C,R127*%
X107210000Y-192700000D03*
X110310000Y-192700000D03*
%TD*%
D19*
%TO.C,BT4*%
X68100000Y-137620000D03*
D20*
X74600000Y-132820000D03*
D21*
X75100000Y-137620000D03*
%TD*%
D13*
%TO.C,R34*%
X80167500Y-129000000D03*
X78972500Y-129000000D03*
%TD*%
%TO.C,R109*%
X120427500Y-175290000D03*
X119232500Y-175290000D03*
%TD*%
D12*
%TO.C,R119*%
X124170000Y-189372500D03*
X124170000Y-190567500D03*
%TD*%
D19*
%TO.C,BT5*%
X90800000Y-137620000D03*
D20*
X91706922Y-145649165D03*
D42*
X87300000Y-143682178D03*
%TD*%
D25*
%TO.C,Q41*%
X106440001Y-163682499D03*
X104540001Y-163682499D03*
X105490001Y-165557499D03*
%TD*%
D19*
%TO.C,BT2*%
X34050000Y-157280000D03*
D20*
X33143078Y-149250835D03*
D27*
X37550000Y-151217822D03*
%TD*%
D17*
%TO.C,Q56*%
X127297500Y-190120000D03*
X127297500Y-188220000D03*
X125422500Y-189170000D03*
%TD*%
D16*
%TO.C,C13*%
X74832500Y-163000000D03*
X75967500Y-163000000D03*
%TD*%
D30*
%TO.C,U19*%
X96945000Y-181230000D03*
X98215000Y-181230000D03*
X99485000Y-181230000D03*
X100755000Y-181230000D03*
X100755000Y-173930000D03*
X99485000Y-173930000D03*
X98215000Y-173930000D03*
X96945000Y-173930000D03*
%TD*%
D32*
%TO.C,U22*%
X121000000Y-187845000D03*
X121000000Y-187195000D03*
X121000000Y-186545000D03*
X121000000Y-185895000D03*
X115000000Y-185895000D03*
X115000000Y-186545000D03*
X115000000Y-187195000D03*
X115000000Y-187845000D03*
%TD*%
D34*
%TO.C,U7*%
X64620000Y-126535000D03*
X64620000Y-127805000D03*
X64620000Y-129075000D03*
X64620000Y-130345000D03*
X71920000Y-130345000D03*
X71920000Y-129075000D03*
X71920000Y-127805000D03*
X71920000Y-126535000D03*
%TD*%
D10*
%TO.C,R17*%
X38332500Y-132510000D03*
X39527500Y-132510000D03*
%TD*%
D26*
%TO.C,R110*%
X119950000Y-170270000D03*
X123050000Y-170270000D03*
%TD*%
D12*
%TO.C,R83*%
X103830000Y-166032500D03*
X103830000Y-167227500D03*
%TD*%
D15*
%TO.C,Q2*%
X32640000Y-144320000D03*
X32640000Y-145620000D03*
X34640000Y-144970000D03*
%TD*%
D40*
%TO.C,U20*%
X92983000Y-165987500D03*
X92983000Y-166637500D03*
X92983000Y-167287500D03*
X92983000Y-167937500D03*
X98983000Y-167937500D03*
X98983000Y-167287500D03*
X98983000Y-166637500D03*
X98983000Y-165987500D03*
%TD*%
D12*
%TO.C,R5*%
X44600000Y-150552500D03*
X44600000Y-151747500D03*
%TD*%
D32*
%TO.C,U6*%
X47025000Y-158325000D03*
X47025000Y-157675000D03*
X47025000Y-157025000D03*
X47025000Y-156375000D03*
X41025000Y-156375000D03*
X41025000Y-157025000D03*
X41025000Y-157675000D03*
X41025000Y-158325000D03*
%TD*%
D17*
%TO.C,Q38*%
X125447500Y-147470000D03*
X125447500Y-145570000D03*
X123572500Y-146520000D03*
%TD*%
D16*
%TO.C,C15*%
X85142500Y-164630000D03*
X86277500Y-164630000D03*
%TD*%
D12*
%TO.C,R36*%
X62160000Y-127352500D03*
X62160000Y-128547500D03*
%TD*%
D38*
%TO.C,Q49*%
X99480000Y-165129999D03*
X100780001Y-165130000D03*
X100130000Y-163130000D03*
%TD*%
D18*
%TO.C,R25*%
X49475000Y-151247500D03*
X49475000Y-150052500D03*
%TD*%
D29*
%TO.C,C23*%
X118487500Y-151590000D03*
X117352500Y-151590000D03*
%TD*%
D34*
%TO.C,U3*%
X41300000Y-127465000D03*
X41300000Y-128735000D03*
X41300000Y-130005000D03*
X41300000Y-131275000D03*
X48600000Y-131275000D03*
X48600000Y-130005000D03*
X48600000Y-128735000D03*
X48600000Y-127465000D03*
%TD*%
D15*
%TO.C,Q54*%
X123810000Y-182260000D03*
X123810000Y-183560000D03*
X125810000Y-182910000D03*
%TD*%
D13*
%TO.C,R39*%
X60087500Y-144060000D03*
X58892500Y-144060000D03*
%TD*%
D23*
%TO.C,R120*%
X119760000Y-189770000D03*
X116660000Y-189770000D03*
%TD*%
D43*
%TO.C,Q19*%
X82770000Y-128810000D03*
X81470000Y-128810000D03*
X82120000Y-130810000D03*
%TD*%
D33*
%TO.C,U24*%
X114715000Y-193660000D03*
X114065000Y-193660000D03*
X113415000Y-193660000D03*
X112765000Y-193660000D03*
X112765000Y-199660000D03*
X113415000Y-199660000D03*
X114065000Y-199660000D03*
X114715000Y-199660000D03*
%TD*%
D29*
%TO.C,C18*%
X85497500Y-145120000D03*
X84362500Y-145120000D03*
%TD*%
D16*
%TO.C,C1*%
X24676250Y-146051250D03*
X25811250Y-146051250D03*
%TD*%
D18*
%TO.C,R8*%
X41620000Y-162107500D03*
X41620000Y-160912500D03*
%TD*%
D16*
%TO.C,C33*%
X118642500Y-184780000D03*
X119777500Y-184780000D03*
%TD*%
D29*
%TO.C,C7*%
X50942500Y-153725000D03*
X49807500Y-153725000D03*
%TD*%
D18*
%TO.C,R48*%
X77350000Y-146357500D03*
X77350000Y-145162500D03*
%TD*%
D30*
%TO.C,U17*%
X108415000Y-162400000D03*
X109685000Y-162400000D03*
X110955000Y-162400000D03*
X112225000Y-162400000D03*
X112225000Y-155100000D03*
X110955000Y-155100000D03*
X109685000Y-155100000D03*
X108415000Y-155100000D03*
%TD*%
D11*
%TO.C,Q21*%
X73652500Y-148760000D03*
X73652500Y-150660000D03*
X75527500Y-149710000D03*
%TD*%
D18*
%TO.C,R125*%
X108600000Y-197147500D03*
X108600000Y-195952500D03*
%TD*%
D12*
%TO.C,R11*%
X39600000Y-130152500D03*
X39600000Y-131347500D03*
%TD*%
D35*
%TO.C,C22*%
X120140000Y-160747500D03*
X120140000Y-159612500D03*
%TD*%
D28*
%TO.C,C17*%
X83969884Y-128639533D03*
X83969884Y-129774533D03*
%TD*%
D24*
%TO.C,Q29*%
X80429999Y-149030000D03*
X80430000Y-147729999D03*
X78430000Y-148380000D03*
%TD*%
D10*
%TO.C,R9*%
X40942500Y-149580000D03*
X42137500Y-149580000D03*
%TD*%
D18*
%TO.C,R3*%
X37800000Y-162497500D03*
X37800000Y-161302500D03*
%TD*%
D14*
%TO.C,R90*%
X94020000Y-160490000D03*
X94020000Y-163590000D03*
%TD*%
D13*
%TO.C,R106*%
X107797500Y-168560000D03*
X106602500Y-168560000D03*
%TD*%
D22*
%TO.C,Q26*%
X78840000Y-127907500D03*
X80740000Y-127907500D03*
X79790000Y-126032500D03*
%TD*%
D30*
%TO.C,U23*%
X129955000Y-193150000D03*
X131225000Y-193150000D03*
X132495000Y-193150000D03*
X133765000Y-193150000D03*
X133765000Y-185850000D03*
X132495000Y-185850000D03*
X131225000Y-185850000D03*
X129955000Y-185850000D03*
%TD*%
D18*
%TO.C,R22*%
X61610000Y-155017500D03*
X61610000Y-153822500D03*
%TD*%
D10*
%TO.C,R27*%
X60682500Y-149730000D03*
X61877500Y-149730000D03*
%TD*%
D19*
%TO.C,BT1*%
X56750000Y-157280000D03*
D20*
X50250000Y-162080000D03*
D21*
X49750000Y-157280000D03*
%TD*%
D18*
%TO.C,R131*%
X67575000Y-167722500D03*
X67575000Y-166527500D03*
%TD*%
D24*
%TO.C,Q42*%
X113200000Y-153200000D03*
X113200000Y-151900000D03*
X111200000Y-152550000D03*
%TD*%
D16*
%TO.C,C31*%
X108682500Y-182350000D03*
X109817500Y-182350000D03*
%TD*%
D11*
%TO.C,Q11*%
X63202500Y-153600000D03*
X63202500Y-155500000D03*
X65077500Y-154550000D03*
%TD*%
D35*
%TO.C,C37*%
X109270000Y-201547500D03*
X109270000Y-200412500D03*
%TD*%
D31*
%TO.C,J4*%
X77930000Y-171520000D03*
%TD*%
D12*
%TO.C,R4*%
X35650000Y-143432500D03*
X35650000Y-144627500D03*
%TD*%
D18*
%TO.C,R95*%
X82430000Y-173267500D03*
X82430000Y-172072500D03*
%TD*%
D40*
%TO.C,U18*%
X104310000Y-146375000D03*
X104310000Y-147025000D03*
X104310000Y-147675000D03*
X104310000Y-148325000D03*
X110310000Y-148325000D03*
X110310000Y-147675000D03*
X110310000Y-147025000D03*
X110310000Y-146375000D03*
%TD*%
D31*
%TO.C,J5*%
X75390000Y-171510000D03*
%TD*%
D10*
%TO.C,R1*%
X27177500Y-156811250D03*
X28372500Y-156811250D03*
%TD*%
D38*
%TO.C,Q4*%
X40750000Y-144859999D03*
X42050001Y-144860000D03*
X41400000Y-142860000D03*
%TD*%
D15*
%TO.C,Q9*%
X60790000Y-136200000D03*
X60790000Y-137500000D03*
X62790000Y-136850000D03*
%TD*%
D25*
%TO.C,Q43*%
X97870000Y-163232500D03*
X95970000Y-163232500D03*
X96920000Y-165107500D03*
%TD*%
D17*
%TO.C,Q46*%
X82658750Y-177120000D03*
X82658750Y-175220000D03*
X80783750Y-176170000D03*
%TD*%
D13*
%TO.C,R85*%
X103567500Y-163170000D03*
X102372500Y-163170000D03*
%TD*%
D12*
%TO.C,R54*%
X98570000Y-132002500D03*
X98570000Y-133197500D03*
%TD*%
D18*
%TO.C,R52*%
X82080000Y-127237500D03*
X82080000Y-126042500D03*
%TD*%
D41*
%TO.C,U4*%
X55275000Y-140520000D03*
X55925000Y-140520000D03*
X56575000Y-140520000D03*
X57225000Y-140520000D03*
X57225000Y-134520000D03*
X56575000Y-134520000D03*
X55925000Y-134520000D03*
X55275000Y-134520000D03*
%TD*%
D15*
%TO.C,Q44*%
X108970000Y-149630000D03*
X108970000Y-150930000D03*
X110970000Y-150280000D03*
%TD*%
D35*
%TO.C,C36*%
X115760000Y-197167500D03*
X115760000Y-196032500D03*
%TD*%
D18*
%TO.C,R64*%
X118440000Y-134057500D03*
X118440000Y-132862500D03*
%TD*%
D13*
%TO.C,R65*%
X106147500Y-141700000D03*
X104952500Y-141700000D03*
%TD*%
D24*
%TO.C,Q14*%
X47289999Y-165090000D03*
X47290000Y-163789999D03*
X45290000Y-164440000D03*
%TD*%
D35*
%TO.C,C16*%
X96019884Y-127894533D03*
X96019884Y-126759533D03*
%TD*%
D10*
%TO.C,R122*%
X111492500Y-203870000D03*
X112687500Y-203870000D03*
%TD*%
D39*
%TO.C,U13*%
X107525000Y-132800000D03*
X106255000Y-132800000D03*
X104985000Y-132800000D03*
X103715000Y-132800000D03*
X103715000Y-140100000D03*
X104985000Y-140100000D03*
X106255000Y-140100000D03*
X107525000Y-140100000D03*
%TD*%
D13*
%TO.C,R79*%
X124417500Y-152120000D03*
X123222500Y-152120000D03*
%TD*%
%TO.C,R42*%
X72637500Y-149630000D03*
X71442500Y-149630000D03*
%TD*%
D11*
%TO.C,Q62*%
X103882500Y-188890000D03*
X103882500Y-190790000D03*
X105757500Y-189840000D03*
%TD*%
D10*
%TO.C,R82*%
X104992500Y-162520000D03*
X106187500Y-162520000D03*
%TD*%
%TO.C,R16*%
X37112500Y-133560000D03*
X38307500Y-133560000D03*
%TD*%
D11*
%TO.C,Q13*%
X121202500Y-204190000D03*
X121202500Y-206090000D03*
X123077500Y-205140000D03*
%TD*%
D13*
%TO.C,R41*%
X70997500Y-152180000D03*
X69802500Y-152180000D03*
%TD*%
D19*
%TO.C,BT10*%
X124850000Y-157280000D03*
D20*
X125756922Y-165309165D03*
D42*
X121350000Y-163342178D03*
%TD*%
D13*
%TO.C,R99*%
X85577501Y-174670000D03*
X84382501Y-174670000D03*
%TD*%
D28*
%TO.C,C26*%
X109800000Y-164082500D03*
X109800000Y-165217500D03*
%TD*%
D11*
%TO.C,Q61*%
X109902500Y-195410000D03*
X109902500Y-197310000D03*
X111777500Y-196360000D03*
%TD*%
D18*
%TO.C,R29*%
X59050000Y-164247500D03*
X59050000Y-163052500D03*
%TD*%
D13*
%TO.C,R46*%
X74477500Y-152200000D03*
X73282500Y-152200000D03*
%TD*%
D35*
%TO.C,C39*%
X93160000Y-197277500D03*
X93160000Y-196142500D03*
%TD*%
D24*
%TO.C,Q66*%
X65600000Y-167750000D03*
X65600000Y-166450000D03*
X63600000Y-167100000D03*
%TD*%
D18*
%TO.C,R86*%
X108570000Y-165267500D03*
X108570000Y-164072500D03*
%TD*%
D44*
%TO.C,U5*%
X58950000Y-151815000D03*
X58950000Y-150545000D03*
X58950000Y-149275000D03*
X58950000Y-148005000D03*
X51650000Y-148005000D03*
X51650000Y-149275000D03*
X51650000Y-150545000D03*
X51650000Y-151815000D03*
%TD*%
D29*
%TO.C,C38*%
X100337500Y-204690000D03*
X99202500Y-204690000D03*
%TD*%
D13*
%TO.C,R15*%
X51597500Y-130100000D03*
X50402500Y-130100000D03*
%TD*%
D11*
%TO.C,Q35*%
X102571250Y-143100000D03*
X102571250Y-145000000D03*
X104446250Y-144050000D03*
%TD*%
D32*
%TO.C,U16*%
X122427000Y-168212500D03*
X122427000Y-167562500D03*
X122427000Y-166912500D03*
X122427000Y-166262500D03*
X116427000Y-166262500D03*
X116427000Y-166912500D03*
X116427000Y-167562500D03*
X116427000Y-168212500D03*
%TD*%
D25*
%TO.C,Q45*%
X96080000Y-157402500D03*
X94180000Y-157402500D03*
X95130000Y-159277500D03*
%TD*%
D22*
%TO.C,Q20*%
X58530000Y-142808750D03*
X60430000Y-142808750D03*
X59480000Y-140933750D03*
%TD*%
D15*
%TO.C,Q24*%
X89490000Y-161540000D03*
X89490000Y-162840000D03*
X91490000Y-162190000D03*
%TD*%
D10*
%TO.C,R81*%
X110992500Y-164070000D03*
X112187500Y-164070000D03*
%TD*%
D12*
%TO.C,R56*%
X85070000Y-126882500D03*
X85070000Y-128077500D03*
%TD*%
%TO.C,R117*%
X133250000Y-195132500D03*
X133250000Y-196327500D03*
%TD*%
M02*
